<svg height="456pt" viewBox="0 0 456 456.614" width="456pt" xmlns="http://www.w3.org/2000/svg"><path d="m354.878906 256.441406c-53.960937 0-97.859375 43.785156-97.859375 97.597656-.019531 19.15625 5.640625 37.882813 16.265625 53.820313.394532.445313.730469.9375 1 1.46875 18.273438 26.5 48.410156 42.320313 80.597656 42.316406 53.960938 0 97.859376-43.785156 97.859376-97.601562 0-53.8125-43.902344-97.601563-97.863282-97.601563zm0 89.917969c19.0625.015625 34.996094 14.507813 36.808594 33.484375s-11.09375 36.226562-29.808594 39.84375v11.519531c0 3.867188-3.132812 7-7 7-3.867187 0-7-3.132812-7-7v-11.519531c-17.402344-3.375-29.976562-18.601562-30-36.328125 0-3.863281 3.132813-7 7-7 3.867188 0 7 3.136719 7 7 .015625 12.585937 10.132813 22.828125 22.71875 22.996094.097656 0 .1875-.015625.28125-.015625s.1875.011718.28125.015625c12.554688-.285157 22.5625-10.582031 22.484375-23.136719s-10.210937-22.730469-22.765625-22.859375c-19.0625-.011719-34.996094-14.503906-36.808594-33.480469-1.8125-18.976562 11.09375-36.226562 29.808594-39.84375v-10.15625c0-3.867187 3.132813-7 7-7 3.867188 0 7 3.132813 7 7v10.152344c17.402344 3.375 29.976563 18.601562 30 36.328125 0 3.867187-3.132812 7-7 7-3.867187 0-7-3.132813-7-7 0-12.703125-10.296875-23-23-23s-23 10.296875-23 23 10.296875 23 23 23zm0 0"/><path d="m223.988281 223.617188 2.480469 7.316406h5.683594l2.480468-7.277344zm0 0"/><path d="m233.808594 344.03125c-2.34375 1.582031-5.40625 1.597656-7.769532.042969l-11.933593-7.851563c-2.167969-1.429687-3.371094-3.945312-3.117188-6.53125l3.890625-39.507812-25.585937-69.222656h-7.984375c-17.113282.019531-30.984375 13.886718-31 31l.117187 90.121093c22.980469 15.875 50.257813 24.359375 78.1875 24.332031 5.011719-.007812 10.019531-.285156 15-.828124-.988281-9.546876-.746093-19.179688.722657-28.664063zm0 0"/><path d="m225.339844 326.855469 4.496094 2.960937 4.308593-2.90625-4.40625-44.757812zm0 0"/><path d="m306.308594 253.519531v-1.558593c-.019532-17.113282-13.886719-30.980469-31-31h-5.542969l-25.234375 68.523437 3.199219 32.507813c9.101562-30.003907 30.34375-54.832032 58.578125-68.472657zm0 0"/><path d="m264.882812 206.960938h10.425782c23.289062.03125 42.714844 17.804687 44.808594 41 11.222656-3.667969 22.957031-5.53125 34.761718-5.523438 3.726563 0 7.410156.183594 11.046875.542969.523438-4.871094.785157-9.769531.792969-14.671875 0-76.152344-61.953125-138.105469-138.105469-138.105469-76.148437 0-138.105469 61.953125-138.105469 138.105469-.015624 39.210937 16.679688 76.570312 45.898438 102.722656l-.097656-79.0625c.023437-24.84375 20.152344-44.980469 45-45.007812h12.863281c2.929687 0 5.546875 1.824218 6.5625 4.574218l17.285156 46.757813 1.34375-13.6875c-2.132812-.664063-3.816406-2.308594-4.539062-4.425781l-7.246094-21.347657c-.726563-2.136719-.375-4.492187.9375-6.328125 1.316406-1.832031 3.433594-2.921875 5.691406-2.921875h.023438l30.199219.105469c2.257812.007812 4.367187 1.101562 5.675781 2.9375 1.308593 1.835938 1.652343 4.191406.925781 6.324219l-7.246094 21.242187c-.621094 1.8125-1.960937 3.289063-3.699218 4.082032l1.296874 13.242187 16.929688-45.976563c1.015625-2.75 3.636719-4.578124 6.570312-4.578124zm-34.445312-4.613282h-4.261719c-22.6875-.027344-41.074219-18.414062-41.101562-41.101562v-18.757813c.027343-22.6875 18.414062-41.074219 41.101562-41.101562h4.261719c22.6875.027343 41.074219 18.414062 41.101562 41.101562v18.753907c-.027343 22.691406-18.410156 41.078124-41.101562 41.105468zm0 0"/><path d="m411.507812 195.851562c-3.03125-.292968-5.527343-2.511718-6.171874-5.488281-4.664063-21.546875-13.300782-42.039062-25.46875-60.425781-1.714844-2.574219-1.539063-5.96875.433593-8.347656l28.605469-34.550782-39.089844-39.589843-34.480468 28.558593c-2.355469 1.945313-5.695313 2.144532-8.261719.488282-18.46875-12.089844-38.96875-20.738282-60.515625-25.527344-2.976563-.640625-5.195313-3.136719-5.488282-6.167969l-4.316406-44.800781h-56.277344l-4.316406 44.800781c-.292968 3.03125-2.511718 5.527344-5.488281 6.167969-21.546875 4.667969-42.039063 13.304688-60.429687 25.472656-2.570313 1.714844-5.964844 1.539063-8.347657-.433594l-34.511719-28.585937-39.652343 39.648437 28.582031 34.519532c1.949219 2.351562 2.144531 5.691406.492188 8.257812-12.09375 18.46875-20.742188 38.96875-25.527344 60.515625-.644532 2.976563-3.140625 5.195313-6.171875 5.488281l-44.796875 4.316407v56.277343l44.796875 4.316407c3.03125.292969 5.527343 2.511719 6.171875 5.488281 4.664062 21.546875 13.300781 42.039062 25.46875 60.425781 1.714844 2.574219 1.539062 5.96875-.433594 8.347657l-28.582031 34.515624 39.652343 39.652344 34.511719-28.585937c2.351563-1.945313 5.695313-2.144531 8.261719-.488281 18.464844 12.089843 38.96875 20.738281 60.515625 25.527343 2.976563.644531 5.195313 3.136719 5.488281 6.167969l4.316406 44.800781h56.277344l4.066406-42.222656c-6.933593-10.710937-11.96875-22.539063-14.882812-34.964844-5.75.65625-11.535156.984375-17.324219.984375-83.871093 0-152.097656-68.234375-152.097656-152.097656 0-83.867188 68.230469-152.101562 152.097656-152.101562 83.867188 0 152.105469 68.226562 152.105469 152.097656 0 5.652344-.316406 11.300781-.9375 16.921875 12.832031 2.925781 25.046875 8.105469 36.070312 15.292969l40.457032-4.054688v-56.300781zm0 0"/><path d="m230.4375 115.386719h-4.261719c-14.960937.015625-27.082031 12.140625-27.101562 27.097656v18.757813c.019531 14.957031 12.140625 27.082031 27.101562 27.097656h4.261719c14.960938-.015625 27.082031-12.140625 27.101562-27.097656v-18.753907c-.015624-14.960937-12.140624-27.085937-27.101562-27.101562zm0 0"/></svg>