<?xml version="1.0" encoding="iso-8859-1"?>
<!-- Generator: Adobe Illustrator 16.0.0, SVG Export Plug-In . SVG Version: 6.00 Build 0)  -->
<!DOCTYPE svg PUBLIC "-//W3C//DTD SVG 1.1//EN" "http://www.w3.org/Graphics/SVG/1.1/DTD/svg11.dtd">
<svg version="1.1" id="Capa_1" xmlns="http://www.w3.org/2000/svg" xmlns:xlink="http://www.w3.org/1999/xlink" x="0px" y="0px"
	 width="38.559px" height="38.559px" viewBox="0 0 38.559 38.559" style="enable-background:new 0 0 38.559 38.559;"
	 xml:space="preserve">
<g>
	<path d="M21.902,18.218c0,2.104,0.834,4.348,2.198,5.926l-2.936,1.395V10.161h4.665v2.295
		C23.412,13.28,21.902,15.388,21.902,18.218z M18.501,25.992v-11.5h-4.668v11.5H18.501z M11.167,25.992V19.16H6.501v6.832H11.167z
		 M3,6.909h26.333v5.242c1.166,0.16,2.184,0.571,3,1.197V5.409c0-0.828-0.673-1.5-1.5-1.5H1.5c-0.828,0-1.5,0.672-1.5,1.5v25.334
		c0,0.828,0.672,1.5,1.5,1.5h15.411v-1.445c0-0.507,0.123-1.035,0.326-1.555H3V6.909z M28.236,25.245
		c2.944,0,5.332-3.666,5.332-7.026c0-3.363-2.388-5.146-5.332-5.146c-2.947,0-5.334,1.783-5.334,5.146
		C22.902,21.579,25.289,25.245,28.236,25.245z M35.818,26.891l-3.459-1.646l-2.281,4.745l-1.131-3.073
		c-0.234,0.047-0.467,0.104-0.711,0.104s-0.48-0.06-0.713-0.104l-1.191,3.23l-2.326-4.852l-3.355,1.596
		c-1.506,0.715-2.738,2.476-2.738,3.904v3.854h20.646v-3.854C38.558,29.367,37.326,27.606,35.818,26.891z"/>
</g>
<g>
</g>
<g>
</g>
<g>
</g>
<g>
</g>
<g>
</g>
<g>
</g>
<g>
</g>
<g>
</g>
<g>
</g>
<g>
</g>
<g>
</g>
<g>
</g>
<g>
</g>
<g>
</g>
<g>
</g>
</svg>
