<?xml version="1.0" encoding="iso-8859-1"?>
<!-- Generator: Adobe Illustrator 16.0.0, SVG Export Plug-In . SVG Version: 6.00 Build 0)  -->
<!DOCTYPE svg PUBLIC "-//W3C//DTD SVG 1.1//EN" "http://www.w3.org/Graphics/SVG/1.1/DTD/svg11.dtd">
<svg version="1.1" id="Capa_1" xmlns="http://www.w3.org/2000/svg" xmlns:xlink="http://www.w3.org/1999/xlink" x="0px" y="0px"
	 width="37.489px" height="37.488px" viewBox="0 0 37.489 37.488" style="enable-background:new 0 0 37.489 37.488;"
	 xml:space="preserve">
<g>
	<path d="M19.542,17.494c-0.642,0.629-1.671,0.621-2.302-0.021l-4.443-4.522v22.367c0,1.197-0.972,2.17-2.17,2.17
		c-0.756,0-1.42-0.389-1.809-0.975c-0.389,0.586-1.053,0.975-1.809,0.975c-1.198,0-2.169-0.973-2.169-2.17V23.285
		c-0.171,0.061-0.352,0.1-0.542,0.1c-0.899,0-1.627-0.729-1.627-1.627V11.181c0-0.897,0.729-1.627,1.627-1.627h3.507l0.614,0.817
		L7.292,16.75l1.524,1.438l1.525-1.438l-1.126-6.379L9.83,9.554h3.507c0.437,0,0.854,0.176,1.161,0.487l5.063,5.153
		C20.192,15.834,20.182,16.865,19.542,17.494z M8.818,8.445c2.044,0,3.701-2.543,3.701-4.875c0-2.335-1.657-3.57-3.701-3.57
		C6.772,0,5.117,1.235,5.117,3.57C5.118,5.902,6.772,8.445,8.818,8.445z M34.818,26.621c0,5.842-4.753,10.596-10.595,10.596
		c-5.842,0-10.596-4.754-10.596-10.596c0-5.844,4.753-10.597,10.596-10.597C30.065,16.025,34.818,20.779,34.818,26.621z
		 M25.989,17.613c1.525,1.271,2.689,2.867,3.406,4.652h2.908C31.018,19.891,28.719,18.146,25.989,17.613z M32.914,23.678H29.86
		c0.238,0.932,0.367,1.896,0.367,2.885c0,0.904-0.109,1.789-0.313,2.648h3.113c0.243-0.822,0.379-1.689,0.379-2.59
		C33.406,25.592,33.227,24.602,32.914,23.678z M15.419,29.211h3.114c-0.203-0.859-0.314-1.744-0.314-2.648
		c0-0.985,0.127-1.953,0.367-2.885h-3.053c-0.315,0.926-0.493,1.914-0.493,2.943C15.041,27.521,15.177,28.389,15.419,29.211z
		 M19.994,29.211h3.522v-5.533h-3.448c-0.275,0.926-0.437,1.892-0.437,2.885C19.633,27.471,19.762,28.357,19.994,29.211z
		 M24.93,22.266h2.905c-0.664-1.41-1.647-2.664-2.905-3.679V22.266z M23.516,18.588c-1.258,1.014-2.242,2.27-2.905,3.678h2.905
		V18.588z M20.502,30.623c0.662,1.504,1.686,2.844,3.014,3.912v-3.912H20.502z M24.93,34.535c1.328-1.066,2.354-2.406,3.015-3.91
		H24.93V34.535z M28.454,29.211c0.23-0.854,0.359-1.74,0.359-2.648c0-0.993-0.16-1.959-0.437-2.885h-3.448v5.533H28.454z
		 M16.142,22.266h2.908c0.718-1.785,1.882-3.383,3.408-4.652C19.727,18.146,17.427,19.891,16.142,22.266z M22.629,35.656
		c-1.679-1.35-2.932-3.086-3.666-5.031h-2.992C17.24,33.225,19.693,35.139,22.629,35.656z M32.473,30.623h-2.992
		c-0.731,1.945-1.985,3.684-3.666,5.033C28.753,35.139,31.207,33.225,32.473,30.623z"/>
</g>
<g>
</g>
<g>
</g>
<g>
</g>
<g>
</g>
<g>
</g>
<g>
</g>
<g>
</g>
<g>
</g>
<g>
</g>
<g>
</g>
<g>
</g>
<g>
</g>
<g>
</g>
<g>
</g>
<g>
</g>
</svg>
