<?xml version="1.0" encoding="UTF-8" standalone="no"?>
<svg
   xmlns:dc="http://purl.org/dc/elements/1.1/"
   xmlns:cc="http://creativecommons.org/ns#"
   xmlns:rdf="http://www.w3.org/1999/02/22-rdf-syntax-ns#"
   xmlns:svg="http://www.w3.org/2000/svg"
   xmlns="http://www.w3.org/2000/svg"
   xmlns:sodipodi="http://sodipodi.sourceforge.net/DTD/sodipodi-0.dtd"
   xmlns:inkscape="http://www.inkscape.org/namespaces/inkscape"
   id="Capa_1"
   enable-background="new 0 0 515.556 515.556"
   height="512"
   viewBox="0 0 515.556 515.556"
   width="512"
   version="1.1"
   sodipodi:docname="delete_outline.svg"
   inkscape:version="0.92.3 (2405546, 2018-03-11)">
  <metadata
     id="metadata11">
    <rdf:RDF>
      <cc:Work
         rdf:about="">
        <dc:format>image/svg+xml</dc:format>
        <dc:type
           rdf:resource="http://purl.org/dc/dcmitype/StillImage" />
      </cc:Work>
    </rdf:RDF>
  </metadata>
  <defs
     id="defs9" />
  <sodipodi:namedview
     pagecolor="#ffffff"
     bordercolor="#666666"
     borderopacity="1"
     objecttolerance="10"
     gridtolerance="10"
     guidetolerance="10"
     inkscape:pageopacity="0"
     inkscape:pageshadow="2"
     inkscape:window-width="1918"
     inkscape:window-height="1055"
     id="namedview7"
     showgrid="false"
     inkscape:zoom="2.6074563"
     inkscape:cx="212.76681"
     inkscape:cy="406.83473"
     inkscape:window-x="0"
     inkscape:window-y="0"
     inkscape:window-maximized="1"
     inkscape:current-layer="Capa_1"
     showguides="true"
     inkscape:guide-bbox="true">
    <sodipodi:guide
       position="295.42707,475.77275"
       orientation="0,1"
       id="guide860"
       inkscape:locked="false" />
    <sodipodi:guide
       position="177.83551,492.76463"
       orientation="1,0"
       id="guide862"
       inkscape:locked="false" />
    <sodipodi:guide
       position="211.81928,498.36423"
       orientation="1,0"
       id="guide864"
       inkscape:locked="false" />
    <sodipodi:guide
       position="297.16488,460.13249"
       orientation="1,0"
       id="guide866"
       inkscape:locked="false" />
    <sodipodi:guide
       position="330.1832,528.10003"
       orientation="1,0"
       id="guide868"
       inkscape:locked="false" />
  </sodipodi:namedview>
  <path
     style="stroke-width:0.94474208"
     d="M 211.94946,8.9824219 C 203.86939,27.200709 202.6762,38.405998 177.81269,40.015502 142.34444,39.682545 106.87514,40.114242 71.406498,39.941402 V 81.515621 H 444.1495 V 39.966793 c -44.31402,-0.496359 -80.17816,1.451724 -124.46195,-0.183543 -16.82177,0 -19.96897,-22.760211 -22.6556,-32.9939217 l -85.08249,0.1930896 v 1 z"
     id="path4"
     inkscape:connector-curvature="0"
     sodipodi:nodetypes="ccccccccccc" />
  <path
     style="stroke-width:0.94474208"
     d="m 99.229456,140.86914 c 0.178755,107.60306 -0.362965,215.23072 0.279757,322.81836 -0.742055,29.73458 18.050537,48.32025 54.920647,46.21732 75.29698,-0.35978 150.66668,1.64834 225.91654,-1.17735 38.47607,-2.32045 35.92182,-30.00608 35.543,-62.63957 -0.3763,-102.40576 -0.0515,-204.81255 -0.15644,-307.21876 H 99.229456 v 1 z m 285.881764,34.54492 c -1.05268,85.55331 2.01559,171.26622 -1.67896,256.70497 -3.85164,33.35883 7.09611,42.16996 -59.67267,39.82485 -53.27105,-1.18939 -100.68215,1.20714 -159.86128,0.062 -31.39568,-0.0877 -31.83948,-0.41424 -34.01713,-68.08594 V 175.41406 Z"
     id="path2"
     inkscape:connector-curvature="0"
     sodipodi:nodetypes="cccccccccccccccc" />
</svg>
