<?xml version="1.0" encoding="UTF-8" standalone="no"?>
<svg
   xmlns:dc="http://purl.org/dc/elements/1.1/"
   xmlns:cc="http://creativecommons.org/ns#"
   xmlns:rdf="http://www.w3.org/1999/02/22-rdf-syntax-ns#"
   xmlns:svg="http://www.w3.org/2000/svg"
   xmlns="http://www.w3.org/2000/svg"
   xmlns:sodipodi="http://sodipodi.sourceforge.net/DTD/sodipodi-0.dtd"
   xmlns:inkscape="http://www.inkscape.org/namespaces/inkscape"
   enable-background="new 0 0 24 24"
   height="24"
   viewBox="0 0 24 24"
   width="24"
   version="1.1"
   id="svg14"
   sodipodi:docname="not-send.svg"
   inkscape:version="0.92.3 (2405546, 2018-03-11)">
  <metadata
     id="metadata20">
    <rdf:RDF>
      <cc:Work
         rdf:about="">
        <dc:format>image/svg+xml</dc:format>
        <dc:type
           rdf:resource="http://purl.org/dc/dcmitype/StillImage" />
        <dc:title />
      </cc:Work>
    </rdf:RDF>
  </metadata>
  <defs
     id="defs18" />
  <sodipodi:namedview
     pagecolor="#ffffff"
     bordercolor="#666666"
     borderopacity="1"
     objecttolerance="10"
     gridtolerance="10"
     guidetolerance="10"
     inkscape:pageopacity="0"
     inkscape:pageshadow="2"
     inkscape:window-width="2558"
     inkscape:window-height="1055"
     id="namedview16"
     showgrid="false"
     inkscape:zoom="22.627417"
     inkscape:cx="31.800098"
     inkscape:cy="9.0918481"
     inkscape:window-x="0"
     inkscape:window-y="0"
     inkscape:window-maximized="1"
     inkscape:current-layer="svg14" />
  <g
     id="g1142">
    <g
       transform="matrix(0.04162583,0,0,0.04162583,-0.07462787,0.09898393)"
       id="g938">
      <g
         id="g881">
	<g
   id="g879">
		<path
   sodipodi:nodetypes="ccccccccccssccccccsssccsccc"
   inkscape:connector-curvature="0"
   d="M 481.508,210.335 68.414,38.926 C 51.011,31.704 31.351,34.881 17.105,47.213 2.859,59.547 -3.099,78.55 1.557,96.808 L 42.151,256 1.557,415.192 c -4.656,18.258 1.301,37.261 15.547,49.595 14.273,12.358 33.938,15.495 51.31,8.287 l 189.54301,-78.64887 c -6.54658,-54.68745 -10.91088,-109.04642 61.96408,-160.62663 9.42863,-3.91222 67.37074,-36.29488 113.14645,-27.20822 45.53656,9.03917 89.54947,60.62625 89.54947,50.47142 0,-20.363 -22.30101,-38.9227 -41.10901,-46.7267 z M 255.67967,362.88891 56.916,445.364 c -6.947,2.881 -14.488,1.665 -20.175,-3.259 -5.686,-4.923 -7.971,-12.212 -6.113,-19.501 L 69.287,271 h 149.065 c 8.285,0 15.001,-6.716 15.001,-15.001 0,-8.285 -6.716,-15.001 -15.001,-15.001 H 69.288 L 30.628,89.396 C 28.77,82.108 31.055,74.818 36.741,69.895 42.427,64.972 49.966,63.754 56.915,66.636 L 408.66102,212.5893 C 394.41029,193.56702 242.51329,226.6748 255.67967,362.88891 Z"
   id="path877" />

	</g>

</g>
      <g
         id="g883">
</g>
      <g
         id="g885">
</g>
      <g
         id="g887">
</g>
      <g
         id="g889">
</g>
      <g
         id="g891">
</g>
      <g
         id="g893">
</g>
      <g
         id="g895">
</g>
      <g
         id="g897">
</g>
      <g
         id="g899">
</g>
      <g
         id="g901">
</g>
      <g
         id="g903">
</g>
      <g
         id="g905">
</g>
      <g
         id="g907">
</g>
      <g
         id="g909">
</g>
      <g
         id="g911">
</g>
    </g>
    <g
       transform="matrix(0.02717824,0,0,0.02717824,9.9785968,7.9542733)"
       id="g1105">
      <path
         inkscape:connector-curvature="0"
         d="M 256,512 C 114.83984,512 0,397.16016 0,256 0,114.83984 114.83984,0 256,0 397.16016,0 512,114.83984 512,256 512,397.16016 397.16016,512 256,512 Z M 256,36.570312 C 135.00781,36.570312 36.570312,135.00781 36.570312,256 36.570312,376.99219 135.00781,475.42969 256,475.42969 376.99219,475.42969 475.42969,376.99219 475.42969,256 475.42969,135.00781 376.99219,36.570312 256,36.570312 Z m 0,0"
         id="path1088" />
      <path
         inkscape:connector-curvature="0"
         d="m 347.42969,365.71484 c -4.67969,0 -9.35938,-1.78515 -12.92969,-5.35937 L 151.64453,177.5 c -7.14453,-7.14453 -7.14453,-18.71484 0,-25.85547 7.14063,-7.14062 18.71484,-7.14453 25.85547,0 L 360.35547,334.5 c 7.14453,7.14453 7.14453,18.71484 0,25.85547 -3.57031,3.57422 -8.2461,5.35937 -12.92578,5.35937 z m 0,0"
         id="path1090" />
      <path
         inkscape:connector-curvature="0"
         d="m 164.57031,365.71484 c -4.67969,0 -9.35547,-1.78515 -12.92578,-5.35937 -7.14453,-7.14063 -7.14453,-18.71485 0,-25.85547 L 334.5,151.64453 c 7.14453,-7.14453 18.71484,-7.14453 25.85547,0 7.14062,7.14063 7.14453,18.71484 0,25.85547 L 177.5,360.35547 c -3.57031,3.57422 -8.25,5.35937 -12.92969,5.35937 z m 0,0"
         id="path1092" />
    </g>
  </g>
</svg>
