<?xml version="1.0" encoding="UTF-8" standalone="no"?>
<svg
   xmlns:dc="http://purl.org/dc/elements/1.1/"
   xmlns:cc="http://creativecommons.org/ns#"
   xmlns:rdf="http://www.w3.org/1999/02/22-rdf-syntax-ns#"
   xmlns:svg="http://www.w3.org/2000/svg"
   xmlns="http://www.w3.org/2000/svg"
   xmlns:sodipodi="http://sodipodi.sourceforge.net/DTD/sodipodi-0.dtd"
   xmlns:inkscape="http://www.inkscape.org/namespaces/inkscape"
   height="24"
   viewBox="0 0 24 24"
   width="24"
   version="1.1"
   id="svg6"
   sodipodi:docname="send.svg"
   inkscape:version="0.92.3 (2405546, 2018-03-11)">
  <metadata
     id="metadata12">
    <rdf:RDF>
      <cc:Work
         rdf:about="">
        <dc:format>image/svg+xml</dc:format>
        <dc:type
           rdf:resource="http://purl.org/dc/dcmitype/StillImage" />
        <dc:title />
      </cc:Work>
    </rdf:RDF>
  </metadata>
  <defs
     id="defs10" />
  <sodipodi:namedview
     pagecolor="#ffffff"
     bordercolor="#666666"
     borderopacity="1"
     objecttolerance="10"
     gridtolerance="10"
     guidetolerance="10"
     inkscape:pageopacity="0"
     inkscape:pageshadow="2"
     inkscape:window-width="2558"
     inkscape:window-height="1055"
     id="namedview8"
     showgrid="false"
     inkscape:zoom="9.4012042"
     inkscape:cx="66.743617"
     inkscape:cy="3.5734843"
     inkscape:window-x="0"
     inkscape:window-y="0"
     inkscape:window-maximized="1"
     inkscape:current-layer="svg6" />
  <g
     id="g818"
     transform="matrix(0.08701043,0,0,0.08701043,33.616733,-4.0764776)" />
  <g
     id="g820"
     transform="matrix(0.08701043,0,0,0.08701043,33.616733,-4.0764776)" />
  <g
     id="g822"
     transform="matrix(0.08701043,0,0,0.08701043,33.616733,-4.0764776)" />
  <g
     id="g824"
     transform="matrix(0.08701043,0,0,0.08701043,33.616733,-4.0764776)" />
  <g
     id="g826"
     transform="matrix(0.08701043,0,0,0.08701043,33.616733,-4.0764776)" />
  <g
     id="g828"
     transform="matrix(0.08701043,0,0,0.08701043,33.616733,-4.0764776)" />
  <g
     id="g830"
     transform="matrix(0.08701043,0,0,0.08701043,33.616733,-4.0764776)" />
  <g
     id="g832"
     transform="matrix(0.08701043,0,0,0.08701043,33.616733,-4.0764776)" />
  <g
     id="g834"
     transform="matrix(0.08701043,0,0,0.08701043,33.616733,-4.0764776)" />
  <g
     id="g836"
     transform="matrix(0.08701043,0,0,0.08701043,33.616733,-4.0764776)" />
  <g
     id="g838"
     transform="matrix(0.08701043,0,0,0.08701043,33.616733,-4.0764776)" />
  <g
     id="g840"
     transform="matrix(0.08701043,0,0,0.08701043,33.616733,-4.0764776)" />
  <g
     id="g842"
     transform="matrix(0.08701043,0,0,0.08701043,33.616733,-4.0764776)" />
  <g
     id="g844"
     transform="matrix(0.08701043,0,0,0.08701043,33.616733,-4.0764776)" />
  <g
     id="g846"
     transform="matrix(0.08701043,0,0,0.08701043,33.616733,-4.0764776)" />
  <g
     id="g958"
     transform="matrix(0.04696801,0,0,0.04696801,-0.02380063,-0.02381379)">
	<g
   id="g956">
		<path
   inkscape:connector-curvature="0"
   d="M 481.508,210.335 68.414,38.926 C 51.011,31.704 31.351,34.881 17.105,47.213 2.859,59.547 -3.099,78.55 1.557,96.808 L 42.151,256 1.557,415.192 c -4.656,18.258 1.301,37.261 15.547,49.595 14.273,12.358 33.938,15.495 51.31,8.287 L 481.508,301.665 C 500.316,293.861 512,276.363 512,256 c 0,-20.363 -11.684,-37.861 -30.492,-45.665 z m -11.499,63.62 -413.093,171.409 c -6.947,2.881 -14.488,1.665 -20.175,-3.259 -5.686,-4.923 -7.971,-12.212 -6.113,-19.501 L 69.287,271 h 149.065 c 8.285,0 15.001,-6.716 15.001,-15.001 0,-8.285 -6.716,-15.001 -15.001,-15.001 H 69.288 L 30.628,89.396 c -1.858,-7.288 0.427,-14.578 6.113,-19.501 5.686,-4.923 13.225,-6.141 20.174,-3.259 l 413.094,171.409 c 11.125,4.616 11.99,14.91 11.99,17.955 0,3.045 -0.865,13.339 -11.99,17.955 z"
   id="path954" />

	</g>

</g>
  <g
     id="g960"
     transform="matrix(0.04800677,0,0,0.04800677,32.392882,1.9107349)">
</g>
  <g
     id="g962"
     transform="matrix(0.04800677,0,0,0.04800677,32.392882,1.9107349)">
</g>
  <g
     id="g964"
     transform="matrix(0.04800677,0,0,0.04800677,32.392882,1.9107349)">
</g>
  <g
     id="g966"
     transform="matrix(0.04800677,0,0,0.04800677,32.392882,1.9107349)">
</g>
  <g
     id="g968"
     transform="matrix(0.04800677,0,0,0.04800677,32.392882,1.9107349)">
</g>
  <g
     id="g970"
     transform="matrix(0.04800677,0,0,0.04800677,32.392882,1.9107349)">
</g>
  <g
     id="g972"
     transform="matrix(0.04800677,0,0,0.04800677,32.392882,1.9107349)">
</g>
  <g
     id="g974"
     transform="matrix(0.04800677,0,0,0.04800677,32.392882,1.9107349)">
</g>
  <g
     id="g976"
     transform="matrix(0.04800677,0,0,0.04800677,32.392882,1.9107349)">
</g>
  <g
     id="g978"
     transform="matrix(0.04800677,0,0,0.04800677,32.392882,1.9107349)">
</g>
  <g
     id="g980"
     transform="matrix(0.04800677,0,0,0.04800677,32.392882,1.9107349)">
</g>
  <g
     id="g982"
     transform="matrix(0.04800677,0,0,0.04800677,32.392882,1.9107349)">
</g>
  <g
     id="g984"
     transform="matrix(0.04800677,0,0,0.04800677,32.392882,1.9107349)">
</g>
  <g
     id="g986"
     transform="matrix(0.04800677,0,0,0.04800677,32.392882,1.9107349)">
</g>
  <g
     id="g988"
     transform="matrix(0.04800677,0,0,0.04800677,32.392882,1.9107349)">
</g>
</svg>
