<?xml version="1.0" encoding="UTF-8" standalone="no"?>
<svg
   xmlns:dc="http://purl.org/dc/elements/1.1/"
   xmlns:cc="http://creativecommons.org/ns#"
   xmlns:rdf="http://www.w3.org/1999/02/22-rdf-syntax-ns#"
   xmlns:svg="http://www.w3.org/2000/svg"
   xmlns="http://www.w3.org/2000/svg"
   xmlns:sodipodi="http://sodipodi.sourceforge.net/DTD/sodipodi-0.dtd"
   xmlns:inkscape="http://www.inkscape.org/namespaces/inkscape"
   id="a1b0a4cf-944a-4145-95be-ec0eea83b7fc"
   data-name="Layer 1"
   width="150"
   height="150"
   viewBox="0 0 885.55805 557.51874"
   version="1.1"
   sodipodi:docname="welcome1.svg"
   inkscape:version="0.92.3 (2405546, 2018-03-11)">
  <metadata
     id="metadata69">
    <rdf:RDF>
      <cc:Work
         rdf:about="">
        <dc:format>image/svg+xml</dc:format>
        <dc:type
           rdf:resource="http://purl.org/dc/dcmitype/StillImage" />
        <dc:title>heavy_box</dc:title>
      </cc:Work>
    </rdf:RDF>
  </metadata>
  <defs
     id="defs67" />
  <sodipodi:namedview
     pagecolor="#ffffff"
     bordercolor="#666666"
     borderopacity="1"
     objecttolerance="10"
     gridtolerance="10"
     guidetolerance="10"
     inkscape:pageopacity="0"
     inkscape:pageshadow="2"
     inkscape:window-width="2558"
     inkscape:window-height="1055"
     id="namedview65"
     showgrid="false"
     inkscape:zoom="0.40991102"
     inkscape:cx="503.96812"
     inkscape:cy="83.595062"
     inkscape:window-x="1366"
     inkscape:window-y="0"
     inkscape:window-maximized="1"
     inkscape:current-layer="g5140" />
  <title
     id="title2">heavy_box</title>
  <g
     id="g5107">
    <g
       id="g5140"
       style="stroke:#000000;stroke-opacity:1"
       transform="translate(-1758.9183,207.36208)">
      <g
         id="g6056">
        <path
           transform="translate(1601.6973,-378.60271)"
           fill="#e6e6e6"
           id="path4"
           d="M838.81222,592.35166C875.238,501.28427,864.21905,399.5975,817.23963,321.5L325.46637,389.59166l471.2759-98.21687c-198.62291-247.68466-585.21339-83.39849-547.948,229.321Z"
           style="" />
        <rect
           transform="translate(1758.9183,-207.36208)"
           id="rect6"
           fill="#6c63ff"
           height="195.09542"
           width="626.52594"
           y="320.44454"
           x="76.75322"
           style="" />
        <path
           id="path8"
           fill="#ffb8b8"
           transform="translate(1601.6973,-378.60271)"
           d="M408.706,467.89305c5.62128,4.36531,7.67682,5.77455,8.8739,5.59569,57.99957,16.88979,7.15438,36.68334-21.02622,3.08454Z"
           style="" />
        <polygon
           transform="translate(1758.9183,-207.36208)"
           id="polygon10"
           fill="#ffb8b8"
           points="60.099 475.093 60.099 514.747 88.649 513.161 80.719 471.921 60.099 475.093"
           style="" />
        <polygon
           transform="translate(1758.9183,-207.36208)"
           id="polygon12"
           fill="#ffb8b8"
           points="218.713 475.093 218.713 514.747 190.162 513.161 198.093 471.921 218.713 475.093"
           style="" />
        <path
           id="path14"
           fill="#2f2e41"
           transform="translate(1601.6973,-378.60271)"
           d="M288.69608,441.72171l42.82582-1.58614c98.7937,103.57113,61.43194,79.94854,58.68724,222.05982L337.86647,646.334l11.103-98.34078c.00564-.00376,2.9288-1.95254.499-1.99746-15.19648,5.22229-26.2843-59.43676-59.18629-51.93136-37.44073-1.791-43.536,53.75037-58.68724,53.92882L242.698,646.334,190.3553,662.19539c-5.8605-156.16587-34.583-120.8878,58.68724-222.05982Z"
           style="" />
        <path
           id="path16"
           fill="#2f2e41"
           transform="translate(1601.6973,-378.60271)"
           d="M225.25041,673.29838s-6.34456-12.68913-14.27527-6.34456-26.96441,25.37826-26.96441,25.37826-45.99811,20.61985-17.44756,33.309,52.34268-17.44756,52.34268-17.44756c27.194-5.67065,42.87962-9.3011,28.45819-38.964C239.17643,672.77254,227.58972,676.87439,225.25041,673.29838Z"
           style="" />
        <path
           id="path18"
           fill="#2f2e41"
           transform="translate(1601.6973,-378.60271)"
           d="M368.00316,673.29838s6.34456-12.68913,14.27527-6.34456,26.96441,25.37826,26.96441,25.37826,45.99811,20.61985,17.44756,33.309-52.34268-17.44756-52.34268-17.44756c-27.194-5.67065-42.87962-9.3011-28.45819-38.964C354.07714,672.77254,365.66385,676.87439,368.00316,673.29838Z"
           style="" />
        <path
           id="path20"
           fill="#ffb8b8"
           transform="translate(1601.6973,-378.60271)"
           d="M331.5219,262.48771c-2.35907,39.4855-56.24811,36.00919-57.10087-.00032C276.77987,223.0022,330.66891,226.47851,331.5219,262.48771Z"
           style="" />
        <path
           id="path22"
           fill="#ffb8b8"
           transform="translate(1601.6973,-378.60271)"
           d="M290.28222,283.10755c13.87587,41.93775-18.88432,19.10541,26.96441,52.34267l17.44755-34.89511s-12.68913-4.75843-11.103-22.206Z"
           style="" />
        <path
           id="path24"
           fill="#575a89"
           transform="translate(1601.6973,-378.60271)"
           d="M375.93387,306.89967,328.65153,296.1074c1.32987,28.5097-29.09516,22.7717-34.404,8.43062l-45.205,26.15378c18.97388,70.667,14.16522,73.58277-11.103,118.96062-9.64336,8.806,4.77846,13.85306,17.33355,9.03441,9.576-5.91024,14.43914-11.16237,24.7-9.82589,48.48518,10.0956,88.84834,12.47853,95.23609,8.53366C377.49493,454.12327,375.143,307.46755,375.93387,306.89967Z"
           style="" />
        <path
           id="path26"
           fill="#575a89"
           transform="translate(1601.6973,-378.60271)"
           d="M363.24473,310.072c1.58614,0,9.7566-3.84164,9.7566-3.84164,23.771-.40071,39.72292,159.49664,40.99993,164.04194l-15.86141,11.103-25.37827-65.03181Z"
           style="" />
        <path
           id="path28"
           fill="#ffb8b8"
           transform="translate(1601.6973,-378.60271)"
           d="M252.21482,495.65052c.811,5.98616,2.1911,73.21058,26.27252,41.80855,3.15944-22.91-7.58221-29.74918-10.4111-44.98083Z"
           style="" />
        <path
           id="path30"
           fill="#575a89"
           transform="translate(1601.6973,-378.60271)"
           d="M258.55939,330.6918l-4.85992-2.69431c-13.02929-.42812-8.923,34.06114-14.43543,59.31894-4.50341,29.42466-3.22115,61.86983,2.06236,105.24733.46205,15.91777,28.9725,5.88989,33.0944,4.67291,0,0-9.51685-65.03181-4.75842-76.1348S258.55939,330.6918,258.55939,330.6918Z"
           style="" />
        <path
           id="path32"
           fill="#2f2e41"
           transform="translate(1601.6973,-378.60271)"
           d="M330.274,234.81036a34.02906,34.02906,0,0,0-19.357-14.798l-5.91821,4.73455,2.3009-5.52232a31.326,31.326,0,0,0-5.84937-.33807l-5.32488,6.84631,2.20389-6.6118c-22.84908,2.4534-36.36771,28.68323-24.50556,47.04084,1.82984-5.62323,4.05069-10.89971,5.88053-16.523a16.64409,16.64409,0,0,0,4.33558.02112l2.22628-5.19453.62186,4.97483c6.90017-.60122,17.13483-1.921,23.67647-3.13031l-.63606-3.81638,3.80566,3.17141c2.00423-.46143,3.19416-.87977,3.09583-1.19955,4.86513,7.84319,9.68573,12.8528,14.55074,20.69594C333.22749,254.09835,336.48772,244.9024,330.274,234.81036Z"
           style="" />
        <rect
           transform="translate(1758.9183,-207.36208)"
           id="rect34"
           fill="#fff"
           height="65.63579"
           width="138.36733"
           y="343.97895"
           x="527.41215"
           style="" />
        <rect
           transform="translate(1758.9183,-207.36208)"
           id="rect36"
           fill="#e6e6e6"
           height="7.8701"
           width="86.0361"
           y="357.72699"
           x="553.57776"
           style="" />
        <rect
           transform="translate(1758.9183,-207.36208)"
           id="rect38"
           fill="#e6e6e6"
           height="7.8701"
           width="86.0361"
           y="372.8618"
           x="553.57776"
           style="" />
        <rect
           transform="translate(1758.9183,-207.36208)"
           id="rect40"
           fill="#e6e6e6"
           height="7.8701"
           width="86.0361"
           y="387.9966"
           x="553.57776"
           style="" />
        <polygon
           transform="translate(1758.9183,-207.36208)"
           id="polygon42"
           fill="#fff"
           points="406.916 359.57 402.415 351.775 397.915 343.979 393.414 351.775 388.913 359.57 393.749 359.57 393.749 382.144 402.08 382.144 402.08 359.57 406.916 359.57"
           style="" />
        <circle
           transform="translate(1758.9183,-207.36208)"
           id="circle44"
           fill="#3f3d56"
           r="37.06013"
           cy="483.13309"
           cx="711.88818"
           style="" />
        <circle
           transform="translate(1758.9183,-207.36208)"
           id="circle46"
           fill="#e6e6e6"
           r="16.42438"
           cy="483.13309"
           cx="718.62639"
           style="" />
        <polygon
           transform="translate(1758.9183,-207.36208)"
           id="polygon48"
           fill="#3f3d56"
           points="688.515 509.033 769.374 542.724 766.847 550.726 720.311 545.461 641.558 510.507 685.356 515.561 688.515 509.033"
           style="" />
        <path
           id="path50"
           fill="#3f3d56"
           transform="translate(1601.6973,-378.60271)"
           d="M917.21059,712.44674l100.56476-329.88689,24.49016-43.49091.086-.4197c.079-.38371,1.877-9.47416-2.54574-16.05732a14.41879,14.41879,0,0,0-9.7384-6.13447c-13.51631-2.53423-43.75393-3.78284-45.0342-3.83486l-.24142-.00987-.23935.03269c-.82624.11269-20.15088,2.93748-24.51936,19.8122l-21.0244,38.2637-.08267.27226L843.74876,683.899l5.2379,1.59325,95.0945-312.63319,21.09473-38.39264.08555-.35286c3.089-12.6985,17.85682-15.66929,19.821-16.00921,3.089.13181,31.50885,1.39646,43.9756,3.73411a9.02851,9.02851,0,0,1,6.19122,3.7888c2.72588,4.03618,2.04358,9.97879,1.8034,11.541l-24.34,43.22463-.08719.28521L911.97351,710.8502Z"
           style="" />
        <rect
           id="rect52"
           fill="#3f3d56"
           transform="rotate(-79.76214,1542.0377,-736.13837)"
           height="73.80538"
           width="5.47477"
           y="374.70786"
           x="965.00564"
           style="" />
        <rect
           id="rect54"
           fill="#3f3d56"
           transform="rotate(-78.46469,1522.8685,-712.90356)"
           height="73.59863"
           width="5.47474"
           y="420.40497"
           x="951.12147"
           style="" />
        <rect
           id="rect56"
           fill="#3f3d56"
           transform="rotate(-74.03214,1478.4297,-711.44324)"
           height="73.22959"
           width="5.47463"
           y="503.38544"
           x="925.90857"
           style="" />
        <polygon
           transform="translate(1758.9183,-207.36208)"
           id="polygon58"
           fill="#3f3d56"
           points="784.589 511.372 786.585 506.273 718.249 479.515 714.893 443.181 778.675 467.004 799.338 496.902 803.843 493.79 782.201 462.476 708.64 435 713.108 483.382 784.589 511.372"
           style="" />
        <circle
           transform="translate(1758.9183,-207.36208)"
           id="circle60"
           fill="#3f3d56"
           r="37.06013"
           cy="518.50867"
           cx="808.32876"
           style="" />
        <circle
           transform="translate(1758.9183,-207.36208)"
           id="circle62"
           fill="#e6e6e6"
           r="16.42438"
           cy="520.19322"
           cx="818.01493"
           style="" />
        <g
           style="stroke:#000000;stroke-opacity:1;opacity:0.686;fill:#ffffff"
           transform="translate(969.1156,-73.663656)"
           id="g5966">
          <path
             style="fill:#ffffff;stroke:#000000;stroke-opacity:1"
             inkscape:connector-curvature="0"
             d="m 1423.187,-115.37207 h -13.589 a 1.80162,1.80162 0 0 0 -1.8016,1.80162 v 5.9646 a 1.80162,1.80162 0 0 0 1.8016,1.80162 h 2.2519 v 8.936996 h 9.0852 v -8.936996 h 2.2519 a 1.80162,1.80162 0 0 0 1.8016,-1.80162 v -5.9646 a 1.80162,1.80162 0 0 0 -1.8016,-1.80162 z"
             id="path4754" />
          <path
             style="fill:#ffffff;stroke:#000000;stroke-opacity:1"
             inkscape:connector-curvature="0"
             d="m 1436.7977,-60.784124 a 69.86284,69.86284 0 0 1 -12.154,-41.420916 1.47343,1.47343 0 0 0 -1.15,-1.47037 v -2.57728 h -14.3518 v 2.54146 h -0.1978 a 1.47261,1.47261 0 0 0 -1.4707,1.47453 q 10e-5,0.0536 0,0.10718 1.696,23.641466 -11.4538,42.402426 a 4.05838,4.05838 0 0 0 -0.7345,2.45945 l 1.5693,48.5426499 a 4.2022,4.2022 0 0 0 4.1663,4.05579 h 32.4615 a 4.20368,4.20368 0 0 0 4.1688,-4.12732 l 0.6047,-47.1309499 a 8.50594,8.50594 0 0 0 -1.462,-4.85665 z"
             id="path4756" />
          <path
             style="fill:#ffffff;stroke:#000000;stroke-opacity:1"
             inkscape:connector-curvature="0"
             d="m 1431.659,-44.659744 h -28.2552 a 2.90091,2.90091 0 0 0 -2.8671,3.342 l 4.2697,27.75348 h 24.5176 l 5.1862,-27.66 a 2.90095,2.90095 0 0 0 -2.8512,-3.43551 z"
             id="path4758" />
          <path
             style="fill:#ffffff;stroke:#000000;stroke-opacity:1"
             inkscape:connector-curvature="0"
             d="m 1252.8114,90.202906 h -6.4459 a 0.85459,0.85459 0 0 0 -0.8546,0.85459 v 2.82929 a 0.85459,0.85459 0 0 0 0.8546,0.85459 h 1.0682 v 4.23922 h 4.3095 v -4.23922 h 1.0682 a 0.85459,0.85459 0 0 0 0.8546,-0.85459 v -2.82929 a 0.85459,0.85459 0 0 0 -0.8546,-0.85459 z"
             id="path4760" />
          <path
             style="fill:#ffffff;stroke:#000000;stroke-opacity:1"
             inkscape:connector-curvature="0"
             d="m 1259.2676,116.09647 a 33.13912,33.13912 0 0 1 -5.7652,-19.647834 0.69891,0.69891 0 0 0 -0.5456,-0.69746 v -1.22253 h -6.8076 v 1.20553 h -0.094 a 0.69853,0.69853 0 0 0 -0.6977,0.69944 q 0,0.0254 0,0.0508 a 30.24345,30.24345 0 0 1 -5.433,20.113414 1.925,1.925 0 0 0 -0.3484,1.16663 l 0.7443,23.026 a 1.99329,1.99329 0 0 0 1.9763,1.92384 h 15.398 a 1.994,1.994 0 0 0 1.9774,-1.95777 l 0.2869,-22.35637 a 4.03473,4.03473 0 0 0 -0.6935,-2.30373 z"
             id="path4762" />
          <rect
             style="fill:#ffffff;stroke:#000000;stroke-opacity:1"
             x="1242.3594"
             y="124.56069"
             width="14.69218"
             height="7.3460898"
             id="rect4764" />
          <path
             style="fill:#ffffff;stroke:#000000;stroke-opacity:1"
             inkscape:connector-curvature="0"
             d="m 1282.817,90.202906 h -6.4458 a 0.85459,0.85459 0 0 0 -0.8546,0.85459 v 2.82929 a 0.85459,0.85459 0 0 0 0.8546,0.85459 h 1.0682 v 4.23922 h 4.3095 v -4.23922 h 1.0682 a 0.85459,0.85459 0 0 0 0.8546,-0.85459 v -2.82929 a 0.85459,0.85459 0 0 0 -0.8547,-0.85459 z"
             id="path4766" />
          <path
             style="fill:#ffffff;stroke:#000000;stroke-opacity:1"
             inkscape:connector-curvature="0"
             d="m 1289.2732,116.09647 a 33.13912,33.13912 0 0 1 -5.7652,-19.647834 0.69891,0.69891 0 0 0 -0.5456,-0.69746 v -1.22253 h -6.8076 v 1.20553 h -0.094 a 0.69853,0.69853 0 0 0 -0.6977,0.69944 q 0,0.0254 0,0.0508 a 30.24345,30.24345 0 0 1 -5.433,20.113414 1.925,1.925 0 0 0 -0.3484,1.16663 l 0.7443,23.026 a 1.99329,1.99329 0 0 0 1.9763,1.92384 h 15.398 a 1.994,1.994 0 0 0 1.9774,-1.95777 l 0.2869,-22.35637 a 4.0348,4.0348 0 0 0 -0.6935,-2.30373 z"
             id="path4768" />
          <rect
             style="fill:#ffffff;stroke:#000000;stroke-opacity:1"
             x="1272.365"
             y="124.56069"
             width="14.69218"
             height="7.3460898"
             id="rect4770" />
          <path
             style="fill:#ffffff;stroke:#000000;stroke-opacity:1"
             inkscape:connector-curvature="0"
             d="m 1312.8227,90.202906 h -6.4459 a 0.85459,0.85459 0 0 0 -0.8546,0.85459 v 2.82929 a 0.85459,0.85459 0 0 0 0.8546,0.85459 h 1.0682 v 4.23922 h 4.3095 v -4.23922 h 1.0682 a 0.85459,0.85459 0 0 0 0.8546,-0.85459 v -2.82929 a 0.85459,0.85459 0 0 0 -0.8546,-0.85459 z"
             id="path4772" />
          <path
             style="fill:#ffffff;stroke:#000000;stroke-opacity:1"
             inkscape:connector-curvature="0"
             d="m 1319.2789,116.09647 a 33.13912,33.13912 0 0 1 -5.7652,-19.647834 0.69891,0.69891 0 0 0 -0.5456,-0.69746 v -1.22253 h -6.8077 v 1.20553 h -0.094 a 0.69853,0.69853 0 0 0 -0.6976,0.69944 q 0,0.0254 0,0.0508 a 30.24345,30.24345 0 0 1 -5.4331,20.113414 1.92512,1.92512 0 0 0 -0.3484,1.16663 l 0.7444,23.026 a 1.99329,1.99329 0 0 0 1.9763,1.92384 h 15.398 a 1.994,1.994 0 0 0 1.9774,-1.95777 l 0.2869,-22.35637 a 4.0348,4.0348 0 0 0 -0.6935,-2.30373 z"
             id="path4774" />
          <rect
             style="fill:#ffffff;stroke:#000000;stroke-opacity:1"
             x="1302.3706"
             y="124.56069"
             width="14.69218"
             height="7.3460898"
             id="rect4776" />
          <path
             style="fill:#ffffff;stroke:#000000;stroke-opacity:1"
             inkscape:connector-curvature="0"
             d="m 1399.5798,33.947316 h -13.5889 a 1.80163,1.80163 0 0 0 -1.8016,1.80162 v 5.9646 a 1.80163,1.80163 0 0 0 1.8016,1.80162 h 2.2519 v 8.937 h 9.0852 v -8.937 h 2.2518 a 1.80162,1.80162 0 0 0 1.8017,-1.80162 v -5.9646 a 1.80162,1.80162 0 0 0 -1.8017,-1.80162 z"
             id="path4778" />
          <path
             style="fill:#ffffff;stroke:#000000;stroke-opacity:1"
             inkscape:connector-curvature="0"
             d="m 1413.1906,88.535256 a 69.86282,69.86282 0 0 1 -12.154,-41.42092 1.47342,1.47342 0 0 0 -1.1501,-1.47037 v -2.57729 h -14.3517 v 2.54146 h -0.1978 a 1.47261,1.47261 0 0 0 -1.4707,1.47453 q 1e-4,0.0537 0,0.10718 1.696,23.64149 -11.4538,42.40243 a 4.05834,4.05834 0 0 0 -0.7345,2.45945 l 1.5693,48.542664 a 4.2022,4.2022 0 0 0 4.1663,4.05578 h 32.4614 a 4.20366,4.20366 0 0 0 4.1688,-4.12731 l 0.6047,-47.131004 a 8.50588,8.50588 0 0 0 -1.4619,-4.8566 z"
             id="path4780" />
          <path
             style="fill:#ffffff;stroke:#000000;stroke-opacity:1"
             inkscape:connector-curvature="0"
             d="m 1408.0519,104.65961 h -28.2552 a 2.90092,2.90092 0 0 0 -2.8671,3.342 l 4.2697,27.75348 h 24.5176 l 5.1862,-27.66 a 2.901,2.901 0 0 0 -2.8512,-3.43552 z"
             id="path4782" />
          <path
             style="fill:#ffffff;stroke:#000000;stroke-opacity:1"
             inkscape:connector-curvature="0"
             d="m 1332.8267,-1.3478441 h -81.0033 c 5.6633,-30.6186899 4.3604,-67.5917899 0,-107.3538059 h 81.0033 c -4.2443,39.762136 -5.5126,76.735176 0,107.3538059 z"
             id="path4788" />
          <circle
             style="fill:#ffffff;stroke:#000000;stroke-opacity:1"
             cx="1292.813"
             cy="-57.952553"
             r="19.518881"
             id="circle4790" />
          <rect
             style="fill:#ffffff;stroke:#000000;stroke-opacity:1"
             x="1205.954"
             y="-4.2756734"
             width="265.4567"
             height="29.278311"
             id="rect4806" />
          <rect
             style="fill:#ffffff;stroke:#000000;stroke-opacity:1"
             x="1205.954"
             y="141.13997"
             width="265.4567"
             height="29.278311"
             id="rect4808" />
        </g>
      </g>
    </g>
  </g>
</svg>
