<?xml version="1.0" encoding="UTF-8" standalone="no"?>
<svg
   xmlns:dc="http://purl.org/dc/elements/1.1/"
   xmlns:cc="http://creativecommons.org/ns#"
   xmlns:rdf="http://www.w3.org/1999/02/22-rdf-syntax-ns#"
   xmlns:svg="http://www.w3.org/2000/svg"
   xmlns="http://www.w3.org/2000/svg"
   xmlns:sodipodi="http://sodipodi.sourceforge.net/DTD/sodipodi-0.dtd"
   xmlns:inkscape="http://www.inkscape.org/namespaces/inkscape"
   id="ab82d996-d758-4a94-9ad9-9e4bd5f70489"
   data-name="Layer 1"
   width="150"
   height="150"
   viewBox="0 0 949.57 703.65"
   version="1.1"
   sodipodi:docname="welcome2.svg"
   inkscape:version="0.92.3 (2405546, 2018-03-11)">
  <metadata
     id="metadata139">
    <rdf:RDF>
      <cc:Work
         rdf:about="">
        <dc:format>image/svg+xml</dc:format>
        <dc:type
           rdf:resource="http://purl.org/dc/dcmitype/StillImage" />
        <dc:title>deliveries</dc:title>
      </cc:Work>
    </rdf:RDF>
  </metadata>
  <defs
     id="defs137" />
  <sodipodi:namedview
     pagecolor="#ffffff"
     bordercolor="#666666"
     borderopacity="1"
     objecttolerance="10"
     gridtolerance="10"
     guidetolerance="10"
     inkscape:pageopacity="0"
     inkscape:pageshadow="2"
     inkscape:window-width="2558"
     inkscape:window-height="1055"
     id="namedview135"
     showgrid="false"
     inkscape:zoom="5.3663041"
     inkscape:cx="75.291929"
     inkscape:cy="75.63463"
     inkscape:window-x="1366"
     inkscape:window-y="0"
     inkscape:window-maximized="1"
     inkscape:current-layer="g2811" />
  <title
     id="title2">deliveries</title>
  <g
     id="g2811">
    <path
       id="path2441"
       d="M 904.62174,682.01543 C 959.61659,544.52394 942.98035,390.99955 872.05191,273.08971 L 129.58384,375.89296 841.10555,227.60735 C 541.22918,-146.34135 -42.436423,101.6942 13.826036,573.83102 Z"
       inkscape:connector-curvature="0"
       style="fill:#e6e6e6;stroke-width:1.50977743" />
    <g
       style="fill:#ffffff;stroke:#000000;stroke-opacity:1"
       transform="matrix(1.1797767,0,0,1.1797767,1421.498,583.10204)"
       id="g2732">
      <path
         style="fill:#ffffff;stroke:#000000;stroke-opacity:1"
         inkscape:connector-curvature="0"
         d="m -1025.3031,-400.59777 h -13.589 a 1.80162,1.80162 0 0 0 -1.8017,1.80162 v 5.9646 a 1.80162,1.80162 0 0 0 1.8017,1.80162 h 2.2519 v 8.937 h 9.0851 v -8.937 h 2.2519 a 1.80163,1.80163 0 0 0 1.8016,-1.80162 v -5.9646 a 1.80163,1.80163 0 0 0 -1.8015,-1.80162 z"
         id="path1956" />
      <path
         style="fill:#ffffff;stroke:#000000;stroke-opacity:1"
         inkscape:connector-curvature="0"
         d="m -1011.6923,-346.00982 a 69.86284,69.86284 0 0 1 -12.154,-41.42092 1.47343,1.47343 0 0 0 -1.1501,-1.47037 v -2.57728 h -14.3518 v 2.54146 h -0.1978 a 1.47261,1.47261 0 0 0 -1.4707,1.47453 q 10e-5,0.0536 0,0.10718 1.696,23.64147 -11.4538,42.40243 a 4.05847,4.05847 0 0 0 -0.7345,2.45945 l 1.5693,48.54266 a 4.2022,4.2022 0 0 0 4.1663,4.05578 h 32.4615 a 4.20367,4.20367 0 0 0 4.1688,-4.12732 l 0.6047,-47.131 a 8.50594,8.50594 0 0 0 -1.4619,-4.8566 z"
         id="path1958" />
      <path
         style="fill:#ffffff;stroke:#000000;stroke-opacity:1"
         inkscape:connector-curvature="0"
         d="m -1016.8311,-329.88548 h -28.2552 a 2.90091,2.90091 0 0 0 -2.8671,3.342 l 4.2697,27.75348 h 24.5176 l 5.1863,-27.66 a 2.90095,2.90095 0 0 0 -2.8513,-3.43551 z"
         id="path1960" />
      <path
         style="fill:#ffffff;stroke:#000000;stroke-opacity:1"
         inkscape:connector-curvature="0"
         d="m -874.03185,-255.18215 h -13.58895 a 1.80162,1.80162 0 0 0 -1.80162,1.80162 v 5.9646 a 1.80162,1.80162 0 0 0 1.80162,1.80162 h 2.25189 v 8.937 h 9.08518 v -8.937 h 2.25188 a 1.80162,1.80162 0 0 0 1.80162,-1.80162 v -5.9646 a 1.80162,1.80162 0 0 0 -1.80162,-1.80162 z"
         id="path1962" />
      <path
         style="fill:#ffffff;stroke:#000000;stroke-opacity:1"
         inkscape:connector-curvature="0"
         d="m -860.42106,-200.5942 a 69.86284,69.86284 0 0 1 -12.154,-41.42092 1.47343,1.47343 0 0 0 -1.15009,-1.47037 v -2.57728 h -14.35179 v 2.54146 h -0.19775 a 1.47261,1.47261 0 0 0 -1.4707,1.47453 q 6e-5,0.0536 0.004,0.10718 1.696,23.64147 -11.45381,42.40243 a 4.05838,4.05838 0 0 0 -0.7345,2.45945 l 1.56929,48.54265 a 4.2022,4.2022 0 0 0 4.16627,4.05579 h 32.46154 a 4.20368,4.20368 0 0 0 4.16877,-4.12732 l 0.60474,-47.13095 a 8.50594,8.50594 0 0 0 -1.46197,-4.85665 z"
         id="path1964" />
      <path
         style="fill:#ffffff;stroke:#000000;stroke-opacity:1"
         inkscape:connector-curvature="0"
         d="m -865.55978,-184.46982 h -28.25519 a 2.90091,2.90091 0 0 0 -2.86716,3.342 l 4.26976,27.75348 h 24.51757 l 5.18624,-27.66 a 2.90095,2.90095 0 0 0 -2.85122,-3.43551 z"
         id="path1966" />
      <path
         style="fill:#ffffff;stroke:#000000;stroke-opacity:1"
         inkscape:connector-curvature="0"
         d="m -1044.4074,-49.60717 h -6.4459 a 0.85459,0.85459 0 0 0 -0.8546,0.85459 v 2.82929 a 0.85459,0.85459 0 0 0 0.8546,0.85459 h 1.0682 v 4.23922 h 4.3095 v -4.23922 h 1.0682 a 0.85459,0.85459 0 0 0 0.8546,-0.85459 v -2.82929 a 0.85459,0.85459 0 0 0 -0.8546,-0.85459 z"
         id="path1968" />
      <path
         style="fill:#ffffff;stroke:#000000;stroke-opacity:1"
         inkscape:connector-curvature="0"
         d="m -1037.9512,-23.71361 a 33.13912,33.13912 0 0 1 -5.7652,-19.64783 0.69891,0.69891 0 0 0 -0.5456,-0.69746 v -1.22253 h -6.8077 v 1.20553 h -0.094 a 0.69853,0.69853 0 0 0 -0.6976,0.69944 q 0,0.0254 0,0.0508 a 30.24345,30.24345 0 0 1 -5.433,20.11341 1.925,1.925 0 0 0 -0.3484,1.16663 l 0.7443,23.026 a 1.99329,1.99329 0 0 0 1.9763,1.92384 h 15.398 a 1.994,1.994 0 0 0 1.9774,-1.95777 l 0.2869,-22.35637 a 4.03473,4.03473 0 0 0 -0.6935,-2.30373 z"
         id="path1970" />
      <rect
         style="fill:#ffffff;stroke:#000000;stroke-opacity:1"
         x="-1054.8595"
         y="-15.249412"
         width="14.69218"
         height="7.3460898"
         id="rect1972" />
      <path
         style="fill:#ffffff;stroke:#000000;stroke-opacity:1"
         inkscape:connector-curvature="0"
         d="m -1014.4018,-49.60717 h -6.4458 a 0.85459,0.85459 0 0 0 -0.8546,0.85459 v 2.82929 a 0.85459,0.85459 0 0 0 0.8546,0.85459 h 1.0682 v 4.23922 h 4.3095 v -4.23922 h 1.0682 a 0.85459,0.85459 0 0 0 0.8545,-0.85459 v -2.82929 a 0.85459,0.85459 0 0 0 -0.8546,-0.85459 z"
         id="path1974" />
      <path
         style="fill:#ffffff;stroke:#000000;stroke-opacity:1"
         inkscape:connector-curvature="0"
         d="m -1007.9456,-23.71361 a 33.13912,33.13912 0 0 1 -5.7652,-19.64783 0.69891,0.69891 0 0 0 -0.5456,-0.69746 v -1.22253 h -6.8077 v 1.20553 h -0.094 a 0.69853,0.69853 0 0 0 -0.6976,0.69944 q 0,0.0254 0,0.0508 a 30.24345,30.24345 0 0 1 -5.433,20.11341 1.925,1.925 0 0 0 -0.3484,1.16663 l 0.7443,23.026 a 1.99329,1.99329 0 0 0 1.9763,1.92384 h 15.398 a 1.994,1.994 0 0 0 1.9774,-1.95777 l 0.2869,-22.35637 a 4.0348,4.0348 0 0 0 -0.6935,-2.30373 z"
         id="path1976" />
      <rect
         style="fill:#ffffff;stroke:#000000;stroke-opacity:1"
         x="-1024.8539"
         y="-15.249412"
         width="14.69218"
         height="7.3460898"
         id="rect1978" />
      <path
         style="fill:#ffffff;stroke:#000000;stroke-opacity:1"
         inkscape:connector-curvature="0"
         d="m -984.39614,-49.60717 h -6.44586 a 0.85459,0.85459 0 0 0 -0.85459,0.85459 v 2.82929 a 0.85459,0.85459 0 0 0 0.85459,0.85459 h 1.06817 v 4.23922 h 4.30952 v -4.23922 h 1.06817 a 0.85459,0.85459 0 0 0 0.85459,-0.85459 v -2.82929 a 0.85459,0.85459 0 0 0 -0.85459,-0.85459 z"
         id="path1980" />
      <path
         style="fill:#ffffff;stroke:#000000;stroke-opacity:1"
         inkscape:connector-curvature="0"
         d="m -977.93992,-23.71361 a 33.13912,33.13912 0 0 1 -5.76522,-19.64783 0.69891,0.69891 0 0 0 -0.54554,-0.69746 v -1.22253 h -6.80769 v 1.20553 h -0.0938 a 0.69853,0.69853 0 0 0 -0.69762,0.69944 q 0,0.0254 0.002,0.0508 a 30.24345,30.24345 0 0 1 -5.43307,20.11341 1.92512,1.92512 0 0 0 -0.34841,1.16663 l 0.74439,23.026 a 1.99329,1.99329 0 0 0 1.97625,1.92384 h 15.398 a 1.994,1.994 0 0 0 1.97744,-1.95777 l 0.28686,-22.35637 a 4.0348,4.0348 0 0 0 -0.69351,-2.30373 z"
         id="path1982" />
      <rect
         style="fill:#ffffff;stroke:#000000;stroke-opacity:1"
         x="-994.84821"
         y="-15.249412"
         width="14.69218"
         height="7.3460898"
         id="rect1984" />
      <path
         style="fill:#ffffff;stroke:#000000;stroke-opacity:1"
         inkscape:connector-curvature="0"
         d="m -897.63896,-105.86276 h -13.58894 a 1.80163,1.80163 0 0 0 -1.80163,1.80162 v 5.9646 a 1.80163,1.80163 0 0 0 1.80163,1.80162 h 2.25188 v 8.937 h 9.08518 v -8.937 h 2.25188 a 1.80162,1.80162 0 0 0 1.80162,-1.80162 v -5.9646 a 1.80162,1.80162 0 0 0 -1.80162,-1.80162 z"
         id="path1986" />
      <path
         style="fill:#ffffff;stroke:#000000;stroke-opacity:1"
         inkscape:connector-curvature="0"
         d="m -884.02816,-51.27482 a 69.86282,69.86282 0 0 1 -12.15406,-41.42092 1.47342,1.47342 0 0 0 -1.15009,-1.47037 v -2.57729 h -14.35174 v 2.54146 h -0.19775 a 1.47261,1.47261 0 0 0 -1.4707,1.47453 q 6e-5,0.0537 0.004,0.10718 1.696,23.64149 -11.45381,42.40243 a 4.05834,4.05834 0 0 0 -0.73449,2.45945 l 1.56928,48.54266 a 4.2022,4.2022 0 0 0 4.16627,4.05578 h 32.46148 a 4.20366,4.20366 0 0 0 4.16877,-4.12731 l 0.60474,-47.131 a 8.50588,8.50588 0 0 0 -1.4619,-4.8566 z"
         id="path1988" />
      <path
         style="fill:#ffffff;stroke:#000000;stroke-opacity:1"
         inkscape:connector-curvature="0"
         d="m -889.16689,-35.15047 h -28.25519 a 2.90092,2.90092 0 0 0 -2.86716,3.342 l 4.26976,27.75348 h 24.51758 l 5.18623,-27.66 a 2.901,2.901 0 0 0 -2.85122,-3.43552 z"
         id="path1990" />
      <path
         style="fill:#ffffff;stroke:#000000;stroke-opacity:1"
         inkscape:connector-curvature="0"
         d="m -890.22035,-283.64571 h -81.00333 c 5.66326,-30.61868 4.36035,-67.59179 0,-107.35381 h 81.00333 c -4.24438,39.76214 -5.51268,76.73519 0,107.35381 z"
         id="path1992" />
      <circle
         style="fill:#ffffff;stroke:#000000;stroke-opacity:1"
         cx="-930.23407"
         cy="-340.25043"
         r="19.518881"
         id="circle1994" />
      <path
         style="fill:#ffffff;stroke:#000000;stroke-opacity:1"
         inkscape:connector-curvature="0"
         d="m -964.39208,-141.15792 h -81.00332 c 5.6632,-30.61869 4.3603,-67.59179 0,-107.35381 h 81.00332 c -4.24437,39.76214 -5.51267,76.73518 0,107.35381 z"
         id="path1996" />
      <circle
         style="fill:#ffffff;stroke:#000000;stroke-opacity:1"
         cx="-1004.4058"
         cy="-197.76265"
         r="19.518881"
         id="circle1998" />
      <path
         style="fill:#ffffff;stroke:#000000;stroke-opacity:1"
         inkscape:connector-curvature="0"
         d="m -844.351,-276.8141 h -81.00333 c 5.66327,-30.61869 4.36036,-67.59179 0,-107.35381 h 81.00333 c -4.24437,39.76214 -5.51267,76.73518 0,107.35381 z"
         id="path2000" />
      <circle
         style="fill:#ffffff;stroke:#000000;stroke-opacity:1"
         cx="-884.36469"
         cy="-333.41882"
         r="19.518881"
         id="circle2002" />
      <path
         style="fill:#ffffff;stroke:#000000;stroke-opacity:1"
         inkscape:connector-curvature="0"
         d="m -844.351,-281.69382 h -81.00333 c 5.66327,-30.61869 4.36036,-67.59179 0,-107.35381 h 81.00333 c -4.24437,39.76214 -5.51267,76.73518 0,107.35381 z"
         id="path2004" />
      <circle
         style="fill:#ffffff;stroke:#000000;stroke-opacity:1"
         cx="-884.36469"
         cy="-338.29855"
         r="19.518881"
         id="circle2006" />
      <path
         style="fill:#ffffff;stroke:#000000;stroke-opacity:1"
         inkscape:connector-curvature="0"
         d="m -844.351,-276.8141 h -81.00333 c 5.66327,-30.61869 4.36036,-67.59179 0,-107.35381 h 81.00333 c -4.24437,39.76214 -5.51267,76.73518 0,107.35381 z"
         id="path2008" />
      <circle
         style="fill:#ffffff;stroke:#000000;stroke-opacity:1"
         cx="-884.36469"
         cy="-333.41882"
         r="19.518881"
         id="circle2010" />
      <rect
         style="fill:#ffffff;stroke:#000000;stroke-opacity:1"
         x="-1091.2648"
         y="-289.50137"
         width="265.4567"
         height="29.278311"
         id="rect2012" />
      <rect
         style="fill:#ffffff;stroke:#000000;stroke-opacity:1"
         x="-1091.2648"
         y="-144.08574"
         width="265.4567"
         height="29.278311"
         id="rect2014" />
      <rect
         style="fill:#ffffff;stroke:#000000;stroke-opacity:1"
         x="-1091.2648"
         y="1.3298728"
         width="265.4567"
         height="29.278311"
         id="rect2016" />
    </g>
    <g
       transform="matrix(0.88810403,0,0,0.88810403,189.56421,52.285985)"
       id="g2583">
      <polygon
         style="fill:#6c63ff"
         points="322.22,507.95 425.22,519.95 425.25,520.6 425.26,520.92 431.22,663.95 299.22,690.95 296.22,690.65 180.22,678.95 180.22,531.95 "
         id="polygon48" />
      <polygon
         style="opacity:0.1"
         points="431.22,663.95 299.22,690.95 296.22,690.65 296.22,539.95 425.25,520.6 "
         id="polygon50" />
      <polygon
         style="opacity:0.05"
         points="425.22,519.95 425.25,520.6 425.26,520.92 425.22,520.95 296.22,539.95 180.22,531.95 322.22,507.95 "
         id="polygon52" />
      <polygon
         style="fill:#3f3d56"
         points="467.22,513.95 570.22,525.95 570.25,526.6 570.26,526.92 576.22,669.95 444.22,696.95 441.22,696.65 325.22,684.95 325.22,537.95 "
         id="polygon54" />
      <polygon
         style="opacity:0.1"
         points="576.22,669.95 444.22,696.95 441.22,696.65 441.22,545.95 570.25,526.6 "
         id="polygon56" />
      <polygon
         style="opacity:0.05"
         points="570.22,525.95 570.25,526.6 570.26,526.92 570.22,526.95 441.22,545.95 325.22,537.95 467.22,513.95 "
         id="polygon58" />
      <polygon
         style="fill:#3f3d56"
         points="376.22,369.95 479.22,381.95 479.25,382.6 479.26,382.92 485.22,525.95 353.22,552.95 350.22,552.65 234.22,540.95 234.22,393.95 "
         id="polygon60" />
      <polygon
         style="opacity:0.1"
         points="485.22,525.95 353.22,552.95 350.22,552.65 350.22,401.95 479.25,382.6 "
         id="polygon62" />
      <polygon
         style="opacity:0.05"
         points="479.22,381.95 479.25,382.6 479.26,382.92 479.22,382.95 350.22,401.95 234.22,393.95 376.22,369.95 "
         id="polygon64" />
      <polygon
         style="fill:#3f3d56"
         points="503.33,450.69 557.09,456.96 557.11,457.3 557.11,457.46 560.22,532.11 491.33,546.21 489.76,546.05 429.22,539.94 429.22,463.22 "
         id="polygon66" />
      <polygon
         style="opacity:0.1"
         points="560.22,532.11 491.33,546.21 489.76,546.05 489.76,467.4 557.11,457.3 "
         id="polygon68" />
      <polygon
         style="opacity:0.05"
         points="557.09,456.96 557.11,457.3 557.11,457.46 557.09,457.48 489.76,467.4 429.22,463.22 503.33,450.69 "
         id="polygon70" />
      <polygon
         style="fill:#3f3d56"
         points="318.33,301.69 372.09,307.96 372.11,308.3 372.11,308.46 375.22,383.11 306.33,397.2 304.76,397.05 244.22,390.94 244.22,314.22 "
         id="polygon72" />
      <polygon
         style="opacity:0.1"
         points="375.22,383.11 306.33,397.2 304.76,397.05 304.76,318.4 372.11,308.3 "
         id="polygon74" />
      <polygon
         style="opacity:0.05"
         points="372.09,307.96 372.11,308.3 372.11,308.46 372.09,308.48 304.76,318.4 244.22,314.22 318.33,301.69 "
         id="polygon76" />
      <polygon
         style="fill:#039be5;fill-opacity:1"
         points="439.33,298.69 493.09,304.96 493.11,305.3 493.11,305.46 496.22,380.11 427.33,394.2 425.76,394.05 365.22,387.94 365.22,311.22 "
         id="polygon78" />
      <polygon
         style="opacity:0.1"
         points="496.22,380.11 427.33,394.2 425.76,394.05 425.76,315.4 493.11,305.3 "
         id="polygon80" />
      <polygon
         style="opacity:0.05"
         points="493.09,304.96 493.11,305.3 493.11,305.46 493.09,305.48 425.76,315.4 365.22,311.22 439.33,298.69 "
         id="polygon82" />
      <polygon
         style="fill:#3f3d56"
         points="475.33,221.69 529.09,227.96 529.11,228.3 529.11,228.46 532.22,303.11 463.33,317.2 461.76,317.05 401.22,310.94 401.22,234.22 "
         id="polygon84" />
      <polygon
         style="opacity:0.1"
         points="532.22,303.11 463.33,317.2 461.76,317.05 461.76,238.4 529.11,228.3 "
         id="polygon86" />
      <polygon
         style="opacity:0.05"
         points="529.09,227.96 529.11,228.3 529.11,228.46 529.09,228.48 461.76,238.4 401.22,234.22 475.33,221.69 "
         id="polygon88" />
      <path
         style="fill:#ffc0c6"
         inkscape:connector-curvature="0"
         d="m 704.35,244.45 c -0.73,6.5 -5.69,11.74 -7.53,18 -2.76,9.45 2,19.6 8.56,27 a 59.77,59.77 0 0 0 41.62,19.74 17.91,17.91 0 0 0 6.88,-0.75 14.94,14.94 0 0 0 5.23,-3.58 c 4.92,-4.95 7.57,-11.8 8.62,-18.71 1.05,-6.91 0.65,-13.94 0.24,-20.91 a 11.83,11.83 0 0 0 -0.78,-4.22 10.72,10.72 0 0 0 -2.71,-3.33 63,63 0 0 0 -11.65,-8.47 c -1.8,-1 -3.73,-2 -4.88,-3.73 a 12.21,12.21 0 0 1 -1.51,-4.47 l -1.29,-6.56 a 12.86,12.86 0 0 0 -1.89,-5.32 c -2.27,-3.06 -6.62,-3.48 -10.43,-3.63 l -14,-0.55 c -4.35,-0.17 -10.07,-1.42 -14.32,-0.56 -4,0.79 -2.65,4.45 -1.93,7.77 a 56.18,56.18 0 0 1 1.77,12.28 z"
         transform="translate(-125.21,-98.18)"
         id="path90" />
      <path
         style="opacity:0.1"
         inkscape:connector-curvature="0"
         d="m 704.35,244.45 c -0.73,6.5 -5.69,11.74 -7.53,18 -2.76,9.45 2,19.6 8.56,27 a 59.77,59.77 0 0 0 41.62,19.74 17.91,17.91 0 0 0 6.88,-0.75 14.94,14.94 0 0 0 5.23,-3.58 c 4.92,-4.95 7.57,-11.8 8.62,-18.71 1.05,-6.91 0.65,-13.94 0.24,-20.91 a 11.83,11.83 0 0 0 -0.78,-4.22 10.72,10.72 0 0 0 -2.71,-3.33 63,63 0 0 0 -11.65,-8.47 c -1.8,-1 -3.73,-2 -4.88,-3.73 a 12.21,12.21 0 0 1 -1.51,-4.47 l -1.29,-6.56 a 12.86,12.86 0 0 0 -1.89,-5.32 c -2.27,-3.06 -6.62,-3.48 -10.43,-3.63 l -14,-0.55 c -4.35,-0.17 -10.07,-1.42 -14.32,-0.56 -4,0.79 -2.65,4.45 -1.93,7.77 a 56.18,56.18 0 0 1 1.77,12.28 z"
         transform="translate(-125.21,-98.18)"
         id="path92" />
      <path
         style="fill:#605d82"
         inkscape:connector-curvature="0"
         d="m 793.26,537.21 -5.94,65.12 c -1.55,17.08 -3.13,34.23 -6.17,51.09 -1,5.81 -2.28,11.59 -3.74,17.32 -4.06,15.91 -9.95,31.46 -11.85,47.77 -0.06,0.47 -0.11,1 -0.16,1.43 -0.39,3.6 -0.73,7.24 -2,10.6 -1,2.49 -2.41,4.76 -3.44,7.22 -2,4.92 -2.32,10.36 -2.57,15.69 a 67.64,67.64 0 0 0 -23.29,-8 c -4,-0.59 -8.35,-1 -11,-4 -3,-3.26 -2.65,-8.25 -2.15,-12.63 q 2.36,-20.4 4.7,-40.78 a 106.28,106.28 0 0 1 3,-17.32 c 0.54,-1.89 1.19,-3.75 1.85,-5.61 0.91,-2.56 1.83,-5.12 2.52,-7.75 A 93.33,93.33 0 0 0 735,644.53 c 1.61,-13.68 3.55,-27.33 5.25,-41 l 0.09,-0.72 c 2.55,-20.72 4.49,-41.54 3.93,-62.41 -0.08,-3.09 -0.21,-6.18 -0.41,-9.28 -0.28,-4.49 -0.69,-6.87 3,-9.68 4.11,-3.1 9.52,-5.27 14.22,-7.3 2.53,-1.1 30.39,-11 31,-8.82 a 54.29,54.29 0 0 1 2,14.22 158.22,158.22 0 0 1 -0.82,17.67 z"
         transform="translate(-125.21,-98.18)"
         id="path94" />
      <path
         style="opacity:0.1"
         inkscape:connector-curvature="0"
         d="m 781.15,653.42 c -1,5.81 -2.28,11.59 -3.74,17.32 -4.06,15.91 -9.95,31.46 -11.85,47.77 -0.06,0.47 -0.11,1 -0.16,1.43 -12.42,-17.74 -22.88,-36.82 -35,-54.75 0.91,-2.56 1.83,-5.12 2.52,-7.75 A 93.33,93.33 0 0 0 735,644.53 c 1.61,-13.68 3.55,-27.33 5.25,-41 l 0.09,-0.72 a 42.47,42.47 0 0 0 3,8.41 c 8.14,16.54 27.48,24.9 36.94,40.73 q 0.47,0.74 0.87,1.47 z"
         transform="translate(-125.21,-98.18)"
         id="path96" />
      <path
         style="fill:#605d82"
         inkscape:connector-curvature="0"
         d="m 680.37,508 c 0.41,13.26 2.53,26.41 4.65,39.51 l 4.37,27 c 2.39,14.8 4.89,29.89 11.89,43.14 5.24,9.92 12.78,18.38 19.61,27.27 16.78,21.86 29.39,46.63 45.3,69.13 4.63,6.54 11.24,13.62 19.13,12.25 5.18,-0.89 8.94,-5.21 13,-8.53 4.8,-3.92 10.58,-6.79 14.36,-11.71 3.78,-4.92 4.52,-13.08 -0.6,-16.58 -1.75,-1.19 -3.88,-1.64 -5.86,-2.4 -7.93,-3 -13.07,-10.76 -16.33,-18.6 -3.26,-7.84 -5.25,-16.25 -9.6,-23.54 -9.46,-15.83 -28.81,-24.19 -36.95,-40.74 -4.56,-9.26 -5,-20 -5.34,-30.27 l -0.89,-26.31 c -0.1,-2.88 -0.17,-5.87 1,-8.5 3.11,-7 12.51,-7.66 20.13,-8.55 a 68.75,68.75 0 0 0 24.67,-7.78 c 4.39,-2.37 8.67,-5.39 11,-9.79 2.14,-4 2.43,-8.71 2.68,-13.25 l 2.64,-47.69 c 0.23,-4.1 0.43,-8.35 -1,-12.19 -3.63,-9.66 -15.83,-12.82 -26.14,-12.36 -19.18,0.86 -36.88,9.11 -55,14.69 -4.49,1.38 -9,2.62 -13.63,3.55 -4,0.81 -9,0.48 -12.84,1.78 -6.88,2.32 -6.71,17.38 -7.68,23.62 A 198.29,198.29 0 0 0 680.37,508 Z"
         transform="translate(-125.21,-98.18)"
         id="path98" />
      <path
         style="fill:#535070"
         inkscape:connector-curvature="0"
         d="m 782.72,728.32 c 1.69,1.71 2.24,4.21 2.68,6.57 a 224.15,224.15 0 0 1 3.8,39.71 6.58,6.58 0 0 0 0.71,3.6 4.59,4.59 0 0 0 1.87,1.5 c 4.89,2.33 10.56,-0.92 14.64,-4.49 7.55,-6.61 13.94,-15.49 14.37,-25.52 0.11,-2.58 -0.18,-5.19 0.27,-7.74 0.66,-3.78 2.87,-7.07 4.81,-10.37 a 88.05,88.05 0 0 0 8,-17.82 c 0.74,-2.34 1.24,-5.28 -0.6,-6.91 a 6.43,6.43 0 0 0 -2.17,-1.13 l -22.1,-8.2 c -1.92,-0.71 -6.68,11.52 -7.43,12.86 -1.85,3.27 -3.69,5.12 -7.4,5.88 -3.71,0.76 -8.29,-0.34 -11.83,1.55 -6,3.19 -3.01,7.1 0.38,10.51 z"
         transform="translate(-125.21,-98.18)"
         id="path100" />
      <path
         style="fill:#535070"
         inkscape:connector-curvature="0"
         d="m 748.64,735.87 a 6.73,6.73 0 0 0 -1.68,-2.13 7.53,7.53 0 0 0 -3.39,-1.15 c -4.2,-0.72 -9.18,-1.19 -12.09,1.94 -2.72,2.93 -2.25,7.7 -4.52,11 -0.72,1 -1.7,1.9 -2.32,3 a 11.26,11.26 0 0 0 -1,5.38 c -0.12,5.09 -0.24,10.2 0.12,15.28 0.29,4.26 1,8.73 3.67,12.07 4.28,5.36 12,6.13 18.84,6.47 l 5.55,0.29 a 11,11 0 0 0 4.54,-0.42 7.45,7.45 0 0 0 3.92,-4.31 c 2.89,-7.18 -1.68,-14.91 -4.5,-22.11 -3.25,-8.29 -2.67,-17.48 -7.14,-25.31 z"
         transform="translate(-125.21,-98.18)"
         id="path102" />
      <path
         style="fill:#3f3d56"
         inkscape:connector-curvature="0"
         d="m 702.75,207.8 a 4.53,4.53 0 0 1 0.31,-2.14 c 0.81,-1.43 2.93,-1 4.53,-0.64 6.43,1.62 13.21,0.15 19.84,0.53 6.63,0.38 14.09,3.69 15.42,10.19 a 48.21,48.21 0 0 0 12.23,-12.56 c 1.84,-2.75 3.44,-5.9 3.19,-9.2 -0.36,-4.76 -4.35,-8.32 -8,-11.34 l -11,-9 a 16.71,16.71 0 0 0 -4.94,-3.14 c -2.54,-0.87 -5.32,-0.45 -8,-0.45 -8,0 -16.58,-3.65 -23.71,0 -3,1.53 -5.23,4.16 -7.39,6.72 l -9.83,11.64 a 6.21,6.21 0 0 0 -1.58,2.67 c -0.28,1.42 0.45,2.82 0.71,4.25 0.46,2.6 -0.66,5.38 0.2,7.88 1.43,4.14 6.47,4.73 9.55,7.11 1.14,0.88 2.94,3.89 4.31,3.85 2.41,-0.05 4.09,-4.45 4.16,-6.37 z"
         transform="translate(-125.21,-98.18)"
         id="path104" />
      <circle
         style="fill:#ffc0c6"
         cx="594.21997"
         cy="112.45"
         r="31.5"
         id="circle106" />
      <path
         style="fill:#3f3d56"
         inkscape:connector-curvature="0"
         d="M 726.81,279.56 A 15.26,15.26 0 0 0 712,269.34 a 4.45,4.45 0 0 1 -2.74,-0.35 3.79,3.79 0 0 1 -1.13,-1.4 55.73,55.73 0 0 1 -4.59,-10.86 c -0.5,-1.67 -1.19,-3.64 -2.88,-4.07 -1.36,-0.35 -2.75,0.53 -3.66,1.6 a 35,35 0 0 1 -2.62,3.29 c -4,3.54 -11,0.31 -15.19,3.56 -0.69,0.53 -1.26,1.21 -2,1.7 a 9.1,9.1 0 0 1 -2.31,1 221.38,221.38 0 0 0 -23.88,9.33 c 2.8,16.84 5.66,34 12.22,49.75 3.12,7.5 6.65,14.85 9.15,22.58 5.54,17.13 5.78,35.46 5.85,53.47 0,12.32 0,24.9 -4,36.56 -0.9,2.64 -2,5.26 -2.25,8 -0.25,2.74 0.57,5.84 2.82,7.48 a 9.51,9.51 0 0 0 4.35,1.53 c 6.91,1 13.87,-0.82 20.67,-2.4 18.23,-4.22 36.83,-6.64 55.38,-9 l 31.1,-4 a 18.19,18.19 0 0 0 6.44,-1.67 c 5.69,-3.11 6.23,-11.67 2.69,-17.11 -1.69,-2.61 -4.08,-4.75 -5.51,-7.51 -1.43,-2.76 -1.54,-6.64 0.91,-8.55 5,-3.9 3.5,-11.13 3.74,-17.45 q 1,-26.52 -0.27,-53 a 103.72,103.72 0 0 1 -0.18,-11 c 0.35,-6.22 1.89,-12.31 3.43,-18.36 l 9.45,-37.2 c -2.47,-3.9 -7.2,-6.38 -11.67,-7.5 -4.47,-1.12 -9.14,-1.45 -13.55,-2.82 -9,-2.8 -17.08,-9.9 -26.51,-9.24 a 4.85,4.85 0 0 0 -2.06,0.5 c -2.12,1.21 -1.79,4.27 -1.92,6.71 -0.3,5.41 -4.28,9.92 -8.66,13.09 -4.38,3.17 -9.4,5.47 -13.43,9.08 a 6,6 0 0 0 -2.38,4.48 z"
         transform="translate(-125.21,-98.18)"
         id="path108" />
      <path
         style="fill:#ffc0c6"
         inkscape:connector-curvature="0"
         d="m 602,314.85 a 37,37 0 0 1 -6.62,3.41 c -2.2,0.87 -4.55,1.56 -6.35,3.08 a 10.05,10.05 0 0 0 -2.21,2.73 12.13,12.13 0 0 0 11.18,18.07 c 2.89,-0.15 5.62,-1.32 8.27,-2.47 L 628.49,330 c 3.76,-1.63 7.82,-3.53 9.6,-7.23 a 1.74,1.74 0 0 0 0.22,-1.15 1.89,1.89 0 0 0 -0.92,-1 49.77,49.77 0 0 1 -12.93,-12.2 c -0.91,-1.24 -2,-4.16 -3.32,-4.91 -4.7,-2.61 -15.37,8.9 -19.14,11.34 z"
         transform="translate(-125.21,-98.18)"
         id="path110" />
      <path
         style="fill:#ffc0c6"
         inkscape:connector-curvature="0"
         d="m 839.52,307 8.19,9.36 c 1.76,2 3.52,4 5.12,6.16 a 71.67,71.67 0 0 1 9.38,17.67 c 1.78,4.67 3.26,9.65 2.64,14.61 a 36,36 0 0 1 -2.05,7.43 91.86,91.86 0 0 1 -5.57,13.4 76.26,76.26 0 0 1 -6.23,9.37 219.1,219.1 0 0 1 -20.77,23.75 c -2.8,2.77 -4,7.26 -5.19,11 -2.25,6.91 -7.6,12.3 -12.77,17.4 a 35.19,35.19 0 0 1 -5.49,4.72 17.8,17.8 0 0 1 -10,2.84 11,11 0 0 1 -4.49,-0.93 c -3.54,-1.68 -5.34,-5.77 -5.71,-9.67 a 20.7,20.7 0 0 1 1.72,-10.36 c 4.7,-10.41 16.77,-14.92 25.3,-22.52 5,-4.45 8.83,-10.05 12.61,-15.58 a 54.05,54.05 0 0 0 6.37,-11.17 c 1.9,-5.09 1.16,-11.11 2.83,-16.27 0.7,-2.19 2,-4.16 2.71,-6.33 0.71,-2.17 0.95,-4.74 -0.38,-6.61 a 9.55,9.55 0 0 0 -3.71,-2.72 c -5.45,-2.76 -11.55,-6.32 -12.59,-12.35 a 13.22,13.22 0 0 1 2.44,-9.43 39,39 0 0 1 6.87,-7.2 c 2.37,-2.14 6.38,-4.51 8.77,-6.57 z"
         transform="translate(-125.21,-98.18)"
         id="path112" />
      <path
         style="fill:#ffc0c6"
         inkscape:connector-curvature="0"
         d="m 596.74,327.91 c -1.44,-2.92 -3.25,-5.9 -6.17,-7.35 a 11.36,11.36 0 0 0 -9,0 34.12,34.12 0 0 0 -7.88,4.76 l -7.06,5.21 a 17.37,17.37 0 0 0 -4.19,3.87 16.11,16.11 0 0 0 -2.18,6 c -1,4.87 -1.81,9.88 -1.11,14.81 1.12,8 5.92,14.92 11.2,21 3.3,3.78 7.38,7.6 12.4,7.77 2.17,0.07 4.58,-0.79 5.48,-2.76 a 6.83,6.83 0 0 0 0.49,-2.46 c 0.54,-8.88 -2.64,-17.55 -6.34,-25.64 -1,-2.2 -2.08,-4.48 -2,-6.89 a 1.86,1.86 0 0 1 0.3,-1.16 1.94,1.94 0 0 1 1.2,-0.59 c 5.07,-1 13.81,2.94 17.36,-2.69 2.3,-3.72 -0.86,-10.57 -2.5,-13.88 z"
         transform="translate(-125.21,-98.18)"
         id="path114" />
      <path
         style="fill:#3f3d56"
         inkscape:connector-curvature="0"
         d="m 701.09,197.89 a 4.66,4.66 0 0 1 0.32,-2.14 c 0.81,-1.44 2.93,-1 4.53,-0.64 6.43,1.62 13.21,0.15 19.84,0.53 6.63,0.38 14.08,3.69 15.42,10.19 a 48.53,48.53 0 0 0 12.23,-12.56 c 1.84,-2.76 3.44,-5.91 3.19,-9.21 -0.36,-4.76 -4.36,-8.32 -8,-11.33 l -11,-9 a 16.66,16.66 0 0 0 -4.93,-3.14 c -2.55,-0.87 -5.32,-0.45 -8,-0.45 -8,0 -16.58,-3.65 -23.71,0 -3,1.53 -5.23,4.16 -7.39,6.72 l -9.84,11.64 a 6.23,6.23 0 0 0 -1.57,2.67 c -0.28,1.42 0.45,2.82 0.71,4.25 0.46,2.6 -0.66,5.38 0.2,7.87 1.43,4.15 6.47,4.74 9.55,7.12 1.14,0.88 2.94,3.89 4.31,3.85 2.37,-0.05 4.05,-4.45 4.14,-6.37 z"
         transform="translate(-125.21,-98.18)"
         id="path116" />
      <path
         style="fill:#3f3d56"
         inkscape:connector-curvature="0"
         d="m 634.19,284.21 a 13.06,13.06 0 0 0 -3.3,3.07 c -1.15,1.75 -1.39,4 -2.38,5.8 -2.12,3.94 -7.09,5.35 -10.18,8.58 a 3.19,3.19 0 0 0 -1,1.68 3.71,3.71 0 0 0 0.83,2.42 l 14.94,23.48 c 5,0.44 9.74,-2.68 14.72,-2.26 1.85,0.15 3.76,0.79 5.54,0.24 a 16.1,16.1 0 0 0 3.55,-2.17 c 3,-1.88 6.92,-2.1 9.41,-4.57 2.49,-2.47 2.7,-6.1 2.67,-9.47 a 37.37,37.37 0 0 0 -0.89,-8.7 c -2.2,-9 -9.09,-15.94 -13.41,-23.92 -2.11,-3.89 -3.25,-6.16 -7.7,-3.49 -4.45,2.67 -8.59,6.23 -12.8,9.31 z"
         transform="translate(-125.21,-98.18)"
         id="path118" />
      <path
         style="fill:#3f3d56"
         inkscape:connector-curvature="0"
         d="m 815.6,272.34 a 35.07,35.07 0 0 1 7.52,6.58 c 2.27,2.93 3.56,6.53 5.75,9.53 2.19,3 5,5.16 7.4,7.84 3.65,4.06 6.12,9 8.54,13.91 a 208.6,208.6 0 0 1 -19.32,21.8 6.19,6.19 0 0 1 -2.94,1.92 4.71,4.71 0 0 1 -4.14,-1.69 c -1.08,-1.12 -1.84,-2.52 -2.87,-3.69 a 14.75,14.75 0 0 0 -9.13,-4.41 62.72,62.72 0 0 0 -10.35,-0.15 4,4 0 0 1 -2.21,-0.37 3.65,3.65 0 0 1 -1.2,-1.38 c -4,-6.88 -2.75,-15.52 -1.32,-23.38 l 3.27,-18 a 40.44,40.44 0 0 1 2.73,-10 c 1.24,-2.65 4,-7.15 7.42,-6.35 3.42,0.8 7.96,5.76 10.85,7.84 z"
         transform="translate(-125.21,-98.18)"
         id="path120" />
      <polygon
         style="fill:#039be5;fill-opacity:1"
         points="348.33,224.69 402.09,230.96 402.11,231.3 402.11,231.46 405.22,306.11 336.33,320.2 334.76,320.05 274.22,313.94 274.22,237.22 "
         id="polygon122" />
      <polygon
         style="opacity:0.1"
         points="405.22,306.11 336.33,320.2 334.76,320.05 334.76,241.4 402.11,231.3 "
         id="polygon124" />
      <polygon
         style="opacity:0.05"
         points="402.09,230.96 402.11,231.3 402.11,231.46 402.09,231.48 334.76,241.4 274.22,237.22 348.33,224.69 "
         id="polygon126" />
      <polygon
         style="fill:#3f3d56"
         points="384.33,148.69 438.09,154.96 438.11,155.3 438.11,155.46 441.22,230.11 372.33,244.21 370.76,244.05 310.22,237.94 310.22,161.22 "
         id="polygon128" />
      <polygon
         style="opacity:0.1"
         points="441.22,230.11 372.33,244.21 370.76,244.05 370.76,165.4 438.11,155.3 "
         id="polygon130" />
      <polygon
         style="opacity:0.05"
         points="438.09,154.96 438.11,155.3 438.11,155.46 438.09,155.48 370.76,165.4 310.22,161.22 384.33,148.69 "
         id="polygon132" />
    </g>
  </g>
</svg>
