<?xml version="1.0" encoding="UTF-8" standalone="no"?>
<svg
   xmlns:dc="http://purl.org/dc/elements/1.1/"
   xmlns:cc="http://creativecommons.org/ns#"
   xmlns:rdf="http://www.w3.org/1999/02/22-rdf-syntax-ns#"
   xmlns:svg="http://www.w3.org/2000/svg"
   xmlns="http://www.w3.org/2000/svg"
   xmlns:sodipodi="http://sodipodi.sourceforge.net/DTD/sodipodi-0.dtd"
   xmlns:inkscape="http://www.inkscape.org/namespaces/inkscape"
   height="511pt"
   viewBox="0 -11 511.99833 511"
   width="511pt"
   version="1.1"
   id="svg8"
   sodipodi:docname="brazil.svg"
   inkscape:version="0.92.3 (2405546, 2018-03-11)">
  <metadata
     id="metadata14">
    <rdf:RDF>
      <cc:Work
         rdf:about="">
        <dc:format>image/svg+xml</dc:format>
        <dc:type
           rdf:resource="http://purl.org/dc/dcmitype/StillImage" />
      </cc:Work>
    </rdf:RDF>
  </metadata>
  <defs
     id="defs12" />
  <sodipodi:namedview
     pagecolor="#ffffff"
     bordercolor="#666666"
     borderopacity="1"
     objecttolerance="10"
     gridtolerance="10"
     guidetolerance="10"
     inkscape:pageopacity="0"
     inkscape:pageshadow="2"
     inkscape:window-width="1918"
     inkscape:window-height="1055"
     id="namedview10"
     showgrid="false"
     inkscape:zoom="0.34637965"
     inkscape:cx="340.66667"
     inkscape:cy="340.66667"
     inkscape:window-x="0"
     inkscape:window-y="0"
     inkscape:window-maximized="1"
     inkscape:current-layer="svg8" />
  <g
     id="g848">
    <path
       inkscape:connector-curvature="0"
       id="path2"
       d="M 179.22461,0.29296875 C 162.41594,3.8521652 144.47869,3.3558554 128.75391,10.835938 c -9.30855,7.343901 -8.79127,21.728583 -2.77344,30.984374 1.09472,4.438256 -4.83596,4.25905 -6.7207,7.046876 -3.08527,2.92002 -6.89821,0.02923 -8.10352,-3.207032 -5.75364,-7.949581 -15.212822,-15.393898 -25.542969,-12.158203 -10.810796,1.288986 -24.950062,1.19929 -31.132812,12.025391 -6.687076,12.335398 3.168902,24.96182 1.564453,37.820312 -0.364196,10.998274 -2.94915,21.886504 -3.509766,32.779294 -11.710034,3.14409 -25.343639,1.9705 -35.40039,9.58789 -8.3675261,8.41927 -9.0096216,20.88151 -13.7109379,31.34961 -2.0063848,10.61576 5.8039501,19.09129 12.9179689,25.6875 6.954701,8.55017 14.362863,20.06014 26.732422,20.14063 3.937414,2.18202 2.557057,8.15836 6.810547,10.41992 9.353843,8.38881 23.682977,8.17177 35.101562,4.8418 7.991667,-2.61941 15.318632,-6.8361 22.841792,-10.51953 -0.86071,13.74497 12.19447,21.49689 23.15626,26.13281 10.92474,4.79954 22.70209,7.18118 33.80078,11.50976 4.1322,11.05783 4.11599,26.08037 15.86523,32.37696 4.21826,1.14801 10.80932,1.86179 9.4375,8.20117 2.34781,18.6621 1.7818,37.87165 6.99023,55.85547 4.61574,7.9036 14.52678,10.7003 23.17774,10.09765 1.74058,7.06447 4.27887,17.09445 13.29102,17.26368 8.48178,0.42974 14.92523,-9.42174 10.79492,-16.95313 -2.45263,-9.21227 -6.32366,-20.52023 -17.02735,-22.56836 -3.255,-1.56627 -8.69936,-0.26256 -10.59697,-2.41671 -1.31053,-17.18058 -3.22231,-34.45019 -4.946,-51.49345 -0.57936,-8.83104 -6.69543,-16.88055 -15.6875,-18.4121 -4.27458,0.29059 -5.43199,-2.69148 -5.97656,-6.45118 -2.46934,-10.39691 -5.72642,-23.82111 -17.55859,-27.07226 -13.8356,-5.16 -28.99654,-7.49077 -41.45117,-15.9375 3.30954,-13.19066 -9.76007,-28.31752 -23.51172,-24.0332 -13.342406,2.82861 -24.423815,14.4581 -38.613284,13.23046 -3.801846,-2.16031 -2.009732,-7.87406 -5.742187,-10.41601 -4.558759,-5.79441 -12.467781,-8.94812 -19.72461,-7.16797 -5.684089,-6.433 -11.368287,-12.86592 -17.054687,-19.29688 2.082361,-5.67759 3.970876,-11.42663 6.197266,-17.05078 12.610357,-3.78071 27.832744,-1.72943 37.884765,-11.61132 8.165921,-11.16549 4.421176,-25.81212 7.707031,-38.505864 1.61724,-12.517596 1.08741,-25.245362 -3.666015,-37.06836 5.302455,4.394611 11.354961,-2.421934 16.613281,1.353516 5.84264,8.913842 15.30434,19.853959 27.2207,16.783203 10.43579,-3.249113 20.13972,-9.424045 28.08985,-16.701172 5.94952,-8.984027 3.0389,-20.763587 -2.44727,-29.222656 11.26242,0.03213 22.14392,-3.192087 33.25977,-4.5 5.5985,12.923983 6.29242,28.537166 16.24609,39.191406 9.23299,7.238473 20.83529,2.67096 30.84742,0.460679 8.25141,-1.621269 17.46703,-5.286722 20.36742,-13.997788 11.36077,2.989299 24.61136,10.142845 35.54297,2.048828 2.13249,-1.405446 5.05765,-6.077414 6.86733,-4.753161 5.11672,12.076343 6.95081,28.469968 20.38773,34.498644 8.10556,3.558417 15.71636,8.704051 24.25861,10.883423 9.46001,0.128949 16.11838,-13.370014 7.84571,-19.705078 -7.56144,-7.571496 -22.0948,-6.753983 -25.75586,-18.169922 -5.22431,-11.694204 -6.10179,-27.480839 -18.39063,-34.416016 -9.86884,-4.625721 -23.33262,0.463712 -26.87695,10.980469 -9.03771,2.523327 -16.69426,-5.718711 -25.78125,-4.779297 -8.69818,-0.308957 -16.63671,5.589321 -19.44531,13.56836 -3.09115,2.355573 -7.43266,0.804424 -10.62695,3.226562 -3.10066,1.751324 -6.65482,-0.529958 -6.72461,-3.970703 C 201.40612,26.631568 200.69212,11.393321 189.6543,3.1074219 186.53497,1.2165426 182.8786,0.18533058 179.22461,0.29296875 Z"
       style="stroke-width:0.98317957" />
    <path
       inkscape:connector-curvature="0"
       id="path4"
       d="m 462.52539,217.19922 c -11.25689,1.71662 -16.24915,13.50387 -25.2793,19.14453 -7.98842,6.86073 -9.37313,17.70003 -11.12799,27.39825 -3.7216,15.60097 -5.52571,31.97563 -11.55809,46.8564 -10.73731,15.41886 -21.39697,30.88712 -32.31196,46.1809 -18.1761,2.52688 -37.02114,0.29572 -54.58789,6.2207 -10.19969,7.03721 -18.79053,16.15847 -28.14649,24.18945 -9.66252,11.32071 -2.26235,28.76378 -12.24219,39.79297 -13.27911,11.99196 -24.94143,25.74347 -38.27148,37.73047 -8.6584,-8.859 -18.10281,-16.95228 -26.19336,-26.35937 11.46911,-10.40485 26.94029,-17.11994 35.20117,-30.60743 3.04625,-9.9075 -0.22992,-20.89577 -5.72461,-29.20898 -6.78294,-6.19698 -19.91982,-1.00889 -19.02343,8.69531 -0.3324,4.38141 3.31652,9.40749 1.64554,13.10377 -9.4442,6.902 -18.30763,14.57941 -27.89945,21.27319 -7.79682,5.97143 -12.01308,17.27938 -6.51953,26.10351 5.96124,9.83339 16.4622,15.62938 23.55273,24.55469 7.61207,6.92526 15.1879,18.07599 26.86133,16.86719 13.66111,-1.67877 19.83817,-15.31232 29.40477,-23.2851 11.04336,-11.28388 23.54153,-21.75983 32.13039,-34.92194 4.19007,-10.11577 0.53509,-23.02181 7.83673,-31.82581 6.97539,-5.05659 12.60557,-13.1789 20.8742,-16.18395 15.5909,-2.22521 31.50174,-1.49605 46.99219,-4.18945 13.75225,-3.2175 18.19559,-18.26963 26.01563,-28.23243 8.4883,-12.73936 19.87218,-24.00979 24.70536,-38.75274 5.20775,-19.28549 7.63197,-39.37565 13.76534,-58.3664 7.09288,-8.34172 19.60921,-13.31257 21.48438,-25.10547 -0.18773,-5.89235 -5.51927,-11.5047 -11.58399,-11.07226 z"
       style="stroke-width:0.98317957" />
    <path
       inkscape:connector-curvature="0"
       id="path6"
       d="m 357.97656,82.404297 c -10.45594,0.745673 -13.67788,18.158323 -3.03906,21.503903 11.50944,5.88805 22.77482,14.45922 36.03906,15.31641 11.40583,0.21829 22.86859,-2.26741 34.25782,-1.52344 7.95447,2.7124 12.93606,10.314 19.5371,15.16406 10.20387,8.73294 19.87657,18.94338 32.27149,24.10547 3.76517,1.81012 11.90607,-2.7319 11.66809,2.94052 0.55441,7.97944 3.37788,16.52388 1.66199,24.3505 -6.32985,7.47186 -18.28892,12.9164 -17.70899,24.17969 1.60267,8.52262 14.40583,13.01159 19.79324,5.28388 8.25735,-8.39076 20.14397,-15.63497 21.79075,-28.23506 0.58959,-11.17401 -3.2343,-22.04985 -3.09766,-33.21484 -1.47777,-10.12143 -10.75885,-19.54076 -21.48437,-17.67969 -5.834,0.47099 -11.74927,-1.6667 -15.36524,-6.34179 -13.57929,-10.71096 -25.22124,-24.20279 -40.51562,-32.505863 -14.13572,-3.06571 -28.39266,1.339836 -42.59375,0.521484 -12.02574,-2.012654 -20.68489,-13.510717 -33.21485,-13.865234 z"
       style="stroke-width:0.98317957" />
  </g>
</svg>
