<?xml version="1.0" encoding="UTF-8" standalone="no"?>
<svg
   xmlns:osb="http://www.openswatchbook.org/uri/2009/osb"
   xmlns:dc="http://purl.org/dc/elements/1.1/"
   xmlns:cc="http://creativecommons.org/ns#"
   xmlns:rdf="http://www.w3.org/1999/02/22-rdf-syntax-ns#"
   xmlns:svg="http://www.w3.org/2000/svg"
   xmlns="http://www.w3.org/2000/svg"
   xmlns:sodipodi="http://sodipodi.sourceforge.net/DTD/sodipodi-0.dtd"
   xmlns:inkscape="http://www.inkscape.org/namespaces/inkscape"
   height="511pt"
   viewBox="0 -11 511.99833 511"
   width="511pt"
   version="1.1"
   id="svg8"
   sodipodi:docname="ct-e.svg"
   inkscape:version="0.92.3 (2405546, 2018-03-11)">
  <metadata
     id="metadata14">
    <rdf:RDF>
      <cc:Work
         rdf:about="">
        <dc:format>image/svg+xml</dc:format>
        <dc:type
           rdf:resource="http://purl.org/dc/dcmitype/StillImage" />
        <dc:title />
      </cc:Work>
    </rdf:RDF>
  </metadata>
  <defs
     id="defs12">
    <linearGradient
       id="linearGradient7113"
       osb:paint="solid">
      <stop
         style="stop-color:#fff000;stop-opacity:1;"
         offset="0"
         id="stop7111" />
    </linearGradient>
    <style
       id="style1723">.cls-1{font-size:30.12px;font-family:Montserrat-Regular, Montserrat;}.cls-1,.cls-3{fill:#455a64;}.cls-2{letter-spacing:-0.02em;}</style>
  </defs>
  <sodipodi:namedview
     pagecolor="#ffffff"
     bordercolor="#666666"
     borderopacity="1"
     objecttolerance="10"
     gridtolerance="10"
     guidetolerance="10"
     inkscape:pageopacity="0"
     inkscape:pageshadow="2"
     inkscape:window-width="2558"
     inkscape:window-height="1055"
     id="namedview10"
     showgrid="false"
     inkscape:zoom="0.84375001"
     inkscape:cx="242.98596"
     inkscape:cy="321.47331"
     inkscape:window-x="0"
     inkscape:window-y="0"
     inkscape:window-maximized="1"
     inkscape:current-layer="g3754"
     showguides="true"
     inkscape:guide-bbox="true" />
  <g
     id="g3014"
     transform="matrix(0.46594571,0,0,0.46594571,-395.52505,-90.848671)" />
  <g
     id="g3016"
     transform="matrix(0.46594571,0,0,0.46594571,-395.52505,-90.848671)" />
  <g
     id="g3018"
     transform="matrix(0.46594571,0,0,0.46594571,-395.52505,-90.848671)" />
  <g
     id="g3020"
     transform="matrix(0.46594571,0,0,0.46594571,-395.52505,-90.848671)" />
  <g
     id="g3022"
     transform="matrix(0.46594571,0,0,0.46594571,-395.52505,-90.848671)" />
  <g
     id="g3024"
     transform="matrix(0.46594571,0,0,0.46594571,-395.52505,-90.848671)" />
  <g
     id="g3026"
     transform="matrix(0.46594571,0,0,0.46594571,-395.52505,-90.848671)" />
  <g
     id="g3028"
     transform="matrix(0.46594571,0,0,0.46594571,-395.52505,-90.848671)" />
  <g
     id="g3030"
     transform="matrix(0.46594571,0,0,0.46594571,-395.52505,-90.848671)" />
  <g
     id="g3032"
     transform="matrix(0.46594571,0,0,0.46594571,-395.52505,-90.848671)" />
  <g
     id="g3034"
     transform="matrix(0.46594571,0,0,0.46594571,-395.52505,-90.848671)" />
  <g
     id="g3036"
     transform="matrix(0.46594571,0,0,0.46594571,-395.52505,-90.848671)" />
  <g
     id="g3038"
     transform="matrix(0.46594571,0,0,0.46594571,-395.52505,-90.848671)" />
  <g
     id="g3040"
     transform="matrix(0.46594571,0,0,0.46594571,-395.52505,-90.848671)" />
  <g
     id="g3042"
     transform="matrix(0.46594571,0,0,0.46594571,-395.52505,-90.848671)" />
  <g
     id="g3476"
     transform="matrix(0.75146526,0,0,0.75146526,-1234.6494,-216.04593)" />
  <g
     id="g3478"
     transform="matrix(0.75146526,0,0,0.75146526,-1234.6494,-216.04593)" />
  <g
     id="g3480"
     transform="matrix(0.75146526,0,0,0.75146526,-1234.6494,-216.04593)" />
  <g
     id="g3482"
     transform="matrix(0.75146526,0,0,0.75146526,-1234.6494,-216.04593)" />
  <g
     id="g3484"
     transform="matrix(0.75146526,0,0,0.75146526,-1234.6494,-216.04593)" />
  <g
     id="g3486"
     transform="matrix(0.75146526,0,0,0.75146526,-1234.6494,-216.04593)" />
  <g
     id="g3488"
     transform="matrix(0.75146526,0,0,0.75146526,-1234.6494,-216.04593)" />
  <g
     id="g3490"
     transform="matrix(0.75146526,0,0,0.75146526,-1234.6494,-216.04593)" />
  <g
     id="g3492"
     transform="matrix(0.75146526,0,0,0.75146526,-1234.6494,-216.04593)" />
  <g
     id="g3494"
     transform="matrix(0.75146526,0,0,0.75146526,-1234.6494,-216.04593)" />
  <g
     id="g3496"
     transform="matrix(0.75146526,0,0,0.75146526,-1234.6494,-216.04593)" />
  <g
     id="g3498"
     transform="matrix(0.75146526,0,0,0.75146526,-1234.6494,-216.04593)" />
  <g
     id="g3500"
     transform="matrix(0.75146526,0,0,0.75146526,-1234.6494,-216.04593)" />
  <g
     id="g3502"
     transform="matrix(0.75146526,0,0,0.75146526,-1234.6494,-216.04593)" />
  <g
     id="g3504"
     transform="matrix(0.75146526,0,0,0.75146526,-1234.6494,-216.04593)" />
  <g
     id="g10"
     transform="matrix(0.75146526,0,0,0.75146526,-134.83234,76.863977)" />
  <g
     id="g12"
     transform="matrix(0.75146526,0,0,0.75146526,-134.83234,76.863977)" />
  <g
     id="g14"
     transform="matrix(0.75146526,0,0,0.75146526,-134.83234,76.863977)" />
  <g
     id="g16"
     transform="matrix(0.75146526,0,0,0.75146526,-134.83234,76.863977)" />
  <g
     id="g18"
     transform="matrix(0.75146526,0,0,0.75146526,-134.83234,76.863977)" />
  <g
     id="g20"
     transform="matrix(0.75146526,0,0,0.75146526,-134.83234,76.863977)" />
  <g
     id="g22"
     transform="matrix(0.75146526,0,0,0.75146526,-134.83234,76.863977)" />
  <g
     id="g24"
     transform="matrix(0.75146526,0,0,0.75146526,-134.83234,76.863977)" />
  <g
     id="g26"
     transform="matrix(0.75146526,0,0,0.75146526,-134.83234,76.863977)" />
  <g
     id="g28"
     transform="matrix(0.75146526,0,0,0.75146526,-134.83234,76.863977)" />
  <g
     id="g30"
     transform="matrix(0.75146526,0,0,0.75146526,-134.83234,76.863977)" />
  <g
     id="g32"
     transform="matrix(0.75146526,0,0,0.75146526,-134.83234,76.863977)" />
  <g
     id="g34"
     transform="matrix(0.75146526,0,0,0.75146526,-134.83234,76.863977)" />
  <g
     id="g36"
     transform="matrix(0.75146526,0,0,0.75146526,-134.83234,76.863977)" />
  <g
     id="g38"
     transform="matrix(0.75146526,0,0,0.75146526,-134.83234,76.863977)" />
  <g
     id="g3229"
     transform="matrix(0.75146526,0,0,0.75146526,-1071.0177,25.953031)" />
  <g
     id="g3231"
     transform="matrix(0.75146526,0,0,0.75146526,-1071.0177,25.953031)" />
  <g
     id="g3233"
     transform="matrix(0.75146526,0,0,0.75146526,-1071.0177,25.953031)" />
  <g
     id="g3235"
     transform="matrix(0.75146526,0,0,0.75146526,-1071.0177,25.953031)" />
  <g
     id="g3237"
     transform="matrix(0.75146526,0,0,0.75146526,-1071.0177,25.953031)" />
  <g
     id="g3239"
     transform="matrix(0.75146526,0,0,0.75146526,-1071.0177,25.953031)" />
  <g
     id="g3241"
     transform="matrix(0.75146526,0,0,0.75146526,-1071.0177,25.953031)" />
  <g
     id="g3243"
     transform="matrix(0.75146526,0,0,0.75146526,-1071.0177,25.953031)" />
  <g
     id="g3245"
     transform="matrix(0.75146526,0,0,0.75146526,-1071.0177,25.953031)" />
  <g
     id="g3247"
     transform="matrix(0.75146526,0,0,0.75146526,-1071.0177,25.953031)" />
  <g
     id="g3249"
     transform="matrix(0.75146526,0,0,0.75146526,-1071.0177,25.953031)" />
  <g
     id="g3251"
     transform="matrix(0.75146526,0,0,0.75146526,-1071.0177,25.953031)" />
  <g
     id="g3253"
     transform="matrix(0.75146526,0,0,0.75146526,-1071.0177,25.953031)" />
  <g
     id="g3255"
     transform="matrix(0.75146526,0,0,0.75146526,-1071.0177,25.953031)" />
  <g
     id="g3257"
     transform="matrix(0.75146526,0,0,0.75146526,-1071.0177,25.953031)" />
  <g
     id="g3603"
     transform="matrix(0.75146526,0,0,0.75146526,-1007.6799,-366.95595)" />
  <g
     id="g3605"
     transform="matrix(0.75146526,0,0,0.75146526,-1007.6799,-366.95595)" />
  <g
     id="g3607"
     transform="matrix(0.75146526,0,0,0.75146526,-1007.6799,-366.95595)" />
  <g
     id="g3609"
     transform="matrix(0.75146526,0,0,0.75146526,-1007.6799,-366.95595)" />
  <g
     id="g3611"
     transform="matrix(0.75146526,0,0,0.75146526,-1007.6799,-366.95595)" />
  <g
     id="g3613"
     transform="matrix(0.75146526,0,0,0.75146526,-1007.6799,-366.95595)" />
  <g
     id="g3615"
     transform="matrix(0.75146526,0,0,0.75146526,-1007.6799,-366.95595)" />
  <g
     id="g3617"
     transform="matrix(0.75146526,0,0,0.75146526,-1007.6799,-366.95595)" />
  <g
     id="g3619"
     transform="matrix(0.75146526,0,0,0.75146526,-1007.6799,-366.95595)" />
  <g
     id="g3621"
     transform="matrix(0.75146526,0,0,0.75146526,-1007.6799,-366.95595)" />
  <g
     id="g3623"
     transform="matrix(0.75146526,0,0,0.75146526,-1007.6799,-366.95595)" />
  <g
     id="g3625"
     transform="matrix(0.75146526,0,0,0.75146526,-1007.6799,-366.95595)" />
  <g
     id="g3627"
     transform="matrix(0.75146526,0,0,0.75146526,-1007.6799,-366.95595)" />
  <g
     id="g3629"
     transform="matrix(0.75146526,0,0,0.75146526,-1007.6799,-366.95595)" />
  <g
     id="g3631"
     transform="matrix(0.75146526,0,0,0.75146526,-1007.6799,-366.95595)" />
  <g
     id="g3754"
     transform="matrix(0.28690778,0,0,0.28690778,294.54616,241.52613)">
    <g
       id="g1451"
       transform="translate(-841.42855,555.71429)" />
    <g
       id="g1453"
       transform="translate(-841.42855,555.71429)" />
    <g
       id="g1455"
       transform="translate(-841.42855,555.71429)" />
    <g
       id="g1457"
       transform="translate(-841.42855,555.71429)" />
    <g
       id="g1459"
       transform="translate(-841.42855,555.71429)" />
    <g
       id="g1461"
       transform="translate(-841.42855,555.71429)" />
    <g
       id="g1463"
       transform="translate(-841.42855,555.71429)" />
    <g
       id="g1465"
       transform="translate(-841.42855,555.71429)" />
    <g
       id="g1467"
       transform="translate(-841.42855,555.71429)" />
    <g
       id="g1469"
       transform="translate(-841.42855,555.71429)" />
    <g
       id="g1471"
       transform="translate(-841.42855,555.71429)" />
    <g
       id="g1473"
       transform="translate(-841.42855,555.71429)" />
    <g
       id="g1475"
       transform="translate(-841.42855,555.71429)" />
    <g
       id="g1477"
       transform="translate(-841.42855,555.71429)" />
    <g
       id="g1479"
       transform="translate(-841.42855,555.71429)" />
    <path
       style="font-style:normal;font-weight:normal;font-size:813.2947998px;line-height:1.25;font-family:sans-serif;letter-spacing:0px;word-spacing:0px;fill:#000000;fill-opacity:1;stroke:none;stroke-width:16.91972542"
       d="m -606.91576,-195.99495 c -57.60253,0.59507 -117.38828,16.67141 -161.37991,55.48227 -49.6282,42.840201 -81.69865,108.156865 -77.64383,174.316925 5.5047,94.386825 76.63645,182.132185 168.97763,203.882275 48.73244,12.24245 101.88748,11.47593 148.88474,-7.53616 20.15338,-8.62123 40.53467,-22.49511 48.30033,-43.96657 4.75848,-14.49789 -0.96364,-32.23759 -14.81827,-39.67621 -16.1454,-9.42905 -35.48961,-3.97918 -52.16525,0.81742 -24.95881,7.2982 -50.39418,15.22903 -76.73396,14.63138 -33.8728,0.34889 -69.62056,-10.39143 -92.61272,-36.4086 -37.66729,-41.017945 -47.47302,-103.791189 -28.25055,-155.479438 13.6743,-36.708742 43.42558,-68.015217 81.23073,-79.797332 37.27116,-12.56701 78.44425,-8.08233 114.53436,6.24034 17.90883,5.619151 39.09866,11.361662 56.02161,0.32345 17.83493,-13.50784 18.51189,-43.56338 1.2576,-57.84677 -23.1314,-23.85824 -57.54666,-31.47769 -89.3956,-34.24438 -8.70013,-0.64374 -17.44846,-0.83143 -26.20691,-0.7386 z m 493.8587,4.83027 c -91.27029,2.10843 -182.70396,-2.4451 -273.86609,2.45606 -19.49046,5.60986 -29.74854,29.45504 -23.66548,48.00729 5.48274,16.46538 22.99617,27.1297 40.03933,25.75316 21.70303,0.57708 44.33663,-4.20264 65.47023,2.77642 10.8451,4.55121 13.73163,17.882891 13.23964,28.506433 -0.94814,32.820118 -0.14379,65.683073 -0.65973,98.520258 -0.25632,65.968644 -1.03607,132.070649 2.02851,197.935359 7.56036,28.95436 46.73975,44.24751 71.25796,26.26129 16.4441,-10.78672 24.55676,-31.67069 21.52589,-50.55232 -0.29096,-99.9061 0.009,-199.812586 -0.11354,-299.71884 34.61127,-8.95463 71.36995,4.25814 105.287032,-8.04276 21.366405,-12.27642 25.326092,-46.8919 5.364174,-62.32724 -7.072835,-6.20966 -16.469966,-9.81097 -25.907926,-9.57511 z m 565.52794,118.742122 c -60.11184,-0.67489 -121.83561,30.474163 -151.48253,83.880132 -31.6729,57.144884 -22.53473,134.134436 23.70994,180.569176 35.82515,36.22737 87.29577,53.0818 137.48122,54.03504 46.90029,1.58915 95.56475,-5.35633 136.98104,-28.39759 11.13941,-7.51222 19.97836,-22.78482 13.13108,-35.78921 -6.08135,-11.61033 -21.00461,-15.21105 -33.02229,-12.24137 -24.44827,3.5536 -47.73904,13.54708 -72.67578,14.06643 -32.72537,2.44289 -67.74248,-1.08598 -95.9053,-19.25096 -17.44622,-12.08341 -32.10064,-28.80362 -40.62209,-48.27931 -3.08596,-13.12697 10.26246,-25.552058 23.09359,-23.941701 37.52738,0.293209 75.0582,0.197329 112.58632,0.728871 34.29499,0.04465 68.73306,0.08821 102.80626,-3.163233 9.75684,-6.072697 8.44073,-19.517247 8.09437,-29.467488 -2.53625,-31.103595 -20.19862,-58.6425895 -40.62327,-81.352535 -31.97859,-33.32672 -77.82966,-51.927048 -123.55256,-51.396252 z m -2.76219,51.970796 c 30.10608,-0.624453 61.43145,18.8979292 69.012,48.993255 4.6291,16.498203 3.24468,33.908211 0.92904,50.65731 -45.40051,0 -90.80103,0 -136.20155,0 -12.66398,-39.108439 11.17587,-86.8699567 51.41552,-97.694612 4.83844,-1.282648 9.84174,-1.916953 14.84499,-1.955953 z M 160.76811,36.765768 C 94.026843,39.288866 26.985172,33.898476 -39.542283,39.66322 c -20.737484,7.694608 -25.853531,39.843682 -7.676088,53.013717 10.881452,9.186973 25.821563,7.245378 38.9534944,6.764836 C 51.238761,98.590249 110.86553,101.54372 170.2684,97.843581 c 16.21283,-3.4345 24.15937,-22.61616 20.56161,-37.609896 -2.94875,-13.579387 -16.1566,-23.926152 -30.0619,-23.467917 z"
       id="text926"
       inkscape:connector-curvature="0" />
  </g>
  <g
     id="g848"
     transform="translate(1.0726436e-5,-9.9128393e-6)">
    <path
       id="path6"
       style="stroke-width:0.98317957"
       d="m 357.97656,82.404297 c -10.45594,0.745673 -13.67788,18.158323 -3.03906,21.503903 11.50944,5.88805 22.77482,14.45922 36.03906,15.31641 11.40583,0.21829 22.86859,-2.26741 34.25782,-1.52344 7.95447,2.7124 12.93606,10.314 19.5371,15.16406 10.20387,8.73294 19.87657,18.94338 32.27149,24.10547 3.76517,1.81012 11.90607,-2.7319 11.66809,2.94052 0.55441,7.97944 3.37788,16.52388 1.66199,24.3505 -39.56636,31.89807 17.2129,42.13822 23.875,1.22851 0.58959,-11.17401 -3.2343,-22.04985 -3.09766,-33.21484 -1.47777,-10.12143 -10.75885,-19.54076 -21.48437,-17.67969 -5.834,0.47099 -11.74927,-1.6667 -15.36524,-6.34179 -13.57929,-10.71096 -25.22124,-24.20279 -40.51562,-32.505863 -14.13572,-3.06571 -28.39266,1.339836 -42.59375,0.521484 C 379.16567,94.256877 370.50652,82.758814 357.97656,82.404297 Z M 414.56001,310.5984 c -10.73731,15.41886 -21.39697,30.88712 -32.31196,46.1809 -18.1761,2.52688 -37.02114,0.29572 -54.58789,6.2207 -10.19969,7.03721 -18.79053,16.15847 -28.14649,24.18945 -9.66252,11.32071 -2.26235,28.76378 -12.24219,39.79297 -13.27911,11.99196 -24.94143,25.74347 -38.27148,37.73047 -8.6584,-8.859 -18.10281,-16.95228 -26.19336,-26.35937 11.46911,-10.40485 26.94029,-17.11994 35.20117,-30.60743 3.04625,-9.9075 -0.22992,-20.89577 -5.72461,-29.20898 -6.78294,-6.19698 -19.91982,-1.00889 -19.02343,8.69531 -0.3324,4.38141 3.31652,9.40749 1.64554,13.10377 -9.4442,6.902 -18.30763,14.57941 -27.89945,21.27319 -7.79682,5.97143 -12.01308,17.27938 -6.51953,26.10351 5.96124,9.83339 16.4622,15.62938 23.55273,24.55469 7.61207,6.92526 15.1879,18.07599 26.86133,16.86719 13.66111,-1.67877 19.83817,-15.31232 29.40477,-23.2851 11.04336,-11.28388 23.54153,-21.75983 32.13039,-34.92194 4.19007,-10.11577 0.53509,-23.02181 7.83673,-31.82581 6.97539,-5.05659 12.60557,-13.1789 20.8742,-16.18395 15.5909,-2.22521 31.50174,-1.49605 46.99219,-4.18945 13.75225,-3.2175 18.19559,-18.26963 26.01563,-28.23243 8.4883,-12.73936 19.87218,-24.00979 24.70536,-38.75274 -1.74571,-9.18965 -11.50474,-16.3445 -24.29965,-1.14495 z M 179.22461,0.29296875 C 162.41594,3.8521652 144.47869,3.3558554 128.75391,10.835938 c -9.30855,7.343901 -8.79127,21.728583 -2.77344,30.984374 1.09472,4.438256 -4.83596,4.25905 -6.7207,7.046876 -3.08527,2.92002 -6.89821,0.02923 -8.10352,-3.207032 -5.75364,-7.949581 -15.212822,-15.393898 -25.542969,-12.158203 -10.810796,1.288986 -24.950062,1.19929 -31.132812,12.025391 -6.687076,12.335398 3.168902,24.96182 1.564453,37.820312 -0.364196,10.998274 -2.94915,21.886504 -3.509766,32.779294 -11.710034,3.14409 -25.343639,1.9705 -35.40039,9.58789 -8.3675261,8.41927 -9.0096216,20.88151 -13.7109379,31.34961 -2.0063848,10.61576 5.8039501,19.09129 12.9179689,25.6875 6.954701,8.55017 15.490061,19.30867 27.85962,19.38916 5.229902,-1.91084 15.391909,-10.47995 -0.695558,-22.76025 -5.684089,-6.433 -11.368287,-12.86592 -17.054687,-19.29688 2.082361,-5.67759 3.970876,-11.42663 6.197266,-17.05078 12.610357,-3.78071 27.832744,-1.72943 37.884765,-11.61132 8.165921,-11.16549 4.421176,-25.81212 7.707031,-38.505864 1.61724,-12.517596 1.08741,-25.245362 -3.666015,-37.06836 5.302455,4.394611 11.354961,-2.421934 16.613281,1.353516 5.84264,8.913842 15.30434,19.853959 27.2207,16.783203 10.43579,-3.249113 20.13972,-9.424045 28.08985,-16.701172 5.94952,-8.984027 3.0389,-20.763587 -2.44727,-29.222656 11.26242,0.03213 22.14392,-3.192087 33.25977,-4.5 5.5985,12.923983 6.29242,28.537166 16.24609,39.191406 9.23299,7.238473 20.83529,2.67096 30.84742,0.460679 8.25141,-1.621269 17.46703,-5.286722 20.36742,-13.997788 11.36077,2.989299 24.61136,10.142845 35.54297,2.048828 2.13249,-1.405446 5.05765,-6.077414 6.86733,-4.753161 5.11672,12.076343 6.95081,28.469968 20.38773,34.498644 8.10556,3.558417 15.71636,8.704051 24.25861,10.883423 9.46001,0.128949 16.11838,-13.370014 7.84571,-19.705078 -7.56144,-7.571496 -22.0948,-6.753983 -25.75586,-18.169922 -5.22431,-11.694204 -6.10179,-27.480839 -18.39063,-34.416016 -9.86884,-4.625721 -23.33262,0.463712 -26.87695,10.980469 -9.03771,2.523327 -16.69426,-5.718711 -25.78125,-4.779297 -8.69818,-0.308957 -16.63671,5.589321 -19.44531,13.56836 -3.09115,2.355573 -7.43266,0.804424 -10.62695,3.226562 -3.10066,1.751324 -6.65482,-0.529958 -6.72461,-3.970703 C 201.40612,26.631568 200.69212,11.393321 189.6543,3.1074219 186.53497,1.2165426 182.8786,0.18533058 179.22461,0.29296875 Z"
       inkscape:connector-curvature="0"
       sodipodi:nodetypes="ccccccccccccccccccccccccccccccccccccccccccccccccccccccccccccccccccccccccccccccc" />
  </g>
  <g
     id="g3758"
     transform="matrix(0.75146526,0,0,0.75146526,-427.97811,-342.26494)" />
  <g
     id="g3760"
     transform="matrix(0.75146526,0,0,0.75146526,-427.97811,-342.26494)" />
  <g
     id="g3762"
     transform="matrix(0.75146526,0,0,0.75146526,-427.97811,-342.26494)" />
  <g
     id="g3764"
     transform="matrix(0.75146526,0,0,0.75146526,-427.97811,-342.26494)" />
  <g
     id="g3766"
     transform="matrix(0.75146526,0,0,0.75146526,-427.97811,-342.26494)" />
  <g
     id="g3768"
     transform="matrix(0.75146526,0,0,0.75146526,-427.97811,-342.26494)" />
  <g
     id="g3770"
     transform="matrix(0.75146526,0,0,0.75146526,-427.97811,-342.26494)" />
  <g
     id="g3772"
     transform="matrix(0.75146526,0,0,0.75146526,-427.97811,-342.26494)" />
  <g
     id="g3774"
     transform="matrix(0.75146526,0,0,0.75146526,-427.97811,-342.26494)" />
  <g
     id="g3776"
     transform="matrix(0.75146526,0,0,0.75146526,-427.97811,-342.26494)" />
  <g
     id="g3778"
     transform="matrix(0.75146526,0,0,0.75146526,-427.97811,-342.26494)" />
  <g
     id="g3780"
     transform="matrix(0.75146526,0,0,0.75146526,-427.97811,-342.26494)" />
  <g
     id="g3782"
     transform="matrix(0.75146526,0,0,0.75146526,-427.97811,-342.26494)" />
  <g
     id="g3784"
     transform="matrix(0.75146526,0,0,0.75146526,-427.97811,-342.26494)" />
  <g
     id="g3786"
     transform="matrix(0.75146526,0,0,0.75146526,-427.97811,-342.26494)" />
  <style
     id="style5496"
     type="text/css">
	.st0{fill:#039be5;}
	.st1{fill:#FFFFFF;stroke:#D3D3D3;stroke-width:4;stroke-miterlimit:10;}
	.st2{fill:#EBEBED;}
	.st3{fill:#00D1B2;}
</style>
</svg>
