<?xml version="1.0" encoding="UTF-8" standalone="no"?>
<svg
   xmlns:dc="http://purl.org/dc/elements/1.1/"
   xmlns:cc="http://creativecommons.org/ns#"
   xmlns:rdf="http://www.w3.org/1999/02/22-rdf-syntax-ns#"
   xmlns:svg="http://www.w3.org/2000/svg"
   xmlns="http://www.w3.org/2000/svg"
   xmlns:sodipodi="http://sodipodi.sourceforge.net/DTD/sodipodi-0.dtd"
   xmlns:inkscape="http://www.inkscape.org/namespaces/inkscape"
   height="512pt"
   viewBox="0 0 512 512"
   width="512pt"
   version="1.1"
   id="svg10"
   sodipodi:docname="dashboard.svg"
   inkscape:version="0.92.3 (2405546, 2018-03-11)">
  <metadata
     id="metadata16">
    <rdf:RDF>
      <cc:Work
         rdf:about="">
        <dc:format>image/svg+xml</dc:format>
        <dc:type
           rdf:resource="http://purl.org/dc/dcmitype/StillImage" />
      </cc:Work>
    </rdf:RDF>
  </metadata>
  <defs
     id="defs14" />
  <sodipodi:namedview
     pagecolor="#ffffff"
     bordercolor="#666666"
     borderopacity="1"
     objecttolerance="10"
     gridtolerance="10"
     guidetolerance="10"
     inkscape:pageopacity="0"
     inkscape:pageshadow="2"
     inkscape:window-width="1918"
     inkscape:window-height="1055"
     id="namedview12"
     showgrid="false"
     inkscape:zoom="0.69140625"
     inkscape:cx="159.83194"
     inkscape:cy="385.14036"
     inkscape:window-x="0"
     inkscape:window-y="0"
     inkscape:window-maximized="1"
     inkscape:current-layer="svg10" />
  <path
     d="M 196.07095,0.4350833 C 139.64974,1.0480121 83.180344,-0.07649929 26.788246,1.0249811 9.3383531,3.9945231 -2.4249588,22.620407 0.61316511,39.8262 c 0.45079609,32.999007 -1.11473195,66.17211 0.88345849,99.04692 3.9357971,16.51534 21.9528354,26.9401 38.3433344,24.14114 54.843877,-0.50758 109.780642,1.14917 164.563542,-0.89516 16.57747,-3.97767 26.9368,-21.99292 24.12878,-38.3333 C 228.00124,90.596262 229.82757,57.178772 227.4915,24.150978 223.90127,10.613536 210.24485,0.18793431 196.07095,0.4350833 Z M 36.132628,20.881544 c 54.552078,0.741833 109.139862,-0.57261 163.689672,0.651888 9.11146,2.656792 9.03271,13.794943 8.25456,21.436289 -0.48101,30.713048 1.01497,61.528799 -0.78786,92.176039 -3.59925,9.15369 -15.02429,7.74734 -22.91003,7.32389 -51.75263,-0.15301 -103.562955,0.74095 -155.279125,-0.46908 -9.361583,-2.97585 -8.637187,-14.56954 -8.019091,-22.39005 0.636767,-30.587575 -1.386844,-61.411047 1.062296,-91.858165 2.290806,-5.461132 8.564851,-7.094503 13.989578,-6.870811 z"
     id="path2"
     inkscape:connector-curvature="0"
     style="stroke-width:1.02382278" />
  <path
     d="m 196.07095,218.83927 c -56.62135,0.70775 -113.300615,-0.65327 -169.8866,0.70988 -17.3086906,3.40372 -28.465137,21.6608 -25.59099997,38.7153 0.34828921,76.22035 -0.75437955,152.49419 0.58932777,228.68042 3.2577348,17.24104 21.7051032,28.42805 38.6572802,25.53289 54.850676,-0.50754 109.793442,1.15047 164.583542,-0.89716 16.55816,-3.94393 26.93189,-22.09451 24.12925,-38.34934 -0.33709,-76.18354 0.73185,-152.4166 -0.57133,-228.56845 -2.72441,-14.50629 -17.00041,-26.10559 -31.91047,-25.82354 z M 35.864675,239.21175 c 54.627852,0.91944 109.313185,-0.52915 163.947615,0.73588 8.77609,2.51094 9.12337,13.32733 8.3254,20.7914 -0.45931,74.371 0.65591,148.79805 -0.57874,223.13838 -2.70698,9.01812 -13.79782,8.89498 -21.39229,8.13859 -52.51731,-0.46618 -105.169069,0.95914 -157.602721,-0.74188 -8.849185,-3.3131 -8.037659,-14.49684 -7.498703,-22.15216 0.31858,-73.82394 -0.661403,-147.69034 0.513911,-221.48767 1.59907,-6.32624 8.450502,-8.54787 14.285528,-8.42254 z"
     id="path4"
     inkscape:connector-curvature="0"
     style="stroke-width:1.02382278" />
  <path
     d="m 480.03179,349.89459 c -56.63646,0.69642 -113.33254,-0.65876 -169.93258,0.70588 -17.15208,3.32698 -28.58683,21.77653 -25.5432,38.69324 0.44772,33.02487 -1.13746,66.23436 0.89945,99.12691 3.94963,16.48847 21.98556,26.82287 38.32937,24.05948 54.5996,-0.40941 109.26525,0.93431 163.82165,-0.72352 16.91154,-3.4878 27.76951,-22.07897 24.86531,-38.50527 -0.53142,-33.17639 1.28796,-66.57375 -1.02944,-99.59483 -3.57711,-13.52424 -17.23924,-24.0177 -31.41056,-23.76189 z m -159.95631,20.45046 c 54.55145,0.74336 109.13863,-0.57549 163.68766,0.6539 8.92189,2.58313 9.09235,13.62735 8.28857,21.17832 -0.57326,30.79772 1.00802,61.70116 -0.82386,92.434 -3.59721,9.15033 -15.01733,7.7457 -22.90003,7.32189 -51.75195,-0.15012 -103.56158,0.73784 -155.27712,-0.46707 -9.3716,-2.9667 -8.64624,-14.56058 -8.03111,-22.38407 0.63492,-30.58692 -1.38574,-61.40973 1.06032,-91.85615 2.2852,-5.46993 8.56695,-7.10491 13.99557,-6.88082 z"
     id="path6"
     inkscape:connector-curvature="0"
     style="stroke-width:1.02382278" />
  <path
     d="M 479.9498,0.43308355 C 423.32595,1.1358905 366.63594,-0.24885624 310.05121,1.1549587 c -17.21319,3.4071591 -28.44359,21.7138423 -25.519,38.6912973 0.35541,76.234564 -0.76909,152.526364 0.60132,228.724414 3.31555,17.21716 21.6228,28.37849 38.6513,25.49523 54.60094,-0.40939 109.26792,0.93427 163.82565,-0.72351 16.94474,-3.54971 27.69983,-21.95218 24.88112,-38.52933 -0.32902,-76.15922 0.71465,-152.36491 -0.55733,-228.494456 C 509.18984,11.618276 494.85151,0.15135816 479.9498,0.43308355 Z M 319.76553,20.799559 c 54.64454,0.916139 109.34662,-0.53263 163.99761,0.735872 8.76828,2.515919 9.1081,13.324216 8.31346,20.783408 -0.47722,74.402931 0.6924,148.867841 -0.60678,223.236351 -2.96274,9.37198 -14.55728,8.63802 -22.37612,8.04221 -52.17603,-0.45087 -104.48647,0.95416 -156.57891,-0.73547 -8.85775,-3.30611 -8.05293,-14.49945 -7.51071,-22.15817 0.31991,-73.82709 -0.66406,-147.69803 0.51592,-221.497658 1.57656,-6.2777 8.45268,-8.542689 14.24553,-8.406543 z"
     id="path8"
     inkscape:connector-curvature="0"
     style="stroke-width:1.02382278" />
</svg>
