<?xml version="1.0" encoding="UTF-8" standalone="no"?>
<svg
   xmlns:dc="http://purl.org/dc/elements/1.1/"
   xmlns:cc="http://creativecommons.org/ns#"
   xmlns:rdf="http://www.w3.org/1999/02/22-rdf-syntax-ns#"
   xmlns:svg="http://www.w3.org/2000/svg"
   xmlns="http://www.w3.org/2000/svg"
   xmlns:sodipodi="http://sodipodi.sourceforge.net/DTD/sodipodi-0.dtd"
   xmlns:inkscape="http://www.inkscape.org/namespaces/inkscape"
   id="Capa_1"
   enable-background="new 0 0 512 512"
   height="512"
   viewBox="0 0 512 512"
   width="512"
   version="1.1"
   sodipodi:docname="file-received.svg.2019_12_19_12_04_06.0.svg"
   inkscape:version="0.92.3 (2405546, 2018-03-11)">
  <metadata
     id="metadata2049">
    <rdf:RDF>
      <cc:Work
         rdf:about="">
        <dc:format>image/svg+xml</dc:format>
        <dc:type
           rdf:resource="http://purl.org/dc/dcmitype/StillImage" />
        <dc:title />
      </cc:Work>
    </rdf:RDF>
  </metadata>
  <defs
     id="defs2047">
	

		
	</defs>
  <sodipodi:namedview
     pagecolor="#ffffff"
     bordercolor="#666666"
     borderopacity="1"
     objecttolerance="10"
     gridtolerance="10"
     guidetolerance="10"
     inkscape:pageopacity="0"
     inkscape:pageshadow="2"
     inkscape:window-width="1918"
     inkscape:window-height="1055"
     id="namedview2045"
     showgrid="false"
     inkscape:zoom="0.921875"
     inkscape:cx="143.18644"
     inkscape:cy="217.57235"
     inkscape:window-x="0"
     inkscape:window-y="0"
     inkscape:window-maximized="1"
     inkscape:current-layer="Capa_1" />
  <g
     id="g2775"
     transform="matrix(0.41934197,0,0,0.41934197,537.94915,272.18644)" />
  <g
     id="g2777"
     transform="matrix(0.41934197,0,0,0.41934197,537.94915,272.18644)" />
  <g
     id="g2779"
     transform="matrix(0.41934197,0,0,0.41934197,537.94915,272.18644)" />
  <g
     id="g2781"
     transform="matrix(0.41934197,0,0,0.41934197,537.94915,272.18644)" />
  <g
     id="g2783"
     transform="matrix(0.41934197,0,0,0.41934197,537.94915,272.18644)" />
  <g
     id="g2785"
     transform="matrix(0.41934197,0,0,0.41934197,537.94915,272.18644)" />
  <g
     id="g2787"
     transform="matrix(0.41934197,0,0,0.41934197,537.94915,272.18644)" />
  <g
     id="g2789"
     transform="matrix(0.41934197,0,0,0.41934197,537.94915,272.18644)" />
  <g
     id="g2791"
     transform="matrix(0.41934197,0,0,0.41934197,537.94915,272.18644)" />
  <g
     id="g2793"
     transform="matrix(0.41934197,0,0,0.41934197,537.94915,272.18644)" />
  <g
     id="g2795"
     transform="matrix(0.41934197,0,0,0.41934197,537.94915,272.18644)" />
  <g
     id="g2797"
     transform="matrix(0.41934197,0,0,0.41934197,537.94915,272.18644)" />
  <g
     id="g2799"
     transform="matrix(0.41934197,0,0,0.41934197,537.94915,272.18644)" />
  <g
     id="g2801"
     transform="matrix(0.41934197,0,0,0.41934197,537.94915,272.18644)" />
  <g
     id="g2803"
     transform="matrix(0.41934197,0,0,0.41934197,537.94915,272.18644)" />
  <g
     id="g1296"
     transform="matrix(0.65018239,0,0,0.65018239,524.75416,197.62185)">
</g>
  <g
     id="g1298"
     transform="matrix(0.65018239,0,0,0.65018239,524.75416,197.62185)">
</g>
  <g
     id="g1300"
     transform="matrix(0.65018239,0,0,0.65018239,524.75416,197.62185)">
</g>
  <g
     id="g1302"
     transform="matrix(0.65018239,0,0,0.65018239,524.75416,197.62185)">
</g>
  <g
     id="g1304"
     transform="matrix(0.65018239,0,0,0.65018239,524.75416,197.62185)">
</g>
  <g
     id="g1306"
     transform="matrix(0.65018239,0,0,0.65018239,524.75416,197.62185)">
</g>
  <g
     id="g1308"
     transform="matrix(0.65018239,0,0,0.65018239,524.75416,197.62185)">
</g>
  <g
     id="g1310"
     transform="matrix(0.65018239,0,0,0.65018239,524.75416,197.62185)">
</g>
  <g
     id="g1312"
     transform="matrix(0.65018239,0,0,0.65018239,524.75416,197.62185)">
</g>
  <g
     id="g1314"
     transform="matrix(0.65018239,0,0,0.65018239,524.75416,197.62185)">
</g>
  <g
     id="g1316"
     transform="matrix(0.65018239,0,0,0.65018239,524.75416,197.62185)">
</g>
  <g
     id="g1318"
     transform="matrix(0.65018239,0,0,0.65018239,524.75416,197.62185)">
</g>
  <g
     id="g1320"
     transform="matrix(0.65018239,0,0,0.65018239,524.75416,197.62185)">
</g>
  <g
     id="g1322"
     transform="matrix(0.65018239,0,0,0.65018239,524.75416,197.62185)">
</g>
  <g
     id="g1324"
     transform="matrix(0.65018239,0,0,0.65018239,524.75416,197.62185)">
</g>
  <g
     id="g1085"
     transform="matrix(0.5485946,0,0,0.5485946,674.78059,142.67849)">
</g>
  <g
     id="g1087"
     transform="matrix(0.5485946,0,0,0.5485946,674.78059,142.67849)">
</g>
  <g
     id="g1089"
     transform="matrix(0.5485946,0,0,0.5485946,674.78059,142.67849)">
</g>
  <g
     id="g1091"
     transform="matrix(0.5485946,0,0,0.5485946,674.78059,142.67849)">
</g>
  <g
     id="g1093"
     transform="matrix(0.5485946,0,0,0.5485946,674.78059,142.67849)">
</g>
  <g
     id="g1095"
     transform="matrix(0.5485946,0,0,0.5485946,674.78059,142.67849)">
</g>
  <g
     id="g1097"
     transform="matrix(0.5485946,0,0,0.5485946,674.78059,142.67849)">
</g>
  <g
     id="g1099"
     transform="matrix(0.5485946,0,0,0.5485946,674.78059,142.67849)">
</g>
  <g
     id="g1101"
     transform="matrix(0.5485946,0,0,0.5485946,674.78059,142.67849)">
</g>
  <g
     id="g1103"
     transform="matrix(0.5485946,0,0,0.5485946,674.78059,142.67849)">
</g>
  <g
     id="g1105"
     transform="matrix(0.5485946,0,0,0.5485946,674.78059,142.67849)">
</g>
  <g
     id="g1107"
     transform="matrix(0.5485946,0,0,0.5485946,674.78059,142.67849)">
</g>
  <g
     id="g1109"
     transform="matrix(0.5485946,0,0,0.5485946,674.78059,142.67849)">
</g>
  <g
     id="g1111"
     transform="matrix(0.5485946,0,0,0.5485946,674.78059,142.67849)">
</g>
  <g
     id="g1113"
     transform="matrix(0.5485946,0,0,0.5485946,674.78059,142.67849)">
</g>
  <g
     id="g2087"
     transform="translate(-20)">
    <g
       transform="matrix(0.01901591,0.51128271,-0.51128271,0.01901591,505.5276,225.49907)"
       id="g2036">
      <g
         id="g1979">
	<g
   id="g1977">
		<path
   d="M 287.64,575.279 C 446.5,575.279 575.279,446.5 575.279,287.64 575.279,128.78 446.5,0 287.64,0 128.78,0 0,128.78 0,287.641 0,446.5 128.78,575.279 287.64,575.279 Z m 42.901,-428.173 c 5.787,-0.288 10.484,-4.954 10.484,-10.747 v -35.312 c 0,-5.792 3.32,-7.169 7.416,-3.072 L 502.13,251.663 c 4.098,4.098 4.098,10.738 0,14.835 l -153.689,153.69 c -4.096,4.098 -7.416,2.721 -7.416,-3.072 v -31.814 c 0,-5.793 -4.33,-12.316 -9.783,-14.27 -36.117,-12.941 -163.655,-49.486 -236.945,48.014 -3.479,4.631 -6.08,3.863 -5.848,-1.928 C 93.786,284.7 199.264,153.603 330.541,147.106 Z m -494.75488,629.41356 7.97523,-214.43085 c 0.36886,-9.91736 -7.37053,-18.25218 -17.28549,-18.62095 -9.91496,-0.36876 -18.2521,7.36814 -18.62095,17.2855 l -7.97523,214.43084 c -0.36886,9.91737 7.37053,18.25219 17.28549,18.62095 9.91496,0.36877 18.2521,-7.36813 18.62095,-17.28549 z m -302.83504,13.83664 c -1.94985,52.42578 39.11862,96.66964 91.54681,98.61958 l 9.77344,0.3635 c -6.5e-4,-0.12444 -8.4e-4,-0.22986 -0.002,-0.35534 0.006,-0.045 0.014,-0.0918 0.0204,-0.13676 l -0.0183,0.4921 81.52931,3.03229 5.47039,0.20345 421.81459,15.68837 291.813,8.84774 c 28.30867,0.85872 54.74802,-10.47569 72.53396,-31.09061 14.03335,-16.26477 22.1978,-37.06476 22.99746,-58.56553 l 15.42078,-414.61995 c 0.36885,-9.91734 -7.36965,-18.25125 -17.28461,-18.62001 -9.91496,-0.36877 -18.25117,7.36729 -18.62002,17.28463 L 494.52541,826.1196 c -0.50489,13.57502 -5.44922,26.17083 -14.29715,36.42723 -10.68144,12.37674 -26.80497,19.17912 -44.2384,18.65058 l -291.69078,-8.84702 -443.68469,-16.50177 c 1.7e-4,0.0141 -0.002,0.0279 -0.002,0.042 l -63.90506,-2.37679 c 0.004,-0.0136 0.005,-0.0282 0.009,-0.0417 l -10.88355,-0.40479 c -32.62937,-1.21357 -58.18745,-28.74624 -56.97388,-61.37561 l 11.50145,-309.24069 c 2.18355,-58.70941 51.72473,-104.69749 110.43415,-102.51405 l 75.73085,2.81662 c 52.44017,1.95039 96.6928,-39.12485 98.64318,-91.56502 l 2.81677,-75.73468 c 2.17901,-58.58732 51.520695,-104.49629 110.067639,-102.52004 L 186.679,120.6932 c 0.0177,-0.44121 0.0343,-0.8825 0.0531,-1.32359 -0.11199,-1.20639 -0.21473,-2.32924 -0.34049,-3.78686 -0.97946,-11.35304 -0.64011,-21.62782 0.73044,-30.835011 L -52.879697,75.817515 C -116.86736,73.43765 -177.95159,96.115589 -224.87636,139.67504 l -152.9999,142.02711 c -46.92487,43.56183 -74.0776,102.79174 -76.45756,166.7818 z m 66.07129,-416.07103 c 11.04359,-24.75614 27.08638,-47.25188 47.55195,-66.24739 l 152.99573,-142.01953 c 20.46318,-18.9956 44.09334,-33.32525 69.59664,-42.49957 -21.9184,24.02808 -35.78475,55.62936 -37.08539,90.59983 l -2.81677,75.73469 c -1.2141,32.64375 -28.76168,58.206 -61.40302,56.99196 l -75.73086,-2.81662 c -34.97047,-1.30064 -67.51613,10.18612 -93.10828,30.25663 z M 61.468951,226.76264 40.226869,797.90066 c -0.360897,9.70349 7.211593,17.85859 16.912741,18.2194 9.701147,0.36081 17.858477,-7.20925 18.219374,-16.91275 L 96.601066,228.06929 c 0.360898,-9.70349 -7.211574,-17.85856 -16.912721,-18.21937 -9.701148,-0.36081 -17.858496,7.20923 -18.219394,16.91272 z m -99.183507,-3.68889 -21.242082,571.13802 c -0.360898,9.70349 7.211573,17.85859 16.912721,18.2194 9.701147,0.36081 17.858496,-7.20925 18.219394,-16.91274 L -2.5824414,224.38041 c 0.3608976,-9.70349 -7.2115936,-17.85857 -16.9127406,-18.21938 -9.701148,-0.36081 -17.858476,7.20923 -18.219374,16.91272 z"
   id="path1975"
   inkscape:connector-curvature="0" />

	</g>

</g>
      <g
         id="g1981">
</g>
      <g
         id="g1983">
</g>
      <g
         id="g1985">
</g>
      <g
         id="g1987">
</g>
      <g
         id="g1989">
</g>
      <g
         id="g1991">
</g>
      <g
         id="g1993">
</g>
      <g
         id="g1995">
</g>
      <g
         id="g1997">
</g>
      <g
         id="g1999">
</g>
      <g
         id="g2001">
</g>
      <g
         id="g2003">
</g>
      <g
         id="g2005">
</g>
      <g
         id="g2007">
</g>
      <g
         id="g2009">
</g>
    </g>
  </g>
</svg>
