<?xml version="1.0" encoding="UTF-8" standalone="no"?>
<svg
   xmlns:dc="http://purl.org/dc/elements/1.1/"
   xmlns:cc="http://creativecommons.org/ns#"
   xmlns:rdf="http://www.w3.org/1999/02/22-rdf-syntax-ns#"
   xmlns:svg="http://www.w3.org/2000/svg"
   xmlns="http://www.w3.org/2000/svg"
   xmlns:sodipodi="http://sodipodi.sourceforge.net/DTD/sodipodi-0.dtd"
   xmlns:inkscape="http://www.inkscape.org/namespaces/inkscape"
   id="Capa_1"
   enable-background="new 0 0 512 512"
   height="512"
   viewBox="0 0 512 512"
   width="512"
   version="1.1"
   sodipodi:docname="file-cited.svg"
   inkscape:version="0.92.3 (2405546, 2018-03-11)">
  <metadata
     id="metadata1122">
    <rdf:RDF>
      <cc:Work
         rdf:about="">
        <dc:format>image/svg+xml</dc:format>
        <dc:type
           rdf:resource="http://purl.org/dc/dcmitype/StillImage" />
      </cc:Work>
    </rdf:RDF>
  </metadata>
  <defs
     id="defs1120" />
  <sodipodi:namedview
     pagecolor="#ffffff"
     bordercolor="#666666"
     borderopacity="1"
     objecttolerance="10"
     gridtolerance="10"
     guidetolerance="10"
     inkscape:pageopacity="0"
     inkscape:pageshadow="2"
     inkscape:window-width="1918"
     inkscape:window-height="1055"
     id="namedview1118"
     showgrid="false"
     inkscape:zoom="1"
     inkscape:cx="-177.70796"
     inkscape:cy="261.4974"
     inkscape:window-x="0"
     inkscape:window-y="0"
     inkscape:window-maximized="1"
     inkscape:current-layer="Capa_1" />
  <path
     d="M 92.56294,0 C 65.721464,0 43.881953,21.838288 43.881953,48.680994 v 5.002865 c 0.06361,-0.0027 0.117779,-0.0042 0.181914,-0.0072 0.02314,0.0024 0.04629,0.0048 0.06942,0.0072 h -0.251331 v 41.744006 2.800648 215.963417 l 1.024501,149.36785 c 0.09927,14.49006 6.397185,27.79295 17.275454,36.49458 8.582754,6.86572 19.372854,10.64486 30.381029,10.64486 h 212.28188 c 5.07758,0 9.19186,-4.11551 9.19186,-9.19187 0,-5.07636 -4.11428,-9.19187 -9.19186,-9.19187 H 92.56294 c -6.950274,0 -13.483817,-2.28747 -18.895989,-6.61623 C 67.135822,480.47337 63.351469,472.35877 63.29019,463.43531 L 62.265689,314.12969 V 86.968475 c -0.0072,3.52e-4 -0.01436,-3.46e-4 -0.02155,0 V 54.248776 c 0.007,0.0018 0.01457,0.0029 0.02155,0.0048 v -5.572569 c 0,-16.705914 13.591341,-30.297258 30.297251,-30.297258 h 158.32754 c 30.05863,0 54.51442,24.455845 54.51448,54.514478 v 38.773403 c 0,26.84884 21.84172,48.69297 48.69056,48.69297 h 38.77579 c 29.99613,0 54.40679,24.35375 54.50969,54.32537 v 247.31869 c 0,16.71204 -13.59134,30.30683 -30.29725,30.30683 h -71.11969 c -5.07756,0 -9.19185,4.11551 -9.19187,9.19187 0,5.07636 4.11431,9.19187 9.19187,9.19187 h 13.38566 1.08436 55.20865 1.44342 c 26.84148,0 48.67865,-21.84174 48.67859,-48.69057 l 0.005,-263.84012 c 0,-32.76104 -12.75658,-63.56081 -35.92009,-86.72431 L 354.32531,35.920096 C 331.16058,12.756589 300.36088,0 267.59861,0 Z m 213.98621,25.868884 c 12.86739,5.175635 24.67465,12.949006 34.7759,23.051482 l 75.52172,75.524114 c 10.10125,10.10125 17.87585,21.91096 23.05149,34.7759 -12.70194,-10.74958 -29.12241,-17.23953 -47.02695,-17.23953 h -38.77579 c -16.71327,0 -30.30684,-13.59719 -30.30683,-30.30923 V 72.898214 c 0,-17.904532 -6.49118,-34.326168 -17.23954,-47.02933 z"
     id="path1103"
     inkscape:connector-curvature="0"
     style="stroke-width:1.22558236" />
  <path
     id="path1107"
     style="stroke-width:1.27278006;fill:#00ff00"
     d="M 370.02505,294.28818 H 131.0997 c -4.05928,0 -7.34845,5.55205 -7.34845,12.40035 0,6.84829 3.28917,12.40035 7.34845,12.40035 h 238.92535 c 4.05927,0 7.34843,-5.55206 7.34843,-12.40035 0,-6.8483 -3.28916,-12.40035 -7.34843,-12.40035 z m 0,-58.98598 H 131.0997 c -4.05928,0 -7.34845,5.55205 -7.34845,12.40034 0,6.84831 3.28917,12.40035 7.34845,12.40035 h 238.92535 c 4.05927,0 7.34843,-5.55204 7.34843,-12.40035 0,-6.84829 -3.28916,-12.40034 -7.34843,-12.40034 z M 106,205 H 397 V 348 H 106 Z"
     inkscape:connector-curvature="0" />
  <path
     inkscape:connector-curvature="0"
     id="path1109"
     d="M 389.04042,385.90952 H 115.6139 c -4.64546,0 -8.40958,4.11551 -8.40958,9.19187 0,5.07636 3.76412,9.19187 8.40958,9.19187 h 273.42652 c 4.64545,0 8.40957,-4.11551 8.40957,-9.19187 0,-5.07636 -3.76412,-9.19187 -8.40957,-9.19187 z"
     style="stroke-width:1.17226958" />
  <path
     inkscape:connector-curvature="0"
     id="path1113"
     d="m 116.5356,154.57045 h 99.50762 c 4.6022,0 8.33128,-4.11551 8.33128,-9.19187 0,-5.07636 -3.72908,-9.19187 -8.33128,-9.19187 H 116.5356 c -4.6022,0 -8.33128,4.11551 -8.33128,9.19187 0,5.07636 3.72908,9.19187 8.33128,9.19187 z"
     style="stroke-width:1.16679978" />
</svg>
