<?xml version="1.0" encoding="UTF-8" standalone="no"?>
<!-- Generator: Adobe Illustrator 19.0.0, SVG Export Plug-In . SVG Version: 6.00 Build 0)  -->

<svg
   xmlns:dc="http://purl.org/dc/elements/1.1/"
   xmlns:cc="http://creativecommons.org/ns#"
   xmlns:rdf="http://www.w3.org/1999/02/22-rdf-syntax-ns#"
   xmlns:svg="http://www.w3.org/2000/svg"
   xmlns="http://www.w3.org/2000/svg"
   xmlns:sodipodi="http://sodipodi.sourceforge.net/DTD/sodipodi-0.dtd"
   xmlns:inkscape="http://www.inkscape.org/namespaces/inkscape"
   version="1.1"
   id="Capa_1"
   x="0px"
   y="0px"
   viewBox="0 0 512 512"
   style="enable-background:new 0 0 512 512;"
   xml:space="preserve"
   sodipodi:docname="icon-vimbo.svg"
   inkscape:version="0.92.3 (2405546, 2018-03-11)"><metadata
   id="metadata57"><rdf:RDF><cc:Work
       rdf:about=""><dc:format>image/svg+xml</dc:format><dc:type
         rdf:resource="http://purl.org/dc/dcmitype/StillImage" /><dc:title></dc:title></cc:Work></rdf:RDF></metadata><defs
   id="defs55">
	

			
			
			
			
			
			
			
		</defs><sodipodi:namedview
   pagecolor="#ffffff"
   bordercolor="#666666"
   borderopacity="1"
   objecttolerance="10"
   gridtolerance="10"
   guidetolerance="10"
   inkscape:pageopacity="0"
   inkscape:pageshadow="2"
   inkscape:window-width="2558"
   inkscape:window-height="1055"
   id="namedview53"
   showgrid="false"
   inkscape:zoom="0.77783203"
   inkscape:cx="816.44631"
   inkscape:cy="271.07023"
   inkscape:window-x="0"
   inkscape:window-y="0"
   inkscape:window-maximized="1"
   inkscape:current-layer="g18" />
<g
   id="g18">
		
	<path
   id="path834"
   style="fill:none;fill-opacity:1;stroke:#000000;stroke-width:15.29840279;stroke-miterlimit:4;stroke-dasharray:none;stroke-opacity:1"
   d="m 193.66526,451.37231 c -2.37084,-0.2753 -3.82339,-0.65206 -6.1147,-1.58632 -4.56227,-1.86019 -1.16893,0.65569 -56.14571,-54.4053 L 11.303925,274.82568 c -3.4649878,-7.65324 -7.7321634,-14.99259 -0.0098,-27.0235 l 67.389426,-68.04927 c 0.871081,-1.15651 1.919857,-1.73114 3.170709,-2.36106 0.913468,-0.46002 2.563967,-1.09811 3.667755,-1.41798 6.89228,-1.9973 15.092605,-1.01494 20.866375,3.11191 0.7873,0.56275 21.55062,21.33112 46.36736,45.75134 l 45.30067,44.57684 -23.57236,22.52816 c -24.41802,23.33635 -22.5328,22.65478 -22.12917,24.83056 0.84074,4.53228 7.16982,9.39965 15.55883,11.96554 4.60513,1.40855 8.31685,1.93128 13.71377,1.93128 17.63751,0 33.05089,-8.70898 45.19395,-25.53583 l 2.08518,-2.88949 24.18004,24.17303 c 25.29219,25.28471 25.78812,25.81773 27.38253,29.42158 1.23135,2.78327 1.82414,5.30525 1.96251,8.35 0.15696,3.45304 -0.14431,5.61872 -1.21993,8.77049 -1.7349,5.08309 5.07244,-0.61022 -31.63897,36.17709 -19.66783,19.70848 -38.01271,37.77904 -39.1222,38.62145 -3.32489,2.52441 -7.43626,3.12797 -11.8064,3.62119 -2.37219,0.2677 -2.61764,0.26742 -4.97888,-0.006 z m 7e-4,7.4e-4 c -3.81261,-0.72801 -6.95439,-2.10667 -9.98829,-4.38287 C 181.08912,445.0484 13.003717,276.84132 11.502071,274.69027 5.8752498,266.63002 5.6835315,256.51054 11.003006,248.34914 c 0.8464,-1.2986 8.720617,-9.32224 33.929459,-34.57333 18.055004,-18.08527 33.456786,-33.33199 34.181404,-33.93716 0.724725,-0.60527 2.740326,-2.4468 2.740326,-2.4468 7.740043,-4.17492 17.055296,-3.27458 24.534135,1.69393 0.93405,0.62054 17.02748,16.53618 46.31627,45.80463 41.9039,41.87477 44.91589,44.83175 45.35175,44.52355 0.46052,-0.32563 39.2747,-38.76704 122.33061,-121.15578 75.50218,-74.895573 83.00068,-82.299604 84.45432,-83.39032 8.11403,-6.087871 19.49169,-6.134118 27.55517,-0.112002 2.33,1.740171 67.47899,67.079522 68.57329,68.773622 1.31997,2.04362 2.64951,5.02257 3.26779,7.32213 0.78268,2.91038 0.78578,8.28061 0.009,11.21285 -0.67663,2.54602 -2.51546,6.32523 -4.06277,8.35002 -0.65175,0.85289 -3.85066,4.18744 -7.10879,7.4101 -3.25804,3.22266 -34.69547,34.35592 -69.86095,69.185 -35.16538,34.82907 -80.0408,79.26095 -99.72291,98.73746 -19.68221,19.47651 -52.85551,52.44521 -73.71862,73.26372 -25.11336,25.05977 -38.40118,38.15439 -39.31858,38.74706 -2.1164,1.36714 -5.12706,2.69674 -7.34756,3.24486 -2.59124,0.63966 -7.10155,0.81681 -9.43773,0.3707 z"
   inkscape:connector-curvature="0" /></g>
<g
   id="g22">
</g>
<g
   id="g24">
</g>
<g
   id="g26">
</g>
<g
   id="g28">
</g>
<g
   id="g30">
</g>
<g
   id="g32">
</g>
<g
   id="g34">
</g>
<g
   id="g36">
</g>
<g
   id="g38">
</g>
<g
   id="g40">
</g>
<g
   id="g42">
</g>
<g
   id="g44">
</g>
<g
   id="g46">
</g>
<g
   id="g48">
</g>
<g
   id="g50">
</g>
</svg>