<?xml version="1.0" encoding="UTF-8" standalone="no"?>
<svg
   xmlns:dc="http://purl.org/dc/elements/1.1/"
   xmlns:cc="http://creativecommons.org/ns#"
   xmlns:rdf="http://www.w3.org/1999/02/22-rdf-syntax-ns#"
   xmlns:svg="http://www.w3.org/2000/svg"
   xmlns="http://www.w3.org/2000/svg"
   xmlns:sodipodi="http://sodipodi.sourceforge.net/DTD/sodipodi-0.dtd"
   xmlns:inkscape="http://www.inkscape.org/namespaces/inkscape"
   height="512pt"
   viewBox="-66 0 512 512.00022"
   width="512pt"
   version="1.1"
   id="svg20"
   sodipodi:docname="negotiation_op.svg"
   inkscape:version="0.92.3 (2405546, 2018-03-11)">
  <metadata
     id="metadata26">
    <rdf:RDF>
      <cc:Work
         rdf:about="">
        <dc:format>image/svg+xml</dc:format>
        <dc:type
           rdf:resource="http://purl.org/dc/dcmitype/StillImage" />
        <dc:title></dc:title>
      </cc:Work>
    </rdf:RDF>
  </metadata>
  <defs
     id="defs24" />
  <sodipodi:namedview
     pagecolor="#ffffff"
     bordercolor="#666666"
     borderopacity="1"
     objecttolerance="10"
     gridtolerance="10"
     guidetolerance="10"
     inkscape:pageopacity="0"
     inkscape:pageshadow="2"
     inkscape:window-width="2558"
     inkscape:window-height="1055"
     id="namedview22"
     showgrid="false"
     showguides="true"
     inkscape:guide-bbox="true"
     inkscape:zoom="0.69140625"
     inkscape:cx="308.76156"
     inkscape:cy="337.33571"
     inkscape:window-x="1366"
     inkscape:window-y="0"
     inkscape:window-maximized="1"
     inkscape:current-layer="svg20">
    <sodipodi:guide
       position="429.92091,281.11701"
       orientation="1,0"
       id="guide833"
       inkscape:locked="false" />
    <sodipodi:guide
       position="445.26153,277.66536"
       orientation="1,0"
       id="guide835"
       inkscape:locked="false" />
    <sodipodi:guide
       position="65.964671,242.76544"
       orientation="1,0"
       id="guide837"
       inkscape:locked="false" />
    <sodipodi:guide
       position="80.538262,208.24902"
       orientation="1,0"
       id="guide839"
       inkscape:locked="false" />
    <sodipodi:guide
       position="-283.93226,137.49155"
       orientation="1,0"
       id="guide841"
       inkscape:locked="false" />
    <sodipodi:guide
       position="-260.88135,395.1188"
       orientation="1,0"
       id="guide843"
       inkscape:locked="false" />
    <sodipodi:guide
       position="-245.42372,377.76286"
       orientation="1,0"
       id="guide845"
       inkscape:locked="false" />
    <sodipodi:guide
       position="-164.67516,370.57064"
       orientation="1,0"
       id="guide847"
       inkscape:locked="false" />
    <sodipodi:guide
       position="-149.9661,383.18659"
       orientation="1,0"
       id="guide849"
       inkscape:locked="false" />
    <sodipodi:guide
       position="-78.915252,384.27134"
       orientation="1,0"
       id="guide851"
       inkscape:locked="false" />
    <sodipodi:guide
       position="-178.44067,389.1527"
       orientation="0,1"
       id="guide853"
       inkscape:locked="false" />
    <sodipodi:guide
       position="-178.98305,403.2544"
       orientation="0,1"
       id="guide855"
       inkscape:locked="false" />
    <sodipodi:guide
       position="-199.32203,133.96616"
       orientation="0,1"
       id="guide877"
       inkscape:locked="false" />
    <sodipodi:guide
       position="-219.9322,140.20345"
       orientation="0,1"
       id="guide879"
       inkscape:locked="false" />
    <sodipodi:guide
       position="-226.16949,127.45768"
       orientation="0,1"
       id="guide881"
       inkscape:locked="false" />
    <sodipodi:guide
       position="112.81358,638.91537"
       orientation="1,0"
       id="guide1015"
       inkscape:locked="false" />
    <sodipodi:guide
       position="395.93219,301.55944"
       orientation="1,0"
       id="guide1017"
       inkscape:locked="false" />
    <sodipodi:guide
       position="-487.05083,331.93233"
       orientation="0,1"
       id="guide1192"
       inkscape:locked="false" />
    <sodipodi:guide
       position="-520.67795,43.389848"
       orientation="0,1"
       id="guide1194"
       inkscape:locked="false" />
  </sodipodi:namedview>
  <g
     id="g1481">
    <path
       style="stroke-width:1.16878903"
       sodipodi:nodetypes="sssssssssssssss"
       inkscape:connector-curvature="0"
       id="path2"
       d="M 371.53587,512.25653 H 7.5676773 c -21.8006533,0 -39.4683643,-17.73739 -39.5379403,-39.53795 l -0.448248,-140.45291 c -0.01547,-4.84862 4.379215,-7.43487 9.227862,-7.43487 4.853214,0 9.248003,3.48274 9.23243,8.33137 l -0.44825,139.55641 c -0.03892,12.117 9.8570922,21.97416 21.9741463,21.97416 H 371.53587 c 12.11249,0 21.96959,-9.8571 21.96959,-21.97416 V 183.23292 c 0,-4.84864 4.83202,-6.98662 9.68067,-6.98662 4.84865,0 9.2551,3.93102 9.23243,8.77963 l -1.34474,287.69265 c -0.10191,21.80043 -17.73728,39.53795 -39.53795,39.53795 z" />
    <path
       style="stroke-width:1.16878903"
       inkscape:connector-curvature="0"
       id="path4"
       d="m 371.53587,-0.23005309 c -6.11787,0 -12.24031,0 -18.3582,0 -24.74545,0 -49.49548,0 -74.2455,0 -32.54802,0 -65.09149,0 -97.63953,0 -28.08289,0 -56.16579,0 -84.248685,0 -8.533072,0 -17.066146,0 -25.599219,0 -2.218872,0 -4.446877,-0.0593511 -6.661184,0 C 57.720597,-0.04286451 54.310107,4.326396 49.155565,8.6728301 43.996457,13.023828 38.83735,17.374829 33.678241,21.725828 23.11805,30.633279 12.557859,39.540728 1.9976684,48.448185 -5.1657307,54.48844 -12.329129,60.528707 -19.487961,66.568973 c -6.291373,5.309774 -12.354466,9.852529 -12.486867,18.513443 -0.05479,3.593103 0,7.186217 0,10.774773 v 36.953811 99.08227 63.21961 1.24183 c 0,4.85322 3.935532,8.78419 8.784179,8.78419 4.848649,0 8.78418,-3.93097 8.78418,-8.78419 V 89.963021 h 71.474187 c 8.067384,0 14.637256,-6.565309 14.637256,-14.632689 V 17.333738 H 371.53132 c 12.11704,0 21.97414,9.857092 21.97414,21.974143 V 141.77781 c 0,4.85321 3.93097,8.78417 8.77962,8.78417 4.85321,0 8.78417,-3.93096 8.78417,-8.78417 V 39.307881 c 0.005,-21.805217 -17.73271,-39.53793409 -39.53338,-39.53793409 z M 54.14118,72.39922 H 0.84714055 L 54.14118,27.451068 Z m 0,0" />
    <path
       style="stroke-width:1.16878903"
       inkscape:connector-curvature="0"
       id="path6"
       d="m 54.981086,150.10393 h 69.899064 c 4.84864,0 8.78417,-3.93097 8.78417,-8.77962 0,-4.85321 -3.93553,-8.78417 -8.78417,-8.78417 H 54.981086 c -4.848651,0 -8.779615,3.93096 -8.779615,8.78417 0,4.84865 3.930964,8.77962 8.779615,8.77962 z m 0,0" />
    <path
       style="stroke-width:1.16878903"
       inkscape:connector-curvature="0"
       id="path8"
       d="m 236.31688,132.54014 h -71.32353 c -4.85321,0 -8.78419,3.93096 -8.78419,8.78417 0,4.84865 3.93098,8.77962 8.78419,8.77962 h 71.32353 c 4.84863,0 8.78417,-3.93097 8.78417,-8.77962 0,-4.85321 -3.93097,-8.78417 -8.78417,-8.78417 z m 0,0" />
    <path
       style="stroke-width:1.16878903"
       inkscape:connector-curvature="0"
       id="path10"
       d="m 275.85481,150.10393 h 47.7286 c 4.85321,0 8.78417,-3.93097 8.78417,-8.77962 0,-4.85321 -3.93096,-8.78417 -8.78417,-8.78417 h -47.7286 c -4.84865,0 -8.77962,3.93096 -8.77962,8.78417 0,4.84865 3.93097,8.77962 8.77962,8.77962 z m 0,0" />
    <path
       style="stroke-width:4.45343113"
       id="path1358"
       d="m 284.72582,264.13338 h -8.90686 v -8.90686 c 0,-4.92104 -3.98582,-8.90687 -8.90686,-8.90687 h -8.90687 V 210.6922 h 4.45343 c 2.4583,0 4.45344,-1.99513 4.45344,-4.45343 v -8.90686 c 0,-2.45829 -1.99514,-4.45343 -4.45344,-4.45343 h -54.75493 c 0.84615,2.82348 1.31376,5.81173 1.31376,8.90686 0,3.09514 -0.46761,6.08339 -1.31376,8.90686 h 32.48778 v 35.62745 h -8.90686 c -4.92105,0 -8.90687,3.98583 -8.90687,8.90687 v 8.90686 h -8.90686 c -19.67525,0 -35.62745,15.95219 -35.62745,35.62745 v 8.90686 c 0,18.16555 13.60524,33.12462 31.17402,35.32017 v -17.50644 c 0,-0.20931 0.0534,-0.40526 0.0623,-0.61012 -7.70444,-1.96397 -13.42264,-8.88905 -13.42264,-17.20361 v -8.90686 c 0,-9.83763 7.97609,-17.81372 17.81372,-17.81372 h 26.72059 v 8.90686 c 0,4.92104 3.98582,8.90686 8.90686,8.90686 4.92104,0 8.90686,-3.98582 8.90686,-8.90686 v -8.90686 h 26.72059 c 9.83763,0 17.81373,7.97609 17.81373,17.81372 v 8.90686 c 0,8.31456 -5.71821,15.23964 -13.42264,17.20361 0.009,0.20486 0.0623,0.40081 0.0623,0.61012 v 17.50644 c 17.56879,-2.19555 31.17402,-17.15462 31.17402,-35.32017 v -8.90686 c 0,-19.67526 -15.95219,-35.62745 -35.62745,-35.62745 z"
       inkscape:connector-curvature="0" />
    <path
       style="stroke-width:4.45343113"
       id="path1360"
       d="m 262.45866,339.84171 v -17.81372 h -26.72058 v 17.81372 h 8.90686 v -8.90686 h 8.90686 v 8.90686 z"
       inkscape:connector-curvature="0" />
    <path
       style="stroke-width:4.45343113"
       id="path1370"
       d="m 222.37778,322.02799 c -2.45829,0 -4.45343,1.99959 -4.45343,4.45343 v 44.53431 c 0,2.45384 1.99514,4.45343 4.45343,4.45343 h 17.81373 17.81372 17.81373 c 2.4583,0 4.45343,-1.99959 4.45343,-4.45343 v -44.53431 c 0,-2.45384 -1.99513,-4.45343 -4.45343,-4.45343 h -4.45343 v 26.72058 h -44.53431 v -26.72058 z"
       inkscape:connector-curvature="0" />
    <path
       style="stroke-width:4.45343113"
       id="path1372"
       d="m 119.94887,281.94711 c 0,-17.119 -13.87244,-31.04487 -30.960259,-31.16512 l -0.15587,-0.004 v -0.004 c -0.02227,0.004 -0.04008,0 -0.0579,0 -17.185788,0 -31.174021,13.98377 -31.174021,31.17402 0,17.19024 13.988233,31.17401 31.174021,31.17401 17.185789,0 31.174019,-13.98377 31.174019,-31.17401 z m -48.987746,0 c 0,-9.83763 7.976094,-17.81373 17.813722,-17.81373 9.837628,0 17.813734,7.9761 17.813734,17.81373 0,9.83762 -7.976106,17.81372 -17.813734,17.81372 -9.837628,0 -17.813722,-7.9761 -17.813722,-17.81372 z"
       inkscape:connector-curvature="0" />
    <path
       style="stroke-width:4.45343113"
       id="path1374"
       d="m 148.15245,211.26224 -47.13067,32.53232 c 11.19593,3.60283 20.25866,11.99309 24.75217,22.75703 l 35.00843,-38.70922 c -5.91416,-3.88339 -10.43439,-9.71294 -12.62993,-16.58013 z"
       inkscape:connector-curvature="0" />
    <path
       style="stroke-width:4.45343113"
       id="path1376"
       d="m 75.96678,319.89479 16.428705,67.64762 41.617315,6.24372 -21.92869,-79.29335 c -6.57772,4.72064 -14.611714,7.53521 -23.309264,7.53521 -4.480151,0 -8.777711,-0.77045 -12.808066,-2.1332 z"
       inkscape:connector-curvature="0" />
    <path
       style="stroke-width:4.45343113"
       id="path1378"
       d="m 200.11063,201.78534 c 0,-12.2781 -9.98904,-22.26716 -22.26716,-22.26716 -12.27811,0 -22.26715,9.98906 -22.26715,22.26716 0,12.27811 9.98904,22.26716 22.26715,22.26716 12.27812,0 22.26716,-9.98905 22.26716,-22.26716 z m -31.17402,0 c 0,-4.92104 3.98582,-8.90686 8.90686,-8.90686 4.92104,0 8.90687,3.98582 8.90687,8.90686 0,4.92104 -3.98583,8.90686 -8.90687,8.90686 -4.92104,0 -8.90686,-3.98582 -8.90686,-8.90686 z"
       inkscape:connector-curvature="0" />
    <path
       style="stroke-width:4.45343113"
       id="path1380"
       d="m 144.1978,404.31849 -7.08541,-1.06437 -0.44535,0.1247 -0.0534,-0.20041 -61.199045,-9.17852 v 43.81731 h 80.161765 v -20.28538 c 0,-6.66679 -4.78299,-12.22467 -11.37852,-13.21333 z"
       inkscape:connector-curvature="0" />
  </g>
</svg>
