<?xml version="1.0" encoding="UTF-8" standalone="no"?>
<svg
   xmlns:dc="http://purl.org/dc/elements/1.1/"
   xmlns:cc="http://creativecommons.org/ns#"
   xmlns:rdf="http://www.w3.org/1999/02/22-rdf-syntax-ns#"
   xmlns:svg="http://www.w3.org/2000/svg"
   xmlns="http://www.w3.org/2000/svg"
   xmlns:sodipodi="http://sodipodi.sourceforge.net/DTD/sodipodi-0.dtd"
   xmlns:inkscape="http://www.inkscape.org/namespaces/inkscape"
   height="512pt"
   viewBox="-66 0 512 512.00022"
   width="512pt"
   version="1.1"
   id="svg20"
   sodipodi:docname="negotiation_os.svg"
   inkscape:version="0.92.3 (2405546, 2018-03-11)">
  <metadata
     id="metadata26">
    <rdf:RDF>
      <cc:Work
         rdf:about="">
        <dc:format>image/svg+xml</dc:format>
        <dc:type
           rdf:resource="http://purl.org/dc/dcmitype/StillImage" />
        <dc:title />
      </cc:Work>
    </rdf:RDF>
  </metadata>
  <defs
     id="defs24" />
  <sodipodi:namedview
     pagecolor="#ffffff"
     bordercolor="#666666"
     borderopacity="1"
     objecttolerance="10"
     gridtolerance="10"
     guidetolerance="10"
     inkscape:pageopacity="0"
     inkscape:pageshadow="2"
     inkscape:window-width="2558"
     inkscape:window-height="1055"
     id="namedview22"
     showgrid="false"
     showguides="true"
     inkscape:guide-bbox="true"
     inkscape:zoom="0.9777961"
     inkscape:cx="541.73727"
     inkscape:cy="338.01921"
     inkscape:window-x="1366"
     inkscape:window-y="0"
     inkscape:window-maximized="1"
     inkscape:current-layer="g953">
    <sodipodi:guide
       position="429.92091,281.11701"
       orientation="1,0"
       id="guide833"
       inkscape:locked="false" />
    <sodipodi:guide
       position="445.26153,277.66536"
       orientation="1,0"
       id="guide835"
       inkscape:locked="false" />
    <sodipodi:guide
       position="65.964671,242.76544"
       orientation="1,0"
       id="guide837"
       inkscape:locked="false" />
    <sodipodi:guide
       position="80.538262,208.24902"
       orientation="1,0"
       id="guide839"
       inkscape:locked="false" />
    <sodipodi:guide
       position="-283.93226,137.49155"
       orientation="1,0"
       id="guide841"
       inkscape:locked="false" />
    <sodipodi:guide
       position="-260.88135,395.1188"
       orientation="1,0"
       id="guide843"
       inkscape:locked="false" />
    <sodipodi:guide
       position="-245.42372,377.76286"
       orientation="1,0"
       id="guide845"
       inkscape:locked="false" />
    <sodipodi:guide
       position="-164.67516,370.57064"
       orientation="1,0"
       id="guide847"
       inkscape:locked="false" />
    <sodipodi:guide
       position="-149.9661,383.18659"
       orientation="1,0"
       id="guide849"
       inkscape:locked="false" />
    <sodipodi:guide
       position="-78.915252,384.27134"
       orientation="1,0"
       id="guide851"
       inkscape:locked="false" />
    <sodipodi:guide
       position="112.81358,638.91537"
       orientation="1,0"
       id="guide1015"
       inkscape:locked="false" />
    <sodipodi:guide
       position="417.08482,188.7458"
       orientation="1,0"
       id="guide1017"
       inkscape:locked="false" />
  </sodipodi:namedview>
  <path
     d="M 371.53587,512.25653 H 7.5676773 c -21.8006533,0 -39.4683643,-17.73739 -39.5379403,-39.53795 l -0.448248,-140.45291 c -0.01547,-4.84862 4.379215,-7.43487 9.227862,-7.43487 4.853214,0 9.248003,3.48274 9.23243,8.33137 l -0.44825,139.55641 c -0.03892,12.117 9.8570922,21.97416 21.9741463,21.97416 H 371.53587 c 12.11249,0 21.96959,-9.8571 21.96959,-21.97416 V 183.23292 c 0,-4.84864 4.83202,-6.98662 9.68067,-6.98662 4.84865,0 9.2551,3.93102 9.23243,8.77963 l -1.34474,287.69265 c -0.10191,21.80043 -17.73728,39.53795 -39.53795,39.53795 z"
     id="path2"
     inkscape:connector-curvature="0"
     sodipodi:nodetypes="sssssssssssssss"
     style="stroke-width:1.16878903" />
  <path
     d="m 371.53587,-0.23005309 c -6.11787,0 -12.24031,0 -18.3582,0 -24.74545,0 -49.49548,0 -74.2455,0 -32.54802,0 -65.09149,0 -97.63953,0 -28.08289,0 -56.16579,0 -84.248685,0 -8.533072,0 -17.066146,0 -25.599219,0 -2.218872,0 -4.446877,-0.0593511 -6.661184,0 C 57.720597,-0.04286451 54.310107,4.326396 49.155565,8.6728301 43.996457,13.023828 38.83735,17.374829 33.678241,21.725828 23.11805,30.633279 12.557859,39.540728 1.9976684,48.448185 -5.1657307,54.48844 -12.329129,60.528707 -19.487961,66.568973 c -6.291373,5.309774 -12.354466,9.852529 -12.486867,18.513443 -0.05479,3.593103 0,7.186217 0,10.774773 v 36.953811 99.08227 63.21961 1.24183 c 0,4.85322 3.935532,8.78419 8.784179,8.78419 4.848649,0 8.78418,-3.93097 8.78418,-8.78419 V 89.963021 h 71.474187 c 8.067384,0 14.637256,-6.565309 14.637256,-14.632689 V 17.333738 H 371.53132 c 12.11704,0 21.97414,9.857092 21.97414,21.974143 V 141.77781 c 0,4.85321 3.93097,8.78417 8.77962,8.78417 4.85321,0 8.78417,-3.93096 8.78417,-8.78417 V 39.307881 c 0.005,-21.805217 -17.73271,-39.53793409 -39.53338,-39.53793409 z M 54.14118,72.39922 H 0.84714055 L 54.14118,27.451068 Z m 0,0"
     id="path4"
     inkscape:connector-curvature="0"
     style="stroke-width:1.16878903" />
  <g
     id="g953"
     transform="matrix(1.1218597,0,0,1.1218597,-21.216711,-55.680521)">
    <path
       style="stroke-width:0.46592876"
       d="m 274.50144,147.73797 c -28.63113,0.14122 -54.44112,25.30413 -54.99218,54.00781 -0.1878,3.98192 0.0518,7.98388 0.71875,11.91406 -31.44229,31.30608 -62.75791,63.02762 -94.2793,94.07422 -28.214766,-5.26704 -58.126018,14.72297 -64.269543,42.73633 -6.45751,25.61172 7.405433,54.59073 31.747803,65.1339 24.00341,11.16221 55.28662,3.06714 70.07292,-19.14178 8.40227,-11.98444 12.05943,-27.31495 9.51913,-41.76946 31.42116,-31.32907 62.96876,-62.76713 94.25781,-94.07813 28.25247,5.32357 58.46273,-14.68891 64.27735,-42.92578 2.16092,-9.91034 2.62729,-21.09486 -1.99414,-30.31836 -4.30877,-5.08155 -12.31773,-2.14586 -15.20735,2.96273 -7.53179,7.52675 -15.06359,15.05349 -22.59539,22.58024 -5.86221,-2.51593 -13.41078,-3.34496 -18.21885,-6.91539 -1.31977,-5.81895 -5.33426,-12.25327 -4.96511,-17.68654 8.90217,-9.59075 19.52459,-17.91049 27.2406,-28.43127 2.16909,-6.23916 -4.35098,-11.73799 -10.26171,-11.35938 -3.64658,-0.6195 -7.35343,-0.87838 -11.05079,-0.7832 z m -5.32617,16.98828 c -5.7479,6.54726 -13.31804,11.74867 -18.10351,19.0332 -2.10245,6.96488 3.18047,13.16465 4.61328,19.71289 2.20697,6.80434 2.96982,16.48209 11.30859,18.52149 8.56884,2.36627 16.82615,5.72904 25.33985,8.1875 8.34449,1.2367 12.15287,-8.66294 17.9366,-12.73543 3.04965,-3.09784 8.28512,-9.47129 4.88761,-1.05168 -5.71906,19.55257 -27.77339,33.14291 -47.71289,27.49609 -8.68059,-1.9553 -13.37485,7.56673 -18.85742,12.41211 -30.63554,30.50174 -61.56453,60.82476 -91.60156,91.87696 -2.70015,6.148 1.96946,12.54186 0.48633,18.91992 -1.19148,22.26961 -23.10874,40.70519 -45.30078,37.67383 -21.22679,-2.09364 -38.562526,-22.71592 -36.236344,-44.1543 1.588886,-21.74507 22.602754,-39.99489 44.541024,-37.05859 5.12191,0.52934 10.99612,2.60434 15.01563,-1.8379 23.91755,-24.88766 48.93868,-48.82942 73.18973,-73.45044 9.22799,-9.71976 19.55237,-18.7252 27.96261,-29.02221 1.75365,-6.18335 -2.34773,-12.30685 -0.8164,-18.61914 1.37763,-17.49096 16.21006,-33.82523 33.34765,-35.9043 z"
       id="path927"
       inkscape:connector-curvature="0" />
  </g>
</svg>
