<?xml version="1.0" encoding="UTF-8" standalone="no"?>
<svg
   xmlns:dc="http://purl.org/dc/elements/1.1/"
   xmlns:cc="http://creativecommons.org/ns#"
   xmlns:rdf="http://www.w3.org/1999/02/22-rdf-syntax-ns#"
   xmlns:svg="http://www.w3.org/2000/svg"
   xmlns="http://www.w3.org/2000/svg"
   xmlns:sodipodi="http://sodipodi.sourceforge.net/DTD/sodipodi-0.dtd"
   xmlns:inkscape="http://www.inkscape.org/namespaces/inkscape"
   height="512pt"
   viewBox="-66 0 512 512.00022"
   width="512pt"
   version="1.1"
   id="svg20"
   sodipodi:docname="negotiation_budget.svg"
   inkscape:version="0.92.3 (2405546, 2018-03-11)">
  <metadata
     id="metadata26">
    <rdf:RDF>
      <cc:Work
         rdf:about="">
        <dc:format>image/svg+xml</dc:format>
        <dc:type
           rdf:resource="http://purl.org/dc/dcmitype/StillImage" />
        <dc:title></dc:title>
      </cc:Work>
    </rdf:RDF>
  </metadata>
  <defs
     id="defs24" />
  <sodipodi:namedview
     pagecolor="#ffffff"
     bordercolor="#666666"
     borderopacity="1"
     objecttolerance="10"
     gridtolerance="10"
     guidetolerance="10"
     inkscape:pageopacity="0"
     inkscape:pageshadow="2"
     inkscape:window-width="2558"
     inkscape:window-height="1055"
     id="namedview22"
     showgrid="false"
     showguides="true"
     inkscape:guide-bbox="true"
     inkscape:zoom="0.69140625"
     inkscape:cx="275.13843"
     inkscape:cy="227.42116"
     inkscape:window-x="1366"
     inkscape:window-y="0"
     inkscape:window-maximized="1"
     inkscape:current-layer="g1399">
    <sodipodi:guide
       position="429.92091,281.11701"
       orientation="1,0"
       id="guide833"
       inkscape:locked="false" />
    <sodipodi:guide
       position="445.26153,277.66536"
       orientation="1,0"
       id="guide835"
       inkscape:locked="false" />
    <sodipodi:guide
       position="65.964671,242.76544"
       orientation="1,0"
       id="guide837"
       inkscape:locked="false" />
    <sodipodi:guide
       position="80.538262,208.24902"
       orientation="1,0"
       id="guide839"
       inkscape:locked="false" />
    <sodipodi:guide
       position="-283.93226,137.49155"
       orientation="1,0"
       id="guide841"
       inkscape:locked="false" />
    <sodipodi:guide
       position="-260.88135,395.1188"
       orientation="1,0"
       id="guide843"
       inkscape:locked="false" />
    <sodipodi:guide
       position="-245.42372,377.76286"
       orientation="1,0"
       id="guide845"
       inkscape:locked="false" />
    <sodipodi:guide
       position="-164.67516,370.57064"
       orientation="1,0"
       id="guide847"
       inkscape:locked="false" />
    <sodipodi:guide
       position="-149.9661,383.18659"
       orientation="1,0"
       id="guide849"
       inkscape:locked="false" />
    <sodipodi:guide
       position="-78.915252,384.27134"
       orientation="1,0"
       id="guide851"
       inkscape:locked="false" />
    <sodipodi:guide
       position="112.81358,638.91537"
       orientation="1,0"
       id="guide1015"
       inkscape:locked="false" />
    <sodipodi:guide
       position="417.08482,188.7458"
       orientation="1,0"
       id="guide1017"
       inkscape:locked="false" />
    <sodipodi:guide
       position="187.15558,404.22554"
       orientation="0,1"
       id="guide961"
       inkscape:locked="false" />
    <sodipodi:guide
       position="357.43647,95.111893"
       orientation="0,1"
       id="guide963"
       inkscape:locked="false" />
  </sodipodi:namedview>
  <path
     d="M 371.53587,512.25653 H 7.5676773 c -21.8006533,0 -39.4683643,-17.73739 -39.5379403,-39.53795 l -0.448248,-140.45291 c -0.01547,-4.84862 4.379215,-7.43487 9.227862,-7.43487 4.853214,0 9.248003,3.48274 9.23243,8.33137 l -0.44825,139.55641 c -0.03892,12.117 9.8570922,21.97416 21.9741463,21.97416 H 371.53587 c 12.11249,0 21.96959,-9.8571 21.96959,-21.97416 V 183.23292 c 0,-4.84864 4.83202,-6.98662 9.68067,-6.98662 4.84865,0 9.2551,3.93102 9.23243,8.77963 l -1.34474,287.69265 c -0.10191,21.80043 -17.73728,39.53795 -39.53795,39.53795 z"
     id="path2"
     inkscape:connector-curvature="0"
     sodipodi:nodetypes="sssssssssssssss"
     style="stroke-width:1.16878903" />
  <path
     d="m 371.53587,-0.23005309 c -6.11787,0 -12.24031,0 -18.3582,0 -24.74545,0 -49.49548,0 -74.2455,0 -32.54802,0 -65.09149,0 -97.63953,0 -28.08289,0 -56.16579,0 -84.248685,0 -8.533072,0 -17.066146,0 -25.599219,0 -2.218872,0 -4.446877,-0.0593511 -6.661184,0 C 57.720597,-0.04286451 54.310107,4.326396 49.155565,8.6728301 43.996457,13.023828 38.83735,17.374829 33.678241,21.725828 23.11805,30.633279 12.557859,39.540728 1.9976684,48.448185 -5.1657307,54.48844 -12.329129,60.528707 -19.487961,66.568973 c -6.291373,5.309774 -12.354466,9.852529 -12.486867,18.513443 -0.05479,3.593103 0,7.186217 0,10.774773 v 36.953811 99.08227 63.21961 1.24183 c 0,4.85322 3.935532,8.78419 8.784179,8.78419 4.848649,0 8.78418,-3.93097 8.78418,-8.78419 V 89.963021 h 71.474187 c 8.067384,0 14.637256,-6.565309 14.637256,-14.632689 V 17.333738 H 371.53132 c 12.11704,0 21.97414,9.857092 21.97414,21.974143 V 141.77781 c 0,4.85321 3.93097,8.78417 8.77962,8.78417 4.85321,0 8.78417,-3.93096 8.78417,-8.78417 V 39.307881 c 0.005,-21.805217 -17.73271,-39.53793409 -39.53338,-39.53793409 z M 54.14118,72.39922 H 0.84714055 L 54.14118,27.451068 Z m 0,0"
     id="path4"
     inkscape:connector-curvature="0"
     style="stroke-width:1.16878903" />
  <g
     id="g953"
     transform="matrix(1.1218597,0,0,1.1218597,-21.216711,-55.680521)">
    <g
       id="g1399"
       transform="translate(371.76655,-1.2437254)">
      <g
         id="g1591"
         transform="matrix(0.4780029,0,0,0.4780029,-301.10922,164.33309)">
</g>
      <g
         id="g1593"
         transform="matrix(0.4780029,0,0,0.4780029,-301.10922,164.33309)">
</g>
      <g
         id="g1595"
         transform="matrix(0.4780029,0,0,0.4780029,-301.10922,164.33309)">
</g>
      <g
         id="g1597"
         transform="matrix(0.4780029,0,0,0.4780029,-301.10922,164.33309)">
</g>
      <g
         id="g1599"
         transform="matrix(0.4780029,0,0,0.4780029,-301.10922,164.33309)">
</g>
      <g
         id="g1601"
         transform="matrix(0.4780029,0,0,0.4780029,-301.10922,164.33309)">
</g>
      <g
         id="g1603"
         transform="matrix(0.4780029,0,0,0.4780029,-301.10922,164.33309)">
</g>
      <g
         id="g1605"
         transform="matrix(0.4780029,0,0,0.4780029,-301.10922,164.33309)">
</g>
      <g
         id="g1607"
         transform="matrix(0.4780029,0,0,0.4780029,-301.10922,164.33309)">
</g>
      <g
         id="g1609"
         transform="matrix(0.4780029,0,0,0.4780029,-301.10922,164.33309)">
</g>
      <g
         id="g1611"
         transform="matrix(0.4780029,0,0,0.4780029,-301.10922,164.33309)">
</g>
      <g
         id="g1613"
         transform="matrix(0.4780029,0,0,0.4780029,-301.10922,164.33309)">
</g>
      <g
         id="g1615"
         transform="matrix(0.4780029,0,0,0.4780029,-301.10922,164.33309)">
</g>
      <g
         id="g1617"
         transform="matrix(0.4780029,0,0,0.4780029,-301.10922,164.33309)">
</g>
      <g
         id="g1619"
         transform="matrix(0.4780029,0,0,0.4780029,-301.10922,164.33309)">
</g>
      <path
         style="stroke-width:2.43008375"
         d="m -290.25391,206.49023 c -7.39067,0.67609 -17.02321,-0.76164 -22.3125,5.5918 -2.52918,4.79022 -0.79436,12.18816 5.44922,12.69336 17.82699,2.81535 36.04268,0.66817 54.01172,1.35742 68.12393,-0.15717 136.26066,0.30876 204.376954,-0.22265 6.318587,-0.54656 16.603728,-0.97664 17.490235,-9.125 1.133733,-4.43975 -1.713816,-8.97848 -6.439453,-9.20899 -19.528736,-2.39531 -39.335108,-0.46936 -58.962891,-1.09765 -64.537745,0.008 -129.075585,-0.0157 -193.613285,0.0117 z"
         id="path10"
         inkscape:connector-curvature="0" />
      <path
         style="stroke-width:2.43008375"
         d="m -289.52539,283.08398 c -7.38944,0.67786 -17.02469,-0.76124 -22.31055,5.59375 -2.53211,4.78707 -0.79437,12.18718 5.44727,12.69141 17.82668,2.81733 36.04275,0.67038 54.01172,1.35938 68.12259,-0.15851 136.25822,0.3114 204.373044,-0.22461 6.321958,-0.54179 16.618927,-0.97813 17.496094,-9.13477 1.133046,-4.44155 -1.727288,-8.96802 -6.447266,-9.20117 -19.52698,-2.38866 -39.329722,-0.47002 -58.955078,-1.0957 -64.538404,0.008 -129.076884,-0.0157 -193.615234,0.0117 z"
         id="path10-1-0"
         inkscape:connector-curvature="0" />
      <path
         style="stroke-width:2.43008375"
         d="m -290.44141,360.25 c -7.3896,0.67961 -17.02367,-0.76193 -22.31054,5.59375 -2.53149,4.78773 -0.79497,12.18793 5.44726,12.69141 17.82634,2.8188 36.04288,0.6694 54.01172,1.35937 68.12459,-0.15712 136.26193,0.30869 204.378908,-0.22265 6.320288,-0.54692 16.612115,-0.98024 17.490234,-9.13477 1.131455,-4.43729 -1.720925,-8.97015 -6.441406,-9.19922 -19.527698,-2.39704 -39.333877,-0.47171 -58.960938,-1.09961 -64.538398,0.008 -129.076888,-0.0157 -193.615238,0.0117 z"
         id="path10-1-0-2"
         inkscape:connector-curvature="0" />
    </g>
  </g>
</svg>
