<?xml version="1.0" encoding="UTF-8" standalone="no"?>
<svg
   xmlns:dc="http://purl.org/dc/elements/1.1/"
   xmlns:cc="http://creativecommons.org/ns#"
   xmlns:rdf="http://www.w3.org/1999/02/22-rdf-syntax-ns#"
   xmlns:svg="http://www.w3.org/2000/svg"
   xmlns="http://www.w3.org/2000/svg"
   xmlns:sodipodi="http://sodipodi.sourceforge.net/DTD/sodipodi-0.dtd"
   xmlns:inkscape="http://www.inkscape.org/namespaces/inkscape"
   height="512pt"
   viewBox="-66 0 512 512.00022"
   width="512pt"
   version="1.1"
   id="svg20"
   sodipodi:docname="budget (2).svg"
   inkscape:version="0.92.3 (2405546, 2018-03-11)">
  <metadata
     id="metadata26">
    <rdf:RDF>
      <cc:Work
         rdf:about="">
        <dc:format>image/svg+xml</dc:format>
        <dc:type
           rdf:resource="http://purl.org/dc/dcmitype/StillImage" />
      </cc:Work>
    </rdf:RDF>
  </metadata>
  <defs
     id="defs24" />
  <sodipodi:namedview
     pagecolor="#ffffff"
     bordercolor="#666666"
     borderopacity="1"
     objecttolerance="10"
     gridtolerance="10"
     guidetolerance="10"
     inkscape:pageopacity="0"
     inkscape:pageshadow="2"
     inkscape:window-width="1918"
     inkscape:window-height="1055"
     id="namedview22"
     showgrid="false"
     showguides="true"
     inkscape:guide-bbox="true"
     inkscape:zoom="0.9777961"
     inkscape:cx="255.07283"
     inkscape:cy="341.5756"
     inkscape:window-x="0"
     inkscape:window-y="0"
     inkscape:window-maximized="1"
     inkscape:current-layer="svg20">
    <sodipodi:guide
       position="429.92091,281.11701"
       orientation="1,0"
       id="guide833"
       inkscape:locked="false" />
    <sodipodi:guide
       position="445.26153,277.66536"
       orientation="1,0"
       id="guide835"
       inkscape:locked="false" />
    <sodipodi:guide
       position="65.964671,242.76544"
       orientation="1,0"
       id="guide837"
       inkscape:locked="false" />
    <sodipodi:guide
       position="80.538262,208.24902"
       orientation="1,0"
       id="guide839"
       inkscape:locked="false" />
    <sodipodi:guide
       position="-283.93226,137.49155"
       orientation="1,0"
       id="guide841"
       inkscape:locked="false" />
    <sodipodi:guide
       position="-260.88135,395.1188"
       orientation="1,0"
       id="guide843"
       inkscape:locked="false" />
    <sodipodi:guide
       position="-245.42372,377.76286"
       orientation="1,0"
       id="guide845"
       inkscape:locked="false" />
    <sodipodi:guide
       position="-164.67516,370.57064"
       orientation="1,0"
       id="guide847"
       inkscape:locked="false" />
    <sodipodi:guide
       position="-149.9661,383.18659"
       orientation="1,0"
       id="guide849"
       inkscape:locked="false" />
    <sodipodi:guide
       position="-78.915252,384.27134"
       orientation="1,0"
       id="guide851"
       inkscape:locked="false" />
    <sodipodi:guide
       position="-178.44067,389.1527"
       orientation="0,1"
       id="guide853"
       inkscape:locked="false" />
    <sodipodi:guide
       position="-178.98305,403.2544"
       orientation="0,1"
       id="guide855"
       inkscape:locked="false" />
    <sodipodi:guide
       position="-199.32203,133.96616"
       orientation="0,1"
       id="guide877"
       inkscape:locked="false" />
    <sodipodi:guide
       position="-219.9322,140.20345"
       orientation="0,1"
       id="guide879"
       inkscape:locked="false" />
    <sodipodi:guide
       position="-226.16949,127.45768"
       orientation="0,1"
       id="guide881"
       inkscape:locked="false" />
  </sodipodi:namedview>
  <g
     id="g903">
    <path
       style="stroke-width:1.16878903"
       sodipodi:nodetypes="sssssssssssssss"
       inkscape:connector-curvature="0"
       id="path2"
       d="M 371.53587,512.25653 H 7.5676773 c -21.8006533,0 -39.4683643,-17.73739 -39.5379403,-39.53795 l -0.448248,-140.45291 c -0.01547,-4.84862 4.379215,-7.43487 9.227862,-7.43487 4.853214,0 9.248003,3.48274 9.23243,8.33137 l -0.44825,139.55641 c -0.03892,12.117 9.8570922,21.97416 21.9741463,21.97416 H 371.53587 c 12.11249,0 21.96959,-9.8571 21.96959,-21.97416 V 183.23292 c 0,-4.84864 4.83202,-6.98662 9.68067,-6.98662 4.84865,0 9.2551,3.93102 9.23243,8.77963 l -1.34474,287.69265 c -0.10191,21.80043 -17.73728,39.53795 -39.53795,39.53795 z" />
    <path
       style="stroke-width:1.16878903"
       inkscape:connector-curvature="0"
       id="path4"
       d="m 371.53587,-0.23005309 c -6.11787,0 -12.24031,0 -18.3582,0 -24.74545,0 -49.49548,0 -74.2455,0 -32.54802,0 -65.09149,0 -97.63953,0 -28.08289,0 -56.16579,0 -84.248685,0 -8.533072,0 -17.066146,0 -25.599219,0 -2.218872,0 -4.446877,-0.0593511 -6.661184,0 C 57.720597,-0.04286451 54.310107,4.326396 49.155565,8.6728301 43.996457,13.023828 38.83735,17.374829 33.678241,21.725828 23.11805,30.633279 12.557859,39.540728 1.9976684,48.448185 -5.1657307,54.48844 -12.329129,60.528707 -19.487961,66.568973 c -6.291373,5.309774 -12.354466,9.852529 -12.486867,18.513443 -0.05479,3.593103 0,7.186217 0,10.774773 v 36.953811 99.08227 63.21961 1.24183 c 0,4.85322 3.935532,8.78419 8.784179,8.78419 4.848649,0 8.78418,-3.93097 8.78418,-8.78419 V 89.963021 h 71.474187 c 8.067384,0 14.637256,-6.565309 14.637256,-14.632689 V 17.333738 H 371.53132 c 12.11704,0 21.97414,9.857092 21.97414,21.974143 V 141.77781 c 0,4.85321 3.93097,8.78417 8.77962,8.78417 4.85321,0 8.78417,-3.93096 8.78417,-8.78417 V 39.307881 c 0.005,-21.805217 -17.73271,-39.53793409 -39.53338,-39.53793409 z M 54.14118,72.39922 H 0.84714055 L 54.14118,27.451068 Z m 0,0" />
    <path
       style="stroke-width:1.16878903"
       inkscape:connector-curvature="0"
       id="path6"
       d="m 54.981086,150.10393 h 69.899064 c 4.84864,0 8.78417,-3.93097 8.78417,-8.77962 0,-4.85321 -3.93553,-8.78417 -8.78417,-8.78417 H 54.981086 c -4.848651,0 -8.779615,3.93096 -8.779615,8.78417 0,4.84865 3.930964,8.77962 8.779615,8.77962 z m 0,0" />
    <path
       style="stroke-width:1.16878903"
       inkscape:connector-curvature="0"
       id="path8"
       d="m 236.31688,132.54014 h -71.32353 c -4.85321,0 -8.78419,3.93096 -8.78419,8.78417 0,4.84865 3.93098,8.77962 8.78419,8.77962 h 71.32353 c 4.84863,0 8.78417,-3.93097 8.78417,-8.77962 0,-4.85321 -3.93097,-8.78417 -8.78417,-8.78417 z m 0,0" />
    <path
       style="stroke-width:1.16878903"
       inkscape:connector-curvature="0"
       id="path10"
       d="m 275.85481,150.10393 h 47.7286 c 4.85321,0 8.78417,-3.93097 8.78417,-8.77962 0,-4.85321 -3.93096,-8.78417 -8.78417,-8.78417 h -47.7286 c -4.84865,0 -8.77962,3.93096 -8.77962,8.78417 0,4.84865 3.93097,8.77962 8.77962,8.77962 z m 0,0" />
    <path
       style="stroke-width:1.01577294"
       sodipodi:nodetypes="ssssssssscccccccccccccccccccccccccccccccccccccccccccccccccccccccccccccccccccccccccc"
       inkscape:connector-curvature="0"
       id="path18"
       d="M 318.10425,199.10009 H 61.961403 c -8.2774,0 -15.01164,5.08639 -15.01164,11.33833 v 199.87594 c 0,6.25194 6.73424,11.33832 15.01164,11.33832 H 318.10425 c 8.27741,0 15.01164,-5.08638 15.01164,-11.33832 V 210.43842 c 0,-6.25194 -6.73423,-11.33833 -15.01164,-11.33833 z m -197.76731,178.93384 -1.5638,-63.63331 h 96.10788 v 63.63331 z m 94.54408,0 v 30.35278 h -94.54408 v -30.35278 z m 3.79665,-63.63331 -4.06784,-12.74577 h -94.64917 l -1.18752,12.74577 z m -98.71701,-12.74577 0.37628,-89.28878 h 94.54408 l -0.27119,89.28878 z m 0,0 h 94.64917 v 0 z m -17.18751,0 H 64.264603 l 0.24895,-4.98929 h 38.259597 z m 129.67166,-4.98929 h 83.10729 l -0.16462,4.98929 h -83.04344 z m 0,0 -0.64315,17.73506 h 84.39938 l -0.64894,-17.73506 z m -129.67166,0 H 64.513553 l -0.24895,17.73506 h 38.508547 z m -38.508547,17.73506 h 38.508547 v 63.63331 H 64.513553 Z m 167.537057,0 h 84.39938 l -0.64894,63.63331 h -83.10729 z m 83.58582,-12.74577 h -83.04344 l 0.10534,-89.28878 H 315.5521 Z M 102.77315,212.36607 v 89.28878 H 64.264603 l 0.24895,-89.28878 z M 64.513553,378.03393 h 38.259597 v 30.35278 H 64.513553 Z m 167.931257,30.35278 v -30.35278 h 83.10729 v 30.35278 z" />
  </g>
</svg>
