<?xml version="1.0" encoding="UTF-8" standalone="no"?>
<svg
   xmlns:osb="http://www.openswatchbook.org/uri/2009/osb"
   xmlns:dc="http://purl.org/dc/elements/1.1/"
   xmlns:cc="http://creativecommons.org/ns#"
   xmlns:rdf="http://www.w3.org/1999/02/22-rdf-syntax-ns#"
   xmlns:svg="http://www.w3.org/2000/svg"
   xmlns="http://www.w3.org/2000/svg"
   xmlns:sodipodi="http://sodipodi.sourceforge.net/DTD/sodipodi-0.dtd"
   xmlns:inkscape="http://www.inkscape.org/namespaces/inkscape"
   height="511pt"
   viewBox="0 -11 511.99833 511"
   width="511pt"
   version="1.1"
   id="svg8"
   sodipodi:docname="nf-e.svg"
   inkscape:version="0.92.3 (2405546, 2018-03-11)">
  <metadata
     id="metadata14">
    <rdf:RDF>
      <cc:Work
         rdf:about="">
        <dc:format>image/svg+xml</dc:format>
        <dc:type
           rdf:resource="http://purl.org/dc/dcmitype/StillImage" />
        <dc:title />
      </cc:Work>
    </rdf:RDF>
  </metadata>
  <defs
     id="defs12">
    <linearGradient
       id="linearGradient7113"
       osb:paint="solid">
      <stop
         style="stop-color:#fff000;stop-opacity:1;"
         offset="0"
         id="stop7111" />
    </linearGradient>
    <style
       id="style1723">.cls-1{font-size:30.12px;font-family:Montserrat-Regular, Montserrat;}.cls-1,.cls-3{fill:#455a64;}.cls-2{letter-spacing:-0.02em;}</style>
  </defs>
  <sodipodi:namedview
     pagecolor="#ffffff"
     bordercolor="#666666"
     borderopacity="1"
     objecttolerance="10"
     gridtolerance="10"
     guidetolerance="10"
     inkscape:pageopacity="0"
     inkscape:pageshadow="2"
     inkscape:window-width="2558"
     inkscape:window-height="1055"
     id="namedview10"
     showgrid="false"
     inkscape:zoom="0.84375001"
     inkscape:cx="200.94463"
     inkscape:cy="321.47331"
     inkscape:window-x="0"
     inkscape:window-y="0"
     inkscape:window-maximized="1"
     inkscape:current-layer="g3754"
     showguides="true"
     inkscape:guide-bbox="true" />
  <g
     id="g3014"
     transform="matrix(0.46594571,0,0,0.46594571,-395.52505,-90.848671)" />
  <g
     id="g3016"
     transform="matrix(0.46594571,0,0,0.46594571,-395.52505,-90.848671)" />
  <g
     id="g3018"
     transform="matrix(0.46594571,0,0,0.46594571,-395.52505,-90.848671)" />
  <g
     id="g3020"
     transform="matrix(0.46594571,0,0,0.46594571,-395.52505,-90.848671)" />
  <g
     id="g3022"
     transform="matrix(0.46594571,0,0,0.46594571,-395.52505,-90.848671)" />
  <g
     id="g3024"
     transform="matrix(0.46594571,0,0,0.46594571,-395.52505,-90.848671)" />
  <g
     id="g3026"
     transform="matrix(0.46594571,0,0,0.46594571,-395.52505,-90.848671)" />
  <g
     id="g3028"
     transform="matrix(0.46594571,0,0,0.46594571,-395.52505,-90.848671)" />
  <g
     id="g3030"
     transform="matrix(0.46594571,0,0,0.46594571,-395.52505,-90.848671)" />
  <g
     id="g3032"
     transform="matrix(0.46594571,0,0,0.46594571,-395.52505,-90.848671)" />
  <g
     id="g3034"
     transform="matrix(0.46594571,0,0,0.46594571,-395.52505,-90.848671)" />
  <g
     id="g3036"
     transform="matrix(0.46594571,0,0,0.46594571,-395.52505,-90.848671)" />
  <g
     id="g3038"
     transform="matrix(0.46594571,0,0,0.46594571,-395.52505,-90.848671)" />
  <g
     id="g3040"
     transform="matrix(0.46594571,0,0,0.46594571,-395.52505,-90.848671)" />
  <g
     id="g3042"
     transform="matrix(0.46594571,0,0,0.46594571,-395.52505,-90.848671)" />
  <g
     id="g3476"
     transform="matrix(0.75146526,0,0,0.75146526,-1234.6494,-216.04593)" />
  <g
     id="g3478"
     transform="matrix(0.75146526,0,0,0.75146526,-1234.6494,-216.04593)" />
  <g
     id="g3480"
     transform="matrix(0.75146526,0,0,0.75146526,-1234.6494,-216.04593)" />
  <g
     id="g3482"
     transform="matrix(0.75146526,0,0,0.75146526,-1234.6494,-216.04593)" />
  <g
     id="g3484"
     transform="matrix(0.75146526,0,0,0.75146526,-1234.6494,-216.04593)" />
  <g
     id="g3486"
     transform="matrix(0.75146526,0,0,0.75146526,-1234.6494,-216.04593)" />
  <g
     id="g3488"
     transform="matrix(0.75146526,0,0,0.75146526,-1234.6494,-216.04593)" />
  <g
     id="g3490"
     transform="matrix(0.75146526,0,0,0.75146526,-1234.6494,-216.04593)" />
  <g
     id="g3492"
     transform="matrix(0.75146526,0,0,0.75146526,-1234.6494,-216.04593)" />
  <g
     id="g3494"
     transform="matrix(0.75146526,0,0,0.75146526,-1234.6494,-216.04593)" />
  <g
     id="g3496"
     transform="matrix(0.75146526,0,0,0.75146526,-1234.6494,-216.04593)" />
  <g
     id="g3498"
     transform="matrix(0.75146526,0,0,0.75146526,-1234.6494,-216.04593)" />
  <g
     id="g3500"
     transform="matrix(0.75146526,0,0,0.75146526,-1234.6494,-216.04593)" />
  <g
     id="g3502"
     transform="matrix(0.75146526,0,0,0.75146526,-1234.6494,-216.04593)" />
  <g
     id="g3504"
     transform="matrix(0.75146526,0,0,0.75146526,-1234.6494,-216.04593)" />
  <g
     id="g10"
     transform="matrix(0.75146526,0,0,0.75146526,-134.83234,76.863977)" />
  <g
     id="g12"
     transform="matrix(0.75146526,0,0,0.75146526,-134.83234,76.863977)" />
  <g
     id="g14"
     transform="matrix(0.75146526,0,0,0.75146526,-134.83234,76.863977)" />
  <g
     id="g16"
     transform="matrix(0.75146526,0,0,0.75146526,-134.83234,76.863977)" />
  <g
     id="g18"
     transform="matrix(0.75146526,0,0,0.75146526,-134.83234,76.863977)" />
  <g
     id="g20"
     transform="matrix(0.75146526,0,0,0.75146526,-134.83234,76.863977)" />
  <g
     id="g22"
     transform="matrix(0.75146526,0,0,0.75146526,-134.83234,76.863977)" />
  <g
     id="g24"
     transform="matrix(0.75146526,0,0,0.75146526,-134.83234,76.863977)" />
  <g
     id="g26"
     transform="matrix(0.75146526,0,0,0.75146526,-134.83234,76.863977)" />
  <g
     id="g28"
     transform="matrix(0.75146526,0,0,0.75146526,-134.83234,76.863977)" />
  <g
     id="g30"
     transform="matrix(0.75146526,0,0,0.75146526,-134.83234,76.863977)" />
  <g
     id="g32"
     transform="matrix(0.75146526,0,0,0.75146526,-134.83234,76.863977)" />
  <g
     id="g34"
     transform="matrix(0.75146526,0,0,0.75146526,-134.83234,76.863977)" />
  <g
     id="g36"
     transform="matrix(0.75146526,0,0,0.75146526,-134.83234,76.863977)" />
  <g
     id="g38"
     transform="matrix(0.75146526,0,0,0.75146526,-134.83234,76.863977)" />
  <g
     id="g3229"
     transform="matrix(0.75146526,0,0,0.75146526,-1071.0177,25.953031)" />
  <g
     id="g3231"
     transform="matrix(0.75146526,0,0,0.75146526,-1071.0177,25.953031)" />
  <g
     id="g3233"
     transform="matrix(0.75146526,0,0,0.75146526,-1071.0177,25.953031)" />
  <g
     id="g3235"
     transform="matrix(0.75146526,0,0,0.75146526,-1071.0177,25.953031)" />
  <g
     id="g3237"
     transform="matrix(0.75146526,0,0,0.75146526,-1071.0177,25.953031)" />
  <g
     id="g3239"
     transform="matrix(0.75146526,0,0,0.75146526,-1071.0177,25.953031)" />
  <g
     id="g3241"
     transform="matrix(0.75146526,0,0,0.75146526,-1071.0177,25.953031)" />
  <g
     id="g3243"
     transform="matrix(0.75146526,0,0,0.75146526,-1071.0177,25.953031)" />
  <g
     id="g3245"
     transform="matrix(0.75146526,0,0,0.75146526,-1071.0177,25.953031)" />
  <g
     id="g3247"
     transform="matrix(0.75146526,0,0,0.75146526,-1071.0177,25.953031)" />
  <g
     id="g3249"
     transform="matrix(0.75146526,0,0,0.75146526,-1071.0177,25.953031)" />
  <g
     id="g3251"
     transform="matrix(0.75146526,0,0,0.75146526,-1071.0177,25.953031)" />
  <g
     id="g3253"
     transform="matrix(0.75146526,0,0,0.75146526,-1071.0177,25.953031)" />
  <g
     id="g3255"
     transform="matrix(0.75146526,0,0,0.75146526,-1071.0177,25.953031)" />
  <g
     id="g3257"
     transform="matrix(0.75146526,0,0,0.75146526,-1071.0177,25.953031)" />
  <g
     id="g3603"
     transform="matrix(0.75146526,0,0,0.75146526,-1007.6799,-366.95595)" />
  <g
     id="g3605"
     transform="matrix(0.75146526,0,0,0.75146526,-1007.6799,-366.95595)" />
  <g
     id="g3607"
     transform="matrix(0.75146526,0,0,0.75146526,-1007.6799,-366.95595)" />
  <g
     id="g3609"
     transform="matrix(0.75146526,0,0,0.75146526,-1007.6799,-366.95595)" />
  <g
     id="g3611"
     transform="matrix(0.75146526,0,0,0.75146526,-1007.6799,-366.95595)" />
  <g
     id="g3613"
     transform="matrix(0.75146526,0,0,0.75146526,-1007.6799,-366.95595)" />
  <g
     id="g3615"
     transform="matrix(0.75146526,0,0,0.75146526,-1007.6799,-366.95595)" />
  <g
     id="g3617"
     transform="matrix(0.75146526,0,0,0.75146526,-1007.6799,-366.95595)" />
  <g
     id="g3619"
     transform="matrix(0.75146526,0,0,0.75146526,-1007.6799,-366.95595)" />
  <g
     id="g3621"
     transform="matrix(0.75146526,0,0,0.75146526,-1007.6799,-366.95595)" />
  <g
     id="g3623"
     transform="matrix(0.75146526,0,0,0.75146526,-1007.6799,-366.95595)" />
  <g
     id="g3625"
     transform="matrix(0.75146526,0,0,0.75146526,-1007.6799,-366.95595)" />
  <g
     id="g3627"
     transform="matrix(0.75146526,0,0,0.75146526,-1007.6799,-366.95595)" />
  <g
     id="g3629"
     transform="matrix(0.75146526,0,0,0.75146526,-1007.6799,-366.95595)" />
  <g
     id="g3631"
     transform="matrix(0.75146526,0,0,0.75146526,-1007.6799,-366.95595)" />
  <g
     id="g3754"
     transform="matrix(0.28690778,0,0,0.28690778,294.54616,241.52613)">
    <g
       id="g1451"
       transform="translate(-841.42855,555.71429)" />
    <g
       id="g1453"
       transform="translate(-841.42855,555.71429)" />
    <g
       id="g1455"
       transform="translate(-841.42855,555.71429)" />
    <g
       id="g1457"
       transform="translate(-841.42855,555.71429)" />
    <g
       id="g1459"
       transform="translate(-841.42855,555.71429)" />
    <g
       id="g1461"
       transform="translate(-841.42855,555.71429)" />
    <g
       id="g1463"
       transform="translate(-841.42855,555.71429)" />
    <g
       id="g1465"
       transform="translate(-841.42855,555.71429)" />
    <g
       id="g1467"
       transform="translate(-841.42855,555.71429)" />
    <g
       id="g1469"
       transform="translate(-841.42855,555.71429)" />
    <g
       id="g1471"
       transform="translate(-841.42855,555.71429)" />
    <g
       id="g1473"
       transform="translate(-841.42855,555.71429)" />
    <g
       id="g1475"
       transform="translate(-841.42855,555.71429)" />
    <g
       id="g1477"
       transform="translate(-841.42855,555.71429)" />
    <g
       id="g1479"
       transform="translate(-841.42855,555.71429)" />
    <path
       style="font-size:248.99197388px;font-family:Montserrat-Regular, Montserrat;fill:#000000;fill-opacity:1;stroke:#000000;stroke-width:7.50862646;stroke-miterlimit:4;stroke-dasharray:none;stroke-opacity:1"
       d="m -783.59961,-161.11133 c -26.54012,0.98717 -47.15136,29.53282 -41.4668,55.09375 1.21026,114.6357085 -3.20147,229.4493 2.42774,343.95313 5.98968,22.13616 30.25014,40.03535 53.35156,33.16015 20.4587,-5.35113 34.75797,-27.27064 31.53156,-47.90035 0.2957,-71.43191 -0.16464,-142.864809 0.18133,-214.2969125 0,-14.0397135 0,-28.0794275 0,-42.1191405 83.61445,97.963331 161.5443,200.638283 245.91406,297.974613 22.66248,16.47899 61.15271,4.14583 66.96094,-24.14258 5.62281,-31.17082 -0.6314,-62.82262 1.82543,-94.26172 -0.13468,-91.817185 1.9746,-183.708499 -1.73168,-275.46484 -7.30507,-27.15966 -45.09892,-41.05883 -67.18945,-22.48633 -15.92389,11.67068 -21.87223,32.99919 -18.51212,51.724606 0.15497,78.685484 -0.0914,157.371152 0.0629,236.056644 -84.49491,-94.08926 -161.09565,-194.991475 -247.10547,-287.75391 -7.56689,-5.58545 -16.60566,-10.06521 -26.25,-9.53711 z m 694.279298,5.40235 c -66.197288,2.93066 -132.890418,-3.56734 -198.703128,3.62304 -21.70216,8.96802 -32.23901,34.79359 -27.67533,57.080047 1.04061,113.042573 -2.57284,226.174373 1.90385,339.148473 7.19124,28.56571 47.9507,42.43762 69.88281,21.7168 16.30514,-13.60514 20.16642,-36.77122 16.88297,-56.83954 -0.6733,-36.22866 0.41553,-72.46559 -0.34,-108.69367 46.30001,-7.041043 93.74853,4.44086 139.52539,-6.275389 20.119586,-10.879224 23.218027,-44.026075 3.322266,-56.755859 -15.280067,-11.166935 -34.875806,-5.917493 -52.248046,-6.54124 -30.13609,0.0093 -60.27214,-0.04482 -90.4082,-0.07399 0,-38.305339 0,-76.610678 0,-114.916016 52.0013,-5.513832 104.88953,4.213542 156.380855,-5.238281 20.816198,-10.156641 25.924607,-43.682581 6.232422,-57.570311 -6.918958,-5.62328 -15.81859,-8.84449 -24.755859,-8.66406 z M 522.82617,-37.375 c -62.90936,-0.487534 -127.35631,36.0627948 -152.45015,95.088123 -24.33583,57.050357 -9.08959,129.684567 38.63765,170.060317 39.56443,33.37478 92.93694,46.22168 143.9117,44.17069 39.20727,-1.26882 80.28117,-7.26211 114.62932,-27.88944 10.25949,-5.45257 17.40083,-18.08118 12.89453,-29.49219 -5.36981,-11.55652 -20.48992,-13.22422 -31.58399,-10.69141 -32.99815,7.51001 -66.42722,17.76138 -100.68359,14.03711 -33.30804,-1.46891 -68.25526,-13.09915 -89.75454,-39.8299 -14.76335,-16.99372 -24.78524,-37.41669 -33.76304,-57.88494 84.49603,-4.27948 169.33172,2.95357 253.63867,-3.87695 8.50919,-7.45351 5.66874,-20.230085 4.99069,-30.060443 C 677.93317,50.804809 655.00262,20.183586 628.15039,-2.2695312 598.3584,-25.651052 560.49114,-37.925873 522.82617,-37.375 Z m 1.20508,43.7675781 c 35.2715,-0.3112067 70.04742,27.7636719 72.6446,63.8141659 1.79607,14.470505 -0.11257,29.046357 -1.64655,43.447556 -47.44987,0 -94.89974,0 -142.34961,0 -15.28517,-41.481873 9.98812,-93.752539 53.25781,-105.1367219 5.89405,-1.5686694 12.00884,-2.1138894 18.09375,-2.125 z M 232.76562,71.425781 c -66.08745,2.710696 -132.65207,-3.458145 -198.402339,3.425781 -17.808297,8.965744 -19.209365,39.520138 -0.06641,47.830078 15.946477,7.33809 33.792885,1.35459 50.593727,2.86528 54.142778,-0.29477 108.650958,3.07816 162.486348,-2.44145 18.42854,-9.46109 18.77621,-41.164353 -1.1582,-49.169923 -4.14738,-2.064269 -8.87136,-2.61894 -13.45313,-2.509766 z"
       id="text1733"
       inkscape:connector-curvature="0" />
  </g>
  <g
     id="g848"
     transform="translate(1.0726436e-5,-9.9128393e-6)">
    <path
       id="path6"
       style="stroke-width:0.98317957"
       d="m 357.97656,82.404297 c -10.45594,0.745673 -13.67788,18.158323 -3.03906,21.503903 11.50944,5.88805 22.77482,14.45922 36.03906,15.31641 11.40583,0.21829 22.86859,-2.26741 34.25782,-1.52344 7.95447,2.7124 12.93606,10.314 19.5371,15.16406 10.20387,8.73294 19.87657,18.94338 32.27149,24.10547 3.76517,1.81012 11.90607,-2.7319 11.66809,2.94052 0.55441,7.97944 3.37788,16.52388 1.66199,24.3505 -39.56636,31.89807 17.2129,42.13822 23.875,1.22851 0.58959,-11.17401 -3.2343,-22.04985 -3.09766,-33.21484 -1.47777,-10.12143 -10.75885,-19.54076 -21.48437,-17.67969 -5.834,0.47099 -11.74927,-1.6667 -15.36524,-6.34179 -13.57929,-10.71096 -25.22124,-24.20279 -40.51562,-32.505863 -14.13572,-3.06571 -28.39266,1.339836 -42.59375,0.521484 C 379.16567,94.256877 370.50652,82.758814 357.97656,82.404297 Z M 414.56001,310.5984 c -10.73731,15.41886 -21.39697,30.88712 -32.31196,46.1809 -18.1761,2.52688 -37.02114,0.29572 -54.58789,6.2207 -10.19969,7.03721 -18.79053,16.15847 -28.14649,24.18945 -9.66252,11.32071 -2.26235,28.76378 -12.24219,39.79297 -13.27911,11.99196 -24.94143,25.74347 -38.27148,37.73047 -8.6584,-8.859 -18.10281,-16.95228 -26.19336,-26.35937 11.46911,-10.40485 26.94029,-17.11994 35.20117,-30.60743 3.04625,-9.9075 -0.22992,-20.89577 -5.72461,-29.20898 -6.78294,-6.19698 -19.91982,-1.00889 -19.02343,8.69531 -0.3324,4.38141 3.31652,9.40749 1.64554,13.10377 -9.4442,6.902 -18.30763,14.57941 -27.89945,21.27319 -7.79682,5.97143 -12.01308,17.27938 -6.51953,26.10351 5.96124,9.83339 16.4622,15.62938 23.55273,24.55469 7.61207,6.92526 15.1879,18.07599 26.86133,16.86719 13.66111,-1.67877 19.83817,-15.31232 29.40477,-23.2851 11.04336,-11.28388 23.54153,-21.75983 32.13039,-34.92194 4.19007,-10.11577 0.53509,-23.02181 7.83673,-31.82581 6.97539,-5.05659 12.60557,-13.1789 20.8742,-16.18395 15.5909,-2.22521 31.50174,-1.49605 46.99219,-4.18945 13.75225,-3.2175 18.19559,-18.26963 26.01563,-28.23243 8.4883,-12.73936 19.87218,-24.00979 24.70536,-38.75274 -1.74571,-9.18965 -11.50474,-16.3445 -24.29965,-1.14495 z M 179.22461,0.29296875 C 162.41594,3.8521652 144.47869,3.3558554 128.75391,10.835938 c -9.30855,7.343901 -8.79127,21.728583 -2.77344,30.984374 1.09472,4.438256 -4.83596,4.25905 -6.7207,7.046876 -3.08527,2.92002 -6.89821,0.02923 -8.10352,-3.207032 -5.75364,-7.949581 -15.212822,-15.393898 -25.542969,-12.158203 -10.810796,1.288986 -24.950062,1.19929 -31.132812,12.025391 -6.687076,12.335398 3.168902,24.96182 1.564453,37.820312 -0.364196,10.998274 -2.94915,21.886504 -3.509766,32.779294 -11.710034,3.14409 -25.343639,1.9705 -35.40039,9.58789 -8.3675261,8.41927 -9.0096216,20.88151 -13.7109379,31.34961 -2.0063848,10.61576 5.8039501,19.09129 12.9179689,25.6875 6.954701,8.55017 15.490061,19.30867 27.85962,19.38916 5.229902,-1.91084 15.391909,-10.47995 -0.695558,-22.76025 -5.684089,-6.433 -11.368287,-12.86592 -17.054687,-19.29688 2.082361,-5.67759 3.970876,-11.42663 6.197266,-17.05078 12.610357,-3.78071 27.832744,-1.72943 37.884765,-11.61132 8.165921,-11.16549 4.421176,-25.81212 7.707031,-38.505864 1.61724,-12.517596 1.08741,-25.245362 -3.666015,-37.06836 5.302455,4.394611 11.354961,-2.421934 16.613281,1.353516 5.84264,8.913842 15.30434,19.853959 27.2207,16.783203 10.43579,-3.249113 20.13972,-9.424045 28.08985,-16.701172 5.94952,-8.984027 3.0389,-20.763587 -2.44727,-29.222656 11.26242,0.03213 22.14392,-3.192087 33.25977,-4.5 5.5985,12.923983 6.29242,28.537166 16.24609,39.191406 9.23299,7.238473 20.83529,2.67096 30.84742,0.460679 8.25141,-1.621269 17.46703,-5.286722 20.36742,-13.997788 11.36077,2.989299 24.61136,10.142845 35.54297,2.048828 2.13249,-1.405446 5.05765,-6.077414 6.86733,-4.753161 5.11672,12.076343 6.95081,28.469968 20.38773,34.498644 8.10556,3.558417 15.71636,8.704051 24.25861,10.883423 9.46001,0.128949 16.11838,-13.370014 7.84571,-19.705078 -7.56144,-7.571496 -22.0948,-6.753983 -25.75586,-18.169922 -5.22431,-11.694204 -6.10179,-27.480839 -18.39063,-34.416016 -9.86884,-4.625721 -23.33262,0.463712 -26.87695,10.980469 -9.03771,2.523327 -16.69426,-5.718711 -25.78125,-4.779297 -8.69818,-0.308957 -16.63671,5.589321 -19.44531,13.56836 -3.09115,2.355573 -7.43266,0.804424 -10.62695,3.226562 -3.10066,1.751324 -6.65482,-0.529958 -6.72461,-3.970703 C 201.40612,26.631568 200.69212,11.393321 189.6543,3.1074219 186.53497,1.2165426 182.8786,0.18533058 179.22461,0.29296875 Z"
       inkscape:connector-curvature="0"
       sodipodi:nodetypes="ccccccccccccccccccccccccccccccccccccccccccccccccccccccccccccccccccccccccccccccc" />
  </g>
  <g
     id="g3758"
     transform="matrix(0.75146526,0,0,0.75146526,-427.97811,-342.26494)" />
  <g
     id="g3760"
     transform="matrix(0.75146526,0,0,0.75146526,-427.97811,-342.26494)" />
  <g
     id="g3762"
     transform="matrix(0.75146526,0,0,0.75146526,-427.97811,-342.26494)" />
  <g
     id="g3764"
     transform="matrix(0.75146526,0,0,0.75146526,-427.97811,-342.26494)" />
  <g
     id="g3766"
     transform="matrix(0.75146526,0,0,0.75146526,-427.97811,-342.26494)" />
  <g
     id="g3768"
     transform="matrix(0.75146526,0,0,0.75146526,-427.97811,-342.26494)" />
  <g
     id="g3770"
     transform="matrix(0.75146526,0,0,0.75146526,-427.97811,-342.26494)" />
  <g
     id="g3772"
     transform="matrix(0.75146526,0,0,0.75146526,-427.97811,-342.26494)" />
  <g
     id="g3774"
     transform="matrix(0.75146526,0,0,0.75146526,-427.97811,-342.26494)" />
  <g
     id="g3776"
     transform="matrix(0.75146526,0,0,0.75146526,-427.97811,-342.26494)" />
  <g
     id="g3778"
     transform="matrix(0.75146526,0,0,0.75146526,-427.97811,-342.26494)" />
  <g
     id="g3780"
     transform="matrix(0.75146526,0,0,0.75146526,-427.97811,-342.26494)" />
  <g
     id="g3782"
     transform="matrix(0.75146526,0,0,0.75146526,-427.97811,-342.26494)" />
  <g
     id="g3784"
     transform="matrix(0.75146526,0,0,0.75146526,-427.97811,-342.26494)" />
  <g
     id="g3786"
     transform="matrix(0.75146526,0,0,0.75146526,-427.97811,-342.26494)" />
  <style
     id="style5496"
     type="text/css">
	.st0{fill:#039be5;}
	.st1{fill:#FFFFFF;stroke:#D3D3D3;stroke-width:4;stroke-miterlimit:10;}
	.st2{fill:#EBEBED;}
	.st3{fill:#00D1B2;}
</style>
</svg>
