<?xml version="1.0" encoding="UTF-8" standalone="no"?>
<svg
   xmlns:osb="http://www.openswatchbook.org/uri/2009/osb"
   xmlns:dc="http://purl.org/dc/elements/1.1/"
   xmlns:cc="http://creativecommons.org/ns#"
   xmlns:rdf="http://www.w3.org/1999/02/22-rdf-syntax-ns#"
   xmlns:svg="http://www.w3.org/2000/svg"
   xmlns="http://www.w3.org/2000/svg"
   xmlns:sodipodi="http://sodipodi.sourceforge.net/DTD/sodipodi-0.dtd"
   xmlns:inkscape="http://www.inkscape.org/namespaces/inkscape"
   height="511pt"
   viewBox="0 -11 511.99833 511"
   width="511pt"
   version="1.1"
   id="svg8"
   sodipodi:docname="nfc-e.svg"
   inkscape:version="0.92.3 (2405546, 2018-03-11)">
  <metadata
     id="metadata14">
    <rdf:RDF>
      <cc:Work
         rdf:about="">
        <dc:format>image/svg+xml</dc:format>
        <dc:type
           rdf:resource="http://purl.org/dc/dcmitype/StillImage" />
        <dc:title />
      </cc:Work>
    </rdf:RDF>
  </metadata>
  <defs
     id="defs12">
    <linearGradient
       id="linearGradient7113"
       osb:paint="solid">
      <stop
         style="stop-color:#fff000;stop-opacity:1;"
         offset="0"
         id="stop7111" />
    </linearGradient>
    <style
       id="style1723">.cls-1{font-size:30.12px;font-family:Montserrat-Regular, Montserrat;}.cls-1,.cls-3{fill:#455a64;}.cls-2{letter-spacing:-0.02em;}</style>
  </defs>
  <sodipodi:namedview
     pagecolor="#ffffff"
     bordercolor="#666666"
     borderopacity="1"
     objecttolerance="10"
     gridtolerance="10"
     guidetolerance="10"
     inkscape:pageopacity="0"
     inkscape:pageshadow="2"
     inkscape:window-width="2558"
     inkscape:window-height="1055"
     id="namedview10"
     showgrid="false"
     inkscape:zoom="0.84375001"
     inkscape:cx="200.94463"
     inkscape:cy="321.47331"
     inkscape:window-x="0"
     inkscape:window-y="0"
     inkscape:window-maximized="1"
     inkscape:current-layer="g3754"
     showguides="true"
     inkscape:guide-bbox="true" />
  <g
     id="g3014"
     transform="matrix(0.46594571,0,0,0.46594571,-395.52505,-90.848671)" />
  <g
     id="g3016"
     transform="matrix(0.46594571,0,0,0.46594571,-395.52505,-90.848671)" />
  <g
     id="g3018"
     transform="matrix(0.46594571,0,0,0.46594571,-395.52505,-90.848671)" />
  <g
     id="g3020"
     transform="matrix(0.46594571,0,0,0.46594571,-395.52505,-90.848671)" />
  <g
     id="g3022"
     transform="matrix(0.46594571,0,0,0.46594571,-395.52505,-90.848671)" />
  <g
     id="g3024"
     transform="matrix(0.46594571,0,0,0.46594571,-395.52505,-90.848671)" />
  <g
     id="g3026"
     transform="matrix(0.46594571,0,0,0.46594571,-395.52505,-90.848671)" />
  <g
     id="g3028"
     transform="matrix(0.46594571,0,0,0.46594571,-395.52505,-90.848671)" />
  <g
     id="g3030"
     transform="matrix(0.46594571,0,0,0.46594571,-395.52505,-90.848671)" />
  <g
     id="g3032"
     transform="matrix(0.46594571,0,0,0.46594571,-395.52505,-90.848671)" />
  <g
     id="g3034"
     transform="matrix(0.46594571,0,0,0.46594571,-395.52505,-90.848671)" />
  <g
     id="g3036"
     transform="matrix(0.46594571,0,0,0.46594571,-395.52505,-90.848671)" />
  <g
     id="g3038"
     transform="matrix(0.46594571,0,0,0.46594571,-395.52505,-90.848671)" />
  <g
     id="g3040"
     transform="matrix(0.46594571,0,0,0.46594571,-395.52505,-90.848671)" />
  <g
     id="g3042"
     transform="matrix(0.46594571,0,0,0.46594571,-395.52505,-90.848671)" />
  <g
     id="g3476"
     transform="matrix(0.75146526,0,0,0.75146526,-1234.6494,-216.04593)" />
  <g
     id="g3478"
     transform="matrix(0.75146526,0,0,0.75146526,-1234.6494,-216.04593)" />
  <g
     id="g3480"
     transform="matrix(0.75146526,0,0,0.75146526,-1234.6494,-216.04593)" />
  <g
     id="g3482"
     transform="matrix(0.75146526,0,0,0.75146526,-1234.6494,-216.04593)" />
  <g
     id="g3484"
     transform="matrix(0.75146526,0,0,0.75146526,-1234.6494,-216.04593)" />
  <g
     id="g3486"
     transform="matrix(0.75146526,0,0,0.75146526,-1234.6494,-216.04593)" />
  <g
     id="g3488"
     transform="matrix(0.75146526,0,0,0.75146526,-1234.6494,-216.04593)" />
  <g
     id="g3490"
     transform="matrix(0.75146526,0,0,0.75146526,-1234.6494,-216.04593)" />
  <g
     id="g3492"
     transform="matrix(0.75146526,0,0,0.75146526,-1234.6494,-216.04593)" />
  <g
     id="g3494"
     transform="matrix(0.75146526,0,0,0.75146526,-1234.6494,-216.04593)" />
  <g
     id="g3496"
     transform="matrix(0.75146526,0,0,0.75146526,-1234.6494,-216.04593)" />
  <g
     id="g3498"
     transform="matrix(0.75146526,0,0,0.75146526,-1234.6494,-216.04593)" />
  <g
     id="g3500"
     transform="matrix(0.75146526,0,0,0.75146526,-1234.6494,-216.04593)" />
  <g
     id="g3502"
     transform="matrix(0.75146526,0,0,0.75146526,-1234.6494,-216.04593)" />
  <g
     id="g3504"
     transform="matrix(0.75146526,0,0,0.75146526,-1234.6494,-216.04593)" />
  <g
     id="g10"
     transform="matrix(0.75146526,0,0,0.75146526,-134.83234,76.863977)" />
  <g
     id="g12"
     transform="matrix(0.75146526,0,0,0.75146526,-134.83234,76.863977)" />
  <g
     id="g14"
     transform="matrix(0.75146526,0,0,0.75146526,-134.83234,76.863977)" />
  <g
     id="g16"
     transform="matrix(0.75146526,0,0,0.75146526,-134.83234,76.863977)" />
  <g
     id="g18"
     transform="matrix(0.75146526,0,0,0.75146526,-134.83234,76.863977)" />
  <g
     id="g20"
     transform="matrix(0.75146526,0,0,0.75146526,-134.83234,76.863977)" />
  <g
     id="g22"
     transform="matrix(0.75146526,0,0,0.75146526,-134.83234,76.863977)" />
  <g
     id="g24"
     transform="matrix(0.75146526,0,0,0.75146526,-134.83234,76.863977)" />
  <g
     id="g26"
     transform="matrix(0.75146526,0,0,0.75146526,-134.83234,76.863977)" />
  <g
     id="g28"
     transform="matrix(0.75146526,0,0,0.75146526,-134.83234,76.863977)" />
  <g
     id="g30"
     transform="matrix(0.75146526,0,0,0.75146526,-134.83234,76.863977)" />
  <g
     id="g32"
     transform="matrix(0.75146526,0,0,0.75146526,-134.83234,76.863977)" />
  <g
     id="g34"
     transform="matrix(0.75146526,0,0,0.75146526,-134.83234,76.863977)" />
  <g
     id="g36"
     transform="matrix(0.75146526,0,0,0.75146526,-134.83234,76.863977)" />
  <g
     id="g38"
     transform="matrix(0.75146526,0,0,0.75146526,-134.83234,76.863977)" />
  <g
     id="g3229"
     transform="matrix(0.75146526,0,0,0.75146526,-1071.0177,25.953031)" />
  <g
     id="g3231"
     transform="matrix(0.75146526,0,0,0.75146526,-1071.0177,25.953031)" />
  <g
     id="g3233"
     transform="matrix(0.75146526,0,0,0.75146526,-1071.0177,25.953031)" />
  <g
     id="g3235"
     transform="matrix(0.75146526,0,0,0.75146526,-1071.0177,25.953031)" />
  <g
     id="g3237"
     transform="matrix(0.75146526,0,0,0.75146526,-1071.0177,25.953031)" />
  <g
     id="g3239"
     transform="matrix(0.75146526,0,0,0.75146526,-1071.0177,25.953031)" />
  <g
     id="g3241"
     transform="matrix(0.75146526,0,0,0.75146526,-1071.0177,25.953031)" />
  <g
     id="g3243"
     transform="matrix(0.75146526,0,0,0.75146526,-1071.0177,25.953031)" />
  <g
     id="g3245"
     transform="matrix(0.75146526,0,0,0.75146526,-1071.0177,25.953031)" />
  <g
     id="g3247"
     transform="matrix(0.75146526,0,0,0.75146526,-1071.0177,25.953031)" />
  <g
     id="g3249"
     transform="matrix(0.75146526,0,0,0.75146526,-1071.0177,25.953031)" />
  <g
     id="g3251"
     transform="matrix(0.75146526,0,0,0.75146526,-1071.0177,25.953031)" />
  <g
     id="g3253"
     transform="matrix(0.75146526,0,0,0.75146526,-1071.0177,25.953031)" />
  <g
     id="g3255"
     transform="matrix(0.75146526,0,0,0.75146526,-1071.0177,25.953031)" />
  <g
     id="g3257"
     transform="matrix(0.75146526,0,0,0.75146526,-1071.0177,25.953031)" />
  <g
     id="g3603"
     transform="matrix(0.75146526,0,0,0.75146526,-1007.6799,-366.95595)" />
  <g
     id="g3605"
     transform="matrix(0.75146526,0,0,0.75146526,-1007.6799,-366.95595)" />
  <g
     id="g3607"
     transform="matrix(0.75146526,0,0,0.75146526,-1007.6799,-366.95595)" />
  <g
     id="g3609"
     transform="matrix(0.75146526,0,0,0.75146526,-1007.6799,-366.95595)" />
  <g
     id="g3611"
     transform="matrix(0.75146526,0,0,0.75146526,-1007.6799,-366.95595)" />
  <g
     id="g3613"
     transform="matrix(0.75146526,0,0,0.75146526,-1007.6799,-366.95595)" />
  <g
     id="g3615"
     transform="matrix(0.75146526,0,0,0.75146526,-1007.6799,-366.95595)" />
  <g
     id="g3617"
     transform="matrix(0.75146526,0,0,0.75146526,-1007.6799,-366.95595)" />
  <g
     id="g3619"
     transform="matrix(0.75146526,0,0,0.75146526,-1007.6799,-366.95595)" />
  <g
     id="g3621"
     transform="matrix(0.75146526,0,0,0.75146526,-1007.6799,-366.95595)" />
  <g
     id="g3623"
     transform="matrix(0.75146526,0,0,0.75146526,-1007.6799,-366.95595)" />
  <g
     id="g3625"
     transform="matrix(0.75146526,0,0,0.75146526,-1007.6799,-366.95595)" />
  <g
     id="g3627"
     transform="matrix(0.75146526,0,0,0.75146526,-1007.6799,-366.95595)" />
  <g
     id="g3629"
     transform="matrix(0.75146526,0,0,0.75146526,-1007.6799,-366.95595)" />
  <g
     id="g3631"
     transform="matrix(0.75146526,0,0,0.75146526,-1007.6799,-366.95595)" />
  <g
     id="g3754"
     transform="matrix(0.28690778,0,0,0.28690778,294.54616,241.52613)">
    <g
       id="g1451"
       transform="translate(-841.42855,555.71429)" />
    <g
       id="g1453"
       transform="translate(-841.42855,555.71429)" />
    <g
       id="g1455"
       transform="translate(-841.42855,555.71429)" />
    <g
       id="g1457"
       transform="translate(-841.42855,555.71429)" />
    <g
       id="g1459"
       transform="translate(-841.42855,555.71429)" />
    <g
       id="g1461"
       transform="translate(-841.42855,555.71429)" />
    <g
       id="g1463"
       transform="translate(-841.42855,555.71429)" />
    <g
       id="g1465"
       transform="translate(-841.42855,555.71429)" />
    <g
       id="g1467"
       transform="translate(-841.42855,555.71429)" />
    <g
       id="g1469"
       transform="translate(-841.42855,555.71429)" />
    <g
       id="g1471"
       transform="translate(-841.42855,555.71429)" />
    <g
       id="g1473"
       transform="translate(-841.42855,555.71429)" />
    <g
       id="g1475"
       transform="translate(-841.42855,555.71429)" />
    <g
       id="g1477"
       transform="translate(-841.42855,555.71429)" />
    <g
       id="g1479"
       transform="translate(-841.42855,555.71429)" />
    <path
       style="font-size:258.04418945px;font-family:Montserrat-Regular, Montserrat;fill:#000000;fill-opacity:1;stroke:none;stroke-width:6.26468945;stroke-miterlimit:4;stroke-dasharray:none;stroke-opacity:1"
       d="m -820.63555,-135.62562 c -27.28259,0.30198 -47.76409,29.67182 -42.78125,55.595704 0.92018,98.432166 -2.43385,196.933426 1.89063,295.312496 4.91774,22.53992 28.55691,41.36347 51.99023,35.85156 21.68821,-4.80228 35.93472,-27.97 33.43287,-49.52335 0.23737,-44.4811 -0.33537,-88.96228 0.0847,-133.443441 0,-20.940104 0,-41.880208 0,-62.8203125 63.03544,78.7358925 122.25272,160.4968335 186.61133,238.1660135 22.43621,18.22006 61.63819,4.68944 67.38281,-23.82813 5.50336,-25.95604 -0.0421,-52.57316 1.95188,-78.64256 -0.24844,-80.97289 1.96047,-162.011166 -1.66672,-242.93165 -5.94014,-25.89286 -39.53827,-41.98199 -62.58594,-27.31836 -17.96978,10.68506 -26.35531,33.223914 -23.04392,53.396484 0.0786,60.177067 -0.051,120.354171 -10e-4,180.531246 -63.84284,-76.026651 -122.11029,-156.654166 -188.26953,-230.73633 -7.15405,-5.47582 -15.78355,-9.79253 -24.9961,-9.60937 z m 839.91992,0.61914 c -55.180003,0.48298 -112.075343,21.69916 -147.96464,64.846514 -39.86038,45.394518 -58.73772,110.129222 -43.70723,169.311691 15.10516,64.693405 63.29476,123.068915 127.739987,142.817095 47.2275138,14.17165 101.148077,13.65169 144.756103,-11.29757 16.71489,-10.03637 32.08253,-27.81601 30.13086,-48.51367 -1.70047,-16.45582 -16.89652,-30.31495 -33.619142,-29.53515 -21.783357,-0.32018 -41.145089,11.67635 -62.382776,14.76522 -30.0866612,6.19104 -64.811599,2.86434 -88.824175,-17.8452 -26.95261,-23.42919 -38.66618,-59.797178 -38.33034,-94.388706 0.37469,-38.570602 18.59103,-78.816095 52.87909,-99.01569 27.463535,-16.61698 62.163372,-17.79113 92.285794,-7.91532 17.985763,4.95139 37.262479,15.65855 56.356779,8.97001 15.28198,-4.95965 22.96157,-22.1347 21.02149,-37.3125 -1.19355,-13.08044 -9.30867,-24.562724 -20.09999,-31.681334 -25.34709,-19.871 -59.136202,-23.39876 -90.24181,-23.20539 z m -276.44336,4.04297 c -54.00966,2.28391 -108.36932,-2.72106 -162.28125,2.86328 -22.04692,8.14081 -33.65207,33.963064 -29.64648,56.359374 0.86919,97.527173 -2.18597,195.111066 1.62109,292.595706 5.43122,27.06456 40.80438,43.84335 64.35112,28.11017 18.66413,-12.04725 25.75554,-36.30275 22.20867,-57.43829 0.13148,-29.23229 -0.15938,-58.46574 0.15896,-87.69727 35.4653,-3.71666 71.87952,3.89932 107.01563,-4.384767 23.01733,-11.231442 27.17552,-47.820206 6.1914,-63.126953 -12.10335,-10.043643 -28.779,-8.668452 -43.39843,-7.721527 -23.31576,-0.0037 -46.63154,-0.0047 -69.94727,-0.048 0.0955,-27.4362835 -0.20372,-55.107295 0.14844,-82.396485 40.21852,-3.11423 81.16933,3.84193 121.10156,-3.9707 23.32769,-10.8012 28.99337,-47.378478 8.36524,-63.580078 -7.07663,-6.19504 -16.46551,-9.75123 -25.88868,-9.56445 z m 865.72071,101.224614 c -59.06252,-0.65799 -117.74906,38.7881835 -135.1317,95.997008 -16.88646,52.853978 -1.10649,116.599028 43.54391,151.114518 36.43555,29.05914 85.19557,37.83099 130.72037,33.55868 30.25821,-2.48939 61.22422,-9.63879 86.59984,-26.95928 11.02869,-9.20678 16.09774,-27.76844 5.64258,-39.26758 -8.78168,-10.3009 -23.96849,-10.23778 -35.91694,-6.5253 -22.62352,5.16627 -44.88228,12.77511 -68.28221,11.00639 -28.29396,-0.10641 -58.27156,-10.06008 -75.60665,-33.56431 -5.42523,-7.10142 -11.20677,-16.10331 -8.91295,-25.42068 3.61597,-9.033 14.44315,-11.21769 23.03896,-9.63732 53.92201,-0.68352 108.04397,2.87016 161.81651,-2.27674 10.5165,-3.22263 11.87685,-16.34843 11.48828,-25.658203 C 746.12551,56.879367 724.98204,24.67836 698.58711,1.8294585 673.4852,-18.769966 641.02234,-30.108226 608.56172,-29.738896 Z m 0.10351,54.164058 c 26.43647,-0.390141 51.02131,22.154251 51.75,48.884765 0.82675,8.825197 0.1967,17.498684 -0.68554,26.240235 -34.13409,-0.05898 -68.26862,0.131089 -102.40235,-0.0957 -6.96272,-29.207663 9.10838,-64.160684 38.7793,-73.375 4.07276,-1.182201 8.32621,-1.648843 12.55859,-1.654297 z M 374.57344,63.444693 c -54.69986,2.094098 -109.7151,-2.64585 -164.32032,2.625 -21.68291,8.078524 -25.62669,42.109037 -6.44336,54.857417 13.39937,9.9307 30.95001,4.61879 46.20507,5.51169 44.7295,-0.31924 89.596,2.06378 134.22462,-1.57809 22.64216,-7.967 26.42042,-43.641553 6.10938,-56.320314 -4.57791,-3.231687 -10.13498,-5.219912 -15.77539,-5.095703 z"
       id="text1733"
       inkscape:connector-curvature="0" />
  </g>
  <g
     id="g848"
     transform="translate(1.0726436e-5,-9.9128393e-6)">
    <path
       id="path6"
       style="stroke-width:0.98317957"
       d="m 357.97656,82.404297 c -10.45594,0.745673 -13.67788,18.158323 -3.03906,21.503903 11.50944,5.88805 22.77482,14.45922 36.03906,15.31641 11.40583,0.21829 22.86859,-2.26741 34.25782,-1.52344 7.95447,2.7124 12.93606,10.314 19.5371,15.16406 10.20387,8.73294 19.87657,18.94338 32.27149,24.10547 3.76517,1.81012 11.90607,-2.7319 11.66809,2.94052 0.55441,7.97944 3.37788,16.52388 1.66199,24.3505 -39.56636,31.89807 17.2129,42.13822 23.875,1.22851 0.58959,-11.17401 -3.2343,-22.04985 -3.09766,-33.21484 -1.47777,-10.12143 -10.75885,-19.54076 -21.48437,-17.67969 -5.834,0.47099 -11.74927,-1.6667 -15.36524,-6.34179 -13.57929,-10.71096 -25.22124,-24.20279 -40.51562,-32.505863 -14.13572,-3.06571 -28.39266,1.339836 -42.59375,0.521484 C 379.16567,94.256877 370.50652,82.758814 357.97656,82.404297 Z M 414.56001,310.5984 c -10.73731,15.41886 -21.39697,30.88712 -32.31196,46.1809 -18.1761,2.52688 -37.02114,0.29572 -54.58789,6.2207 -10.19969,7.03721 -18.79053,16.15847 -28.14649,24.18945 -9.66252,11.32071 -2.26235,28.76378 -12.24219,39.79297 -13.27911,11.99196 -24.94143,25.74347 -38.27148,37.73047 -8.6584,-8.859 -18.10281,-16.95228 -26.19336,-26.35937 11.46911,-10.40485 26.94029,-17.11994 35.20117,-30.60743 3.04625,-9.9075 -0.22992,-20.89577 -5.72461,-29.20898 -6.78294,-6.19698 -19.91982,-1.00889 -19.02343,8.69531 -0.3324,4.38141 3.31652,9.40749 1.64554,13.10377 -9.4442,6.902 -18.30763,14.57941 -27.89945,21.27319 -7.79682,5.97143 -12.01308,17.27938 -6.51953,26.10351 5.96124,9.83339 16.4622,15.62938 23.55273,24.55469 7.61207,6.92526 15.1879,18.07599 26.86133,16.86719 13.66111,-1.67877 19.83817,-15.31232 29.40477,-23.2851 11.04336,-11.28388 23.54153,-21.75983 32.13039,-34.92194 4.19007,-10.11577 0.53509,-23.02181 7.83673,-31.82581 6.97539,-5.05659 12.60557,-13.1789 20.8742,-16.18395 15.5909,-2.22521 31.50174,-1.49605 46.99219,-4.18945 13.75225,-3.2175 18.19559,-18.26963 26.01563,-28.23243 8.4883,-12.73936 19.87218,-24.00979 24.70536,-38.75274 -1.74571,-9.18965 -11.50474,-16.3445 -24.29965,-1.14495 z M 179.22461,0.29296875 C 162.41594,3.8521652 144.47869,3.3558554 128.75391,10.835938 c -9.30855,7.343901 -8.79127,21.728583 -2.77344,30.984374 1.09472,4.438256 -4.83596,4.25905 -6.7207,7.046876 -3.08527,2.92002 -6.89821,0.02923 -8.10352,-3.207032 -5.75364,-7.949581 -15.212822,-15.393898 -25.542969,-12.158203 -10.810796,1.288986 -24.950062,1.19929 -31.132812,12.025391 -6.687076,12.335398 3.168902,24.96182 1.564453,37.820312 -0.364196,10.998274 -2.94915,21.886504 -3.509766,32.779294 -11.710034,3.14409 -25.343639,1.9705 -35.40039,9.58789 -8.3675261,8.41927 -9.0096216,20.88151 -13.7109379,31.34961 -2.0063848,10.61576 5.8039501,19.09129 12.9179689,25.6875 6.954701,8.55017 15.490061,19.30867 27.85962,19.38916 5.229902,-1.91084 15.391909,-10.47995 -0.695558,-22.76025 -5.684089,-6.433 -11.368287,-12.86592 -17.054687,-19.29688 2.082361,-5.67759 3.970876,-11.42663 6.197266,-17.05078 12.610357,-3.78071 27.832744,-1.72943 37.884765,-11.61132 8.165921,-11.16549 4.421176,-25.81212 7.707031,-38.505864 1.61724,-12.517596 1.08741,-25.245362 -3.666015,-37.06836 5.302455,4.394611 11.354961,-2.421934 16.613281,1.353516 5.84264,8.913842 15.30434,19.853959 27.2207,16.783203 10.43579,-3.249113 20.13972,-9.424045 28.08985,-16.701172 5.94952,-8.984027 3.0389,-20.763587 -2.44727,-29.222656 11.26242,0.03213 22.14392,-3.192087 33.25977,-4.5 5.5985,12.923983 6.29242,28.537166 16.24609,39.191406 9.23299,7.238473 20.83529,2.67096 30.84742,0.460679 8.25141,-1.621269 17.46703,-5.286722 20.36742,-13.997788 11.36077,2.989299 24.61136,10.142845 35.54297,2.048828 2.13249,-1.405446 5.05765,-6.077414 6.86733,-4.753161 5.11672,12.076343 6.95081,28.469968 20.38773,34.498644 8.10556,3.558417 15.71636,8.704051 24.25861,10.883423 9.46001,0.128949 16.11838,-13.370014 7.84571,-19.705078 -7.56144,-7.571496 -22.0948,-6.753983 -25.75586,-18.169922 -5.22431,-11.694204 -6.10179,-27.480839 -18.39063,-34.416016 -9.86884,-4.625721 -23.33262,0.463712 -26.87695,10.980469 -9.03771,2.523327 -16.69426,-5.718711 -25.78125,-4.779297 -8.69818,-0.308957 -16.63671,5.589321 -19.44531,13.56836 -3.09115,2.355573 -7.43266,0.804424 -10.62695,3.226562 -3.10066,1.751324 -6.65482,-0.529958 -6.72461,-3.970703 C 201.40612,26.631568 200.69212,11.393321 189.6543,3.1074219 186.53497,1.2165426 182.8786,0.18533058 179.22461,0.29296875 Z"
       inkscape:connector-curvature="0"
       sodipodi:nodetypes="ccccccccccccccccccccccccccccccccccccccccccccccccccccccccccccccccccccccccccccccc" />
  </g>
  <g
     id="g3758"
     transform="matrix(0.75146526,0,0,0.75146526,-427.97811,-342.26494)" />
  <g
     id="g3760"
     transform="matrix(0.75146526,0,0,0.75146526,-427.97811,-342.26494)" />
  <g
     id="g3762"
     transform="matrix(0.75146526,0,0,0.75146526,-427.97811,-342.26494)" />
  <g
     id="g3764"
     transform="matrix(0.75146526,0,0,0.75146526,-427.97811,-342.26494)" />
  <g
     id="g3766"
     transform="matrix(0.75146526,0,0,0.75146526,-427.97811,-342.26494)" />
  <g
     id="g3768"
     transform="matrix(0.75146526,0,0,0.75146526,-427.97811,-342.26494)" />
  <g
     id="g3770"
     transform="matrix(0.75146526,0,0,0.75146526,-427.97811,-342.26494)" />
  <g
     id="g3772"
     transform="matrix(0.75146526,0,0,0.75146526,-427.97811,-342.26494)" />
  <g
     id="g3774"
     transform="matrix(0.75146526,0,0,0.75146526,-427.97811,-342.26494)" />
  <g
     id="g3776"
     transform="matrix(0.75146526,0,0,0.75146526,-427.97811,-342.26494)" />
  <g
     id="g3778"
     transform="matrix(0.75146526,0,0,0.75146526,-427.97811,-342.26494)" />
  <g
     id="g3780"
     transform="matrix(0.75146526,0,0,0.75146526,-427.97811,-342.26494)" />
  <g
     id="g3782"
     transform="matrix(0.75146526,0,0,0.75146526,-427.97811,-342.26494)" />
  <g
     id="g3784"
     transform="matrix(0.75146526,0,0,0.75146526,-427.97811,-342.26494)" />
  <g
     id="g3786"
     transform="matrix(0.75146526,0,0,0.75146526,-427.97811,-342.26494)" />
  <style
     id="style5496"
     type="text/css">
	.st0{fill:#039be5;}
	.st1{fill:#FFFFFF;stroke:#D3D3D3;stroke-width:4;stroke-miterlimit:10;}
	.st2{fill:#EBEBED;}
	.st3{fill:#00D1B2;}
</style>
</svg>
