<?xml version="1.0" encoding="UTF-8" standalone="no"?>
<!-- Generator: Adobe Illustrator 19.0.0, SVG Export Plug-In . SVG Version: 6.00 Build 0)  -->

<svg
   xmlns:dc="http://purl.org/dc/elements/1.1/"
   xmlns:cc="http://creativecommons.org/ns#"
   xmlns:rdf="http://www.w3.org/1999/02/22-rdf-syntax-ns#"
   xmlns:svg="http://www.w3.org/2000/svg"
   xmlns="http://www.w3.org/2000/svg"
   xmlns:sodipodi="http://sodipodi.sourceforge.net/DTD/sodipodi-0.dtd"
   xmlns:inkscape="http://www.inkscape.org/namespaces/inkscape"
   version="1.1"
   id="Capa_1"
   x="0px"
   y="0px"
   viewBox="0 0 512 512"
   style="enable-background:new 0 0 512 512;"
   xml:space="preserve"
   sodipodi:docname="radar.svg"
   inkscape:version="0.92.3 (2405546, 2018-03-11)"><metadata
   id="metadata57"><rdf:RDF><cc:Work
       rdf:about=""><dc:format>image/svg+xml</dc:format><dc:type
         rdf:resource="http://purl.org/dc/dcmitype/StillImage" /></cc:Work></rdf:RDF></metadata><defs
   id="defs55">
	

			
			
			
			
			
			
			
		</defs><sodipodi:namedview
   pagecolor="#ffffff"
   bordercolor="#666666"
   borderopacity="1"
   objecttolerance="10"
   gridtolerance="10"
   guidetolerance="10"
   inkscape:pageopacity="0"
   inkscape:pageshadow="2"
   inkscape:window-width="1918"
   inkscape:window-height="1055"
   id="namedview53"
   showgrid="false"
   inkscape:zoom="0.4609375"
   inkscape:cx="256"
   inkscape:cy="256"
   inkscape:window-x="0"
   inkscape:window-y="0"
   inkscape:window-maximized="1"
   inkscape:current-layer="g18" />
<g
   id="g18">
		<g
   id="g1140"><path
     inkscape:connector-curvature="0"
     id="path2"
     d="M 253.81055,87.013672 C 184.08196,86.793205 117.12533,135.6519 95.773726,201.97347 c -19.418189,56.80197 -5.906524,124.28678 35.671584,168.24528 36.60119,40.01799 93.01753,61.08111 146.79437,53.37644 9.02217,-1.386 19.0957,-2.4026 26.7193,-7.9741 5.95549,-7.38469 -0.0125,-21.56222 -10.4121,-19.17968 -11.97395,1.39363 -23.87361,5.40624 -36.22657,4.66406 -60.3378,1.47141 -119.40132,-38.83013 -138.89258,-96.16797 -17.81831,-49.41718 -6.76006,-108.4313 29.55479,-146.7899 34.99171,-38.40575 91.50587,-56.45716 141.98623,-42.80191 7.15469,1.33898 14.2745,4.98695 21.54102,4.50392 8.91369,-2.65553 12.19917,-17.39412 2.68554,-21.531251 -11.54086,-6.309836 -25.12137,-7.418836 -37.73036,-9.963458 -7.7725,-0.992079 -15.71044,-1.429237 -23.6544,-1.341229 z" /><path
     inkscape:connector-curvature="0"
     id="circle4"
     d="m 138.75977,32.044922 c -14.73591,0.284997 -22.4528,20.467181 -11.65821,30.505859 9.71926,11.042898 30.05173,3.940604 30.80469,-10.740234 1.29311,-10.80889 -8.28898,-20.718021 -19.14648,-19.765625 z" /><path
     inkscape:connector-curvature="0"
     id="path6"
     d="M 77.623047,89.050781 C 66.468863,90.739083 62.30856,102.86467 55.358831,110.22118 8.9915447,173.07785 -4.5054722,258.87427 20.121094,332.83594 c 3.741735,8.57684 16.895883,9.71013 21.332031,1.27148 4.955125,-8.24444 -2.174296,-16.64475 -3.177734,-24.9414 C 20.8382,238.99609 40.221414,160.96544 88.359375,107.04102 93.191338,99.448938 86.707564,88.261105 77.623047,89.050781 Z" /><path
     inkscape:connector-curvature="0"
     id="circle8"
     d="m 373.75977,136.04492 c -14.73591,0.285 -22.4528,20.46718 -11.65821,30.50586 9.71926,11.0429 30.05173,3.94061 30.80469,-10.74023 1.29311,-10.80889 -8.28898,-20.71802 -19.14648,-19.76563 z" /><path
     inkscape:connector-curvature="0"
     id="path10"
     d="M 254.15625,8.0878906 C 238.3552,9.2030853 221.50848,7.382465 207.08984,15.046875 c -6.74725,6.876413 -1.20488,21.931321 9.27198,19.940053 15.46255,-1.466766 30.87891,-4.030392 46.47179,-3.004418 79.22817,2.022026 155.64997,49.523572 191.71823,120.23351 33.244,63.23185 34.24314,142.62487 0.84773,206.01676 -8.78907,17.1592 -19.8554,33.1297 -32.69449,47.5055 -12.98781,-12.99331 -25.97933,-25.98291 -38.96875,-38.97461 34.54285,-39.70095 49.85676,-96.46643 36.53515,-147.5039 -5.2626,-8.88042 -22.49188,-5.47891 -21.73632,5.71484 0.17514,11.55228 3.81469,23.46094 2.43164,35.4082 -0.91973,32.51827 -13.21768,64.55781 -34.20899,89.40235 -13.29529,-13.2939 -26.59138,-26.58701 -39.88672,-39.88086 28.8051,-36.14664 22.18501,-94.21359 -14.23538,-122.66669 -30.76802,-25.6004 -79.18633,-27.4293 -110.60251,-2.04034 -29.72526,22.51463 -43.45427,64.709 -30.13672,99.84961 9.29393,26.14024 31.02549,49.17902 58.55274,55.53124 10.65038,0.10599 16.17472,-16.19022 6.46289,-21.84765 -7.04089,-3.86961 -15.17414,-5.7704 -21.12954,-11.52811 -24.40807,-19.03583 -32.72401,-56.48911 -16.39976,-83.2922 14.61193,-25.84215 47.94863,-39.79732 76.35968,-30.03861 34.23142,10.33877 55.24965,52.25051 40.93329,85.51322 -1.72805,4.69761 -4.05186,9.14327 -6.4375,13.5332 -17.83948,-15.51489 -32.35088,-35.294 -51.55273,-48.81445 -9.80256,-2.57236 -19.72466,10.96794 -12.18555,18.67968 7.96149,10.44187 18.92294,18.08185 27.40825,28.07295 48.07312,47.64884 95.2689,96.28584 143.998,143.2083 8.99299,3.6559 16.69612,-4.62278 21.56641,-11.16601 C 499.75921,358.00311 520.20138,259.4146 490.92531,175.94987 466.14764,103.03371 405.86433,42.815274 332.04626,19.857246 306.93829,11.814461 280.49933,7.5781987 254.15625,8.0878906 Z" /><path
     inkscape:connector-curvature="0"
     id="path12"
     d="m 125.44336,441.64453 c -11.04762,0.66234 -14.59057,18.97978 -3.48601,22.66753 70.54226,46.89479 165.97915,52.88403 241.81804,14.65864 8.42463,-6.59536 1.49819,-23.65984 -9.43945,-20.54101 -11.69354,2.71687 -21.86354,9.82315 -33.71113,12.16239 -63.28967,19.39482 -134.72709,8.24838 -189.73809,-28.30497 -1.74127,-0.60453 -3.61704,-0.66967 -5.44336,-0.64258 z" /><path
     inkscape:connector-curvature="0"
     id="circle14"
     d="m 67.759766,381.04492 c -14.735905,0.285 -22.452796,20.46718 -11.658204,30.50586 9.719262,11.0429 30.051732,3.94061 30.804688,-10.74023 1.293115,-10.80889 -8.28898,-20.71802 -19.146484,-19.76563 z" /></g>
	</g>
<g
   id="g22">
</g>
<g
   id="g24">
</g>
<g
   id="g26">
</g>
<g
   id="g28">
</g>
<g
   id="g30">
</g>
<g
   id="g32">
</g>
<g
   id="g34">
</g>
<g
   id="g36">
</g>
<g
   id="g38">
</g>
<g
   id="g40">
</g>
<g
   id="g42">
</g>
<g
   id="g44">
</g>
<g
   id="g46">
</g>
<g
   id="g48">
</g>
<g
   id="g50">
</g>
</svg>