<?xml version="1.0" encoding="UTF-8" standalone="no"?>
<svg
   xmlns:dc="http://purl.org/dc/elements/1.1/"
   xmlns:cc="http://creativecommons.org/ns#"
   xmlns:rdf="http://www.w3.org/1999/02/22-rdf-syntax-ns#"
   xmlns:svg="http://www.w3.org/2000/svg"
   xmlns="http://www.w3.org/2000/svg"
   xmlns:sodipodi="http://sodipodi.sourceforge.net/DTD/sodipodi-0.dtd"
   xmlns:inkscape="http://www.inkscape.org/namespaces/inkscape"
   height="512pt"
   viewBox="0 -20 512 512"
   width="512pt"
   version="1.1"
   id="svg4"
   sodipodi:docname="website.svg"
   inkscape:version="0.92.3 (2405546, 2018-03-11)">
  <metadata
     id="metadata10">
    <rdf:RDF>
      <cc:Work
         rdf:about="">
        <dc:format>image/svg+xml</dc:format>
        <dc:type
           rdf:resource="http://purl.org/dc/dcmitype/StillImage" />
      </cc:Work>
    </rdf:RDF>
  </metadata>
  <defs
     id="defs8" />
  <sodipodi:namedview
     pagecolor="#ffffff"
     bordercolor="#666666"
     borderopacity="1"
     objecttolerance="10"
     gridtolerance="10"
     guidetolerance="10"
     inkscape:pageopacity="0"
     inkscape:pageshadow="2"
     inkscape:window-width="1918"
     inkscape:window-height="1055"
     id="namedview6"
     showgrid="false"
     showguides="true"
     inkscape:guide-bbox="true"
     inkscape:zoom="1.1667481"
     inkscape:cx="226.10139"
     inkscape:cy="324.3534"
     inkscape:window-x="0"
     inkscape:window-y="0"
     inkscape:window-maximized="1"
     inkscape:current-layer="svg4" />
  <path
     style="stroke-width:1.03391361"
     d="M 458.3225,1.1068586 C 321.47829,1.6425168 184.61176,0.79075851 47.780897,1.5459022 19.4578,4.5133598 -3.2720583,33.126426 0.73143352,61.427535 0.49903256,176.30935 0.20043523,291.20565 0.95049637,406.07902 3.8751117,444.44101 41.228658,475.96166 79.528711,472.83782 c 120.796589,-0.22103 241.762609,0.40653 362.455549,-0.32636 37.3843,0.1357 71.00672,-33.92158 71.31801,-71.10101 1.09019,-6.63704 -2.34074,-13.98753 -9.51079,-15.1714 -8.70883,-2.64302 -16.26317,6.04221 -15.54789,14.3614 0.28793,26.62699 -25.5789,48.70776 -51.54655,47.62821 -58.487,-0.88038 -117.03648,-0.11812 -175.5473,-0.2769 -64.89562,-0.0519 -129.82872,0.28357 -194.699856,-0.70367 C 41.118802,443.29711 22.225788,417.19882 25.428271,391.93028 25.097955,277.00385 23.005857,162.05051 23.883385,47.140649 25.615941,35.462467 37.604695,27.578343 49.038026,29.034715 c 22.896632,-0.442005 45.644611,1.738135 68.518424,1.543789 114.25225,2.589805 228.55358,0.438832 342.80564,0.718111 13.09501,1.517119 23.33006,13.433011 23.82978,26.449868 6.11266,33.577941 5.03518,67.904347 5.69974,101.883067 0.0231,46.84569 -2.82741,93.87383 -0.39094,140.59791 4.02412,9.64702 21.61077,9.48187 23.13163,-1.88661 2.58384,-12.76989 -0.43288,-25.84155 0.80163,-38.73636 -0.39604,-71.55524 1.06692,-143.15918 -0.83694,-214.681888 C 508.1069,19.889725 483.77229,0.13929784 458.3225,1.1068586 Z M 112.77392,93.354864 c -14.575611,3.258219 -30.08086,14.352806 -30.945005,30.393716 -0.09217,79.51153 -0.194836,159.04521 0.859191,238.54105 2.306534,18.28131 21.853854,30.81395 39.577334,27.88095 27.44342,-0.97215 55.11038,1.91384 82.35054,-1.70761 16.50661,-5.37601 25.40738,-24.38 22.45133,-40.7642 -0.47636,-76.84378 1.02652,-153.74018 -0.82587,-230.54941 -2.7453,-14.62297 -17.93779,-25.308137 -32.66667,-22.616317 -26.9405,0.159905 -53.86023,-1.367308 -80.80085,-1.178179 z m 88.47674,24.137686 c 0.11764,82.56786 0.81451,165.13366 0.92957,247.70153 -31.67433,0 -63.34867,0 -95.02301,0 -0.19046,-82.73846 -0.38601,-165.47689 -0.57657,-248.21535 31.55603,-0.50772 63.11204,-1.0164 94.66805,-1.52577 6.5e-4,0.67987 10e-4,1.35973 0.002,2.03959 z m 210.14573,70.68137 c -38.3509,0.87024 -76.75448,-0.32751 -115.07957,0.35889 -11.72444,-0.1606 -15.58448,18.12539 -5.38528,23.02572 12.09443,4.27019 25.01265,0.35424 37.63605,1.68935 31.47915,-0.46367 63.22605,1.49891 94.50346,-1.15004 9.40394,-4.51787 8.46139,-21.69996 -2.76128,-23.12965 -2.90012,-0.78027 -5.929,-0.84287 -8.91338,-0.79427 z m 0,157.15383 c -38.3618,0.87794 -76.77741,-0.33419 -115.1129,0.36477 -11.71359,-0.12268 -15.55872,18.17094 -5.3088,23.04141 12.49068,4.23273 25.65612,0.3214 38.59697,1.66021 31.13257,-0.4132 62.53911,1.46458 93.46801,-1.12678 9.42926,-4.50134 8.514,-21.70114 -2.7299,-23.14536 -2.90001,-0.78139 -5.92886,-0.83891 -8.91338,-0.79425 z"
     id="path2"
     inkscape:connector-curvature="0" />
</svg>
