<?xml version="1.0" encoding="UTF-8" standalone="no"?>
<svg
   xmlns:dc="http://purl.org/dc/elements/1.1/"
   xmlns:cc="http://creativecommons.org/ns#"
   xmlns:rdf="http://www.w3.org/1999/02/22-rdf-syntax-ns#"
   xmlns:svg="http://www.w3.org/2000/svg"
   xmlns="http://www.w3.org/2000/svg"
   xmlns:sodipodi="http://sodipodi.sourceforge.net/DTD/sodipodi-0.dtd"
   xmlns:inkscape="http://www.inkscape.org/namespaces/inkscape"
   height="512pt"
   viewBox="0 0 512 512"
   width="512pt"
   version="1.1"
   id="svg27"
   sodipodi:docname="form-1.svg"
   inkscape:version="0.92.3 (2405546, 2018-03-11)">
  <metadata
     id="metadata33">
    <rdf:RDF>
      <cc:Work
         rdf:about="">
        <dc:format>image/svg+xml</dc:format>
        <dc:type
           rdf:resource="http://purl.org/dc/dcmitype/StillImage" />
        <dc:title></dc:title>
      </cc:Work>
    </rdf:RDF>
  </metadata>
  <defs
     id="defs31" />
  <sodipodi:namedview
     pagecolor="#ffffff"
     bordercolor="#666666"
     borderopacity="1"
     objecttolerance="10"
     gridtolerance="10"
     guidetolerance="10"
     inkscape:pageopacity="0"
     inkscape:pageshadow="2"
     inkscape:window-width="1918"
     inkscape:window-height="1055"
     id="namedview29"
     showgrid="false"
     inkscape:zoom="0.9777961"
     inkscape:cx="362.81322"
     inkscape:cy="414.32947"
     inkscape:window-x="0"
     inkscape:window-y="0"
     inkscape:window-maximized="1"
     inkscape:current-layer="svg27"
     showguides="true"
     inkscape:guide-bbox="true" />
  <linearGradient
     id="a"
     gradientUnits="userSpaceOnUse"
     x1="0"
     x2="512"
     y1="256"
     y2="256">
    <stop
       offset="0"
       stop-color="#00f1ff"
       id="stop2" />
    <stop
       offset=".231"
       stop-color="#00d8ff"
       id="stop4" />
    <stop
       offset=".5138"
       stop-color="#00c0ff"
       id="stop6" />
    <stop
       offset=".7773"
       stop-color="#00b2ff"
       id="stop8" />
    <stop
       offset="1"
       stop-color="#00adff"
       id="stop10" />
  </linearGradient>
  <path
     style="fill:#000000;fill-opacity:0.8;stroke:none;stroke-width:1.33017385;stroke-opacity:1"
     inkscape:connector-curvature="0"
     id="path15"
     d="M 397.15428,276.61051 113.31685,275.07645 C 92.424076,274.96353 96.137516,258.84738 96.137516,237.9543 v -35.764 c 0,-20.89309 -3.713436,-39.53678 17.179334,-39.42324 l 282.30336,1.53406 c 20.88757,0.1135 20.24745,16.99609 20.24745,37.88918 v 35.764 c 0,20.89308 2.17939,38.76913 -18.71338,38.65621 z M 112.75357,257.34567 H 397.32209 V 181.40959 H 112.75357 Z M 377.9785,204.20114 h 0.0156 z"
     sodipodi:nodetypes="ssssssssscccccccc" />
  <path
     style="fill:#000000;fill-opacity:0.8;stroke:none;stroke-width:1.33017385;stroke-opacity:1"
     inkscape:connector-curvature="0"
     id="path17"
     d="m 393.61397,114.43137 -275.98978,0 c -11.0207,0 -14.58339,2.57357 -14.58339,-8.44714 0,-11.015503 2.02863,-10.74822 13.04933,-10.74822 h 279.82493 c 11.0207,0 16.88448,-1.034314 16.88448,9.98119 0,11.02071 -8.16487,9.21417 -19.18557,9.21417 z"
     sodipodi:nodetypes="sssssss" />
  <path
     style="fill:#000000;fill-opacity:0.8;stroke:none;stroke-width:1.33017385;stroke-opacity:1"
     inkscape:connector-curvature="0"
     id="path19"
     d="M 395.14803,357.10767 H 258.82079 c -11.0155,0 -11.32737,0.7585 -11.51526,-7.68009 -0.21311,-9.57114 1.26679,-8.44715 12.28229,-8.44715 h 136.32724 c 11.0207,0 15.84639,-1.66266 16.11744,6.91309 0.27119,8.58001 -5.86377,9.21415 -16.88447,9.21415 z"
     sodipodi:nodetypes="sssssss" />
  <path
     style="fill:#000000;fill-opacity:0.8;stroke:none;stroke-width:1.33017385;stroke-opacity:1"
     inkscape:connector-curvature="0"
     id="path21"
     d="m 169.90502,416.54054 h -35.87833 c -20.89308,0 -38.863759,4.47975 -38.656205,-16.4071 l 0.767031,-77.1889 c 0.207606,-20.89205 16.996094,-17.94635 37.889174,-17.94635 h 35.87833 c 20.89308,0 37.47809,-2.94268 37.88916,17.94635 l 1.53406,77.95593 c 0.41097,20.88384 -18.53014,15.64007 -39.42322,15.64007 z m -57.15145,-16.5271 h 77.47013 v -77.47013 h -77.47013 z m 57.15145,-55.11004 h 0.0106 z"
     sodipodi:nodetypes="ssssssssscccccccc" />
  <path
     style="fill:#000000;fill-opacity:0.8;stroke:none;stroke-width:1.32984126;stroke-miterlimit:4;stroke-dasharray:none;stroke-opacity:1"
     inkscape:connector-curvature="0"
     id="path23"
     d="M 413.85163,487.61651 H 98.153556 c -40.67421,0 -73.76749,-33.09328 -73.76749,-73.76749 V 98.150955 c 0,-40.674205 33.09328,-73.767485 73.76749,-73.767485 H 413.85163 c 40.67421,0 73.76229,33.09328 73.76229,73.767485 V 324.16101 c 0,11.02069 -0.0305,21.00247 -12.2823,18.41854 -7.12949,-1.50362 -6.95061,-10.46604 -6.91308,-21.48666 L 469.18557,95.849862 C 469.24914,77.180775 455.53175,45.879945 419.22085,45.879945 H 94.318401 c -26.339501,0 -49.202892,17.40687 -49.202892,53.038041 V 410.7809 c 0,18.66919 12.891987,56.10097 51.503985,56.10097 H 420.75491 c 18.66919,0 36.92519,-10.5857 46.12957,-37.69223 3.5435,-10.4355 -1.71614,-33.46612 9.24823,-34.5262 11.40422,-1.10261 11.48121,8.16487 11.48121,19.18558 0.005,40.67421 -33.08808,73.76749 -73.76229,73.76749 z"
     sodipodi:nodetypes="ssssssssssssssssssscs" />
</svg>
