<?xml version="1.0" encoding="UTF-8" standalone="no"?>
<!-- Generator: Adobe Illustrator 16.0.0, SVG Export Plug-In . SVG Version: 6.00 Build 0)  -->

<svg
   xmlns:dc="http://purl.org/dc/elements/1.1/"
   xmlns:cc="http://creativecommons.org/ns#"
   xmlns:rdf="http://www.w3.org/1999/02/22-rdf-syntax-ns#"
   xmlns:svg="http://www.w3.org/2000/svg"
   xmlns="http://www.w3.org/2000/svg"
   xmlns:sodipodi="http://sodipodi.sourceforge.net/DTD/sodipodi-0.dtd"
   xmlns:inkscape="http://www.inkscape.org/namespaces/inkscape"
   version="1.1"
   id="Capa_1"
   x="0px"
   y="0px"
   width="570.19098"
   height="315.19098"
   viewBox="0 0 570.191 315.19099"
   xml:space="preserve"
   sodipodi:docname="vimbo-menu-open.svg"
   inkscape:version="0.92.3 (2405546, 2018-03-11)"><metadata
   id="metadata65"><rdf:RDF><cc:Work
       rdf:about=""><dc:format>image/svg+xml</dc:format><dc:type
         rdf:resource="http://purl.org/dc/dcmitype/StillImage" /><dc:title></dc:title></cc:Work></rdf:RDF></metadata><defs
   id="defs63">
	

		
		
		
		
	
	

		
	
	
</defs><sodipodi:namedview
   pagecolor="#ffffff"
   bordercolor="#666666"
   borderopacity="1"
   objecttolerance="10"
   gridtolerance="10"
   guidetolerance="10"
   inkscape:pageopacity="0"
   inkscape:pageshadow="2"
   inkscape:window-width="2558"
   inkscape:window-height="1055"
   id="namedview61"
   showgrid="false"
   inkscape:zoom="1.557265"
   inkscape:cx="211.49244"
   inkscape:cy="109.66374"
   inkscape:window-x="0"
   inkscape:window-y="0"
   inkscape:window-maximized="1"
   inkscape:current-layer="Capa_1"
   showguides="true"
   inkscape:guide-bbox="true"><sodipodi:guide
     position="169.82206,408.6627"
     orientation="0,1"
     id="guide1814"
     inkscape:locked="false" /><sodipodi:guide
     position="-242.73326,308.23271"
     orientation="0,1"
     id="guide1818"
     inkscape:locked="false" /><sodipodi:guide
     position="33.391877,65.499451"
     orientation="0,1"
     id="guide2066"
     inkscape:locked="false" /><sodipodi:guide
     position="52.656422,6.4215148"
     orientation="0,1"
     id="guide2068"
     inkscape:locked="false" /></sodipodi:namedview>

<g
   id="g30"
   transform="translate(0,-291)">
</g>
<g
   id="g32"
   transform="translate(0,-291)">
</g>
<g
   id="g34"
   transform="translate(0,-291)">
</g>
<g
   id="g36"
   transform="translate(0,-291)">
</g>
<g
   id="g38"
   transform="translate(0,-291)">
</g>
<g
   id="g40"
   transform="translate(0,-291)">
</g>
<g
   id="g42"
   transform="translate(0,-291)">
</g>
<g
   id="g44"
   transform="translate(0,-291)">
</g>
<g
   id="g46"
   transform="translate(0,-291)">
</g>
<g
   id="g48"
   transform="translate(0,-291)">
</g>
<g
   id="g50"
   transform="translate(0,-291)">
</g>
<g
   id="g52"
   transform="translate(0,-291)">
</g>
<g
   id="g54"
   transform="translate(0,-291)">
</g>
<g
   id="g56"
   transform="translate(0,-291)">
</g>
<g
   id="g58"
   transform="translate(0,-291)">
</g>
<g
   id="g1631"
   transform="matrix(0.91243383,0,0,0.66844139,139.4151,1.4171535)">
</g><g
   id="g1633"
   transform="matrix(0.91243383,0,0,0.66844139,139.4151,1.4171535)">
</g><g
   id="g1635"
   transform="matrix(0.91243383,0,0,0.66844139,139.4151,1.4171535)">
</g><g
   id="g1637"
   transform="matrix(0.91243383,0,0,0.66844139,139.4151,1.4171535)">
</g><g
   id="g1639"
   transform="matrix(0.91243383,0,0,0.66844139,139.4151,1.4171535)">
</g><g
   id="g1641"
   transform="matrix(0.91243383,0,0,0.66844139,139.4151,1.4171535)">
</g><g
   id="g1643"
   transform="matrix(0.91243383,0,0,0.66844139,139.4151,1.4171535)">
</g><g
   id="g1645"
   transform="matrix(0.91243383,0,0,0.66844139,139.4151,1.4171535)">
</g><g
   id="g1647"
   transform="matrix(0.91243383,0,0,0.66844139,139.4151,1.4171535)">
</g><g
   id="g1649"
   transform="matrix(0.91243383,0,0,0.66844139,139.4151,1.4171535)">
</g><g
   id="g1651"
   transform="matrix(0.91243383,0,0,0.66844139,139.4151,1.4171535)">
</g><g
   id="g1653"
   transform="matrix(0.91243383,0,0,0.66844139,139.4151,1.4171535)">
</g><g
   id="g1655"
   transform="matrix(0.91243383,0,0,0.66844139,139.4151,1.4171535)">
</g><g
   id="g1657"
   transform="matrix(0.91243383,0,0,0.66844139,139.4151,1.4171535)">
</g><g
   id="g1659"
   transform="matrix(0.91243383,0,0,0.66844139,139.4151,1.4171535)">
</g><g
   id="g1911"
   transform="translate(719.59986,103.67122)">
</g><g
   id="g1913"
   transform="translate(719.59986,103.67122)">
</g><g
   id="g1915"
   transform="translate(719.59986,103.67122)">
</g><g
   id="g1917"
   transform="translate(719.59986,103.67122)">
</g><g
   id="g1919"
   transform="translate(719.59986,103.67122)">
</g><g
   id="g1921"
   transform="translate(719.59986,103.67122)">
</g><g
   id="g1923"
   transform="translate(719.59986,103.67122)">
</g><g
   id="g1925"
   transform="translate(719.59986,103.67122)">
</g><g
   id="g1927"
   transform="translate(719.59986,103.67122)">
</g><g
   id="g1929"
   transform="translate(719.59986,103.67122)">
</g><g
   id="g1931"
   transform="translate(719.59986,103.67122)">
</g><g
   id="g1933"
   transform="translate(719.59986,103.67122)">
</g><g
   id="g1935"
   transform="translate(719.59986,103.67122)">
</g><g
   id="g1937"
   transform="translate(719.59986,103.67122)">
</g><g
   id="g1939"
   transform="translate(719.59986,103.67122)">
</g><path
   style="stroke-width:0.55727297"
   d="m 34.790919,216.27907 c 12.753297,0.19051 21.667816,-10.22625 29.505974,-18.81122 10.395781,-11.41777 22.294998,-21.56568 31.887091,-33.66769 9.295266,-13.75726 5.479676,-33.56542 -7.381908,-43.76412 C 75.927982,107.33533 64.05074,93.544479 50.658797,81.40794 37.413551,71.114938 16.300584,76.296595 8.7572352,91.096233 1.9840545,103.61313 6.0761595,118.45943 4.9476042,131.98641 c 0.3702281,19.93869 -0.7217634,39.96571 0.4790921,59.85552 2.2734143,13.9422 15.1141927,25.00487 29.3642227,24.43714 z"
   id="path1507-3"
   inkscape:connector-curvature="0" /><g
   id="g1625"
   transform="matrix(0.89040738,0,0,0.67883928,153.52106,-0.8863952)"><path
     d="M 415.57031,11.886719 C 292.62319,12.544937 169.65497,11.134607 46.720703,12.625 20.019138,15.588535 2.7436744,49.437834 16.71875,72.642578 25.089941,88.722834 44.822435,97.478483 62.291015,94.555779 183.14539,94.275823 304.04757,95.639126 424.87109,93.851562 450.8715,88.880399 466.88467,54.958705 451.66016,32.46875 444.18893,20.1149 430.19392,11.485678 415.57031,11.886719 Z m 0.0274,181.324221 c -123.05648,0.69069 -246.14006,-0.77782 -369.18001,0.77113 -26.797141,3.20316 -43.9180636,37.55451 -29.333666,60.62535 8.649567,15.74763 27.618384,24.09486 45.011719,21.24739 120.370777,-0.0658 240.766127,0.81614 361.121097,-0.48567 26.39747,-3.59877 43.47831,-37.26745 29.19726,-60.27148 -7.29868,-13.03825 -21.76805,-22.3393 -36.8164,-21.88672 z m -0.0176,181.34765 c -122.97804,0.63912 -245.97987,-0.73518 -368.943361,0.72266 -26.064381,2.98703 -43.3850168,35.68247 -30.640625,58.63477 8.24722,17.29093 28.684656,26.40894 46.988281,23.29635 120.269185,-0.16244 240.568905,0.88332 360.818355,-0.55417 26.5702,-4.05521 43.12685,-38.53683 27.99219,-61.3125 -7.43632,-12.43704 -21.52999,-21.2151 -36.21484,-20.78711 z"
     id="path1623"
     inkscape:connector-curvature="0" /></g></svg>