<?xml version="1.0" encoding="UTF-8" standalone="no"?>
<svg
   xmlns:dc="http://purl.org/dc/elements/1.1/"
   xmlns:cc="http://creativecommons.org/ns#"
   xmlns:rdf="http://www.w3.org/1999/02/22-rdf-syntax-ns#"
   xmlns:svg="http://www.w3.org/2000/svg"
   xmlns="http://www.w3.org/2000/svg"
   xmlns:sodipodi="http://sodipodi.sourceforge.net/DTD/sodipodi-0.dtd"
   xmlns:inkscape="http://www.inkscape.org/namespaces/inkscape"
   height="512pt"
   viewBox="-64 0 511 512"
   width="512pt"
   version="1.1"
   id="svg46"
   sodipodi:docname="seal (1).svg"
   inkscape:version="0.92.3 (2405546, 2018-03-11)">
  <metadata
     id="metadata52">
    <rdf:RDF>
      <cc:Work
         rdf:about="">
        <dc:format>image/svg+xml</dc:format>
        <dc:type
           rdf:resource="http://purl.org/dc/dcmitype/StillImage" />
      </cc:Work>
    </rdf:RDF>
  </metadata>
  <defs
     id="defs50" />
  <sodipodi:namedview
     pagecolor="#ffffff"
     bordercolor="#666666"
     borderopacity="1"
     objecttolerance="10"
     gridtolerance="10"
     guidetolerance="10"
     inkscape:pageopacity="0"
     inkscape:pageshadow="2"
     inkscape:window-width="1918"
     inkscape:window-height="1055"
     id="namedview48"
     showgrid="false"
     showguides="true"
     inkscape:guide-bbox="true"
     inkscape:zoom="0.9777961"
     inkscape:cx="270.64089"
     inkscape:cy="330.79486"
     inkscape:window-x="0"
     inkscape:window-y="0"
     inkscape:window-maximized="1"
     inkscape:current-layer="svg46">
    <sodipodi:guide
       position="587.16378,-46.788895"
       orientation="0,1"
       id="guide877"
       inkscape:locked="false" />
  </sodipodi:namedview>
  <g
     id="g887"
     transform="matrix(1.0067986,0,0,1.0067986,-2.8058,0)">
    <path
       style="fill:#9b2e5d"
       inkscape:connector-curvature="0"
       id="path2"
       d="m 195.86942,346.78617 c -7.27041,-3.97305 -16.38285,-1.30064 -20.35588,5.96976 L 60.851441,290.09236 c 3.97117,-7.26697 1.300641,-16.38284 -5.969766,-20.35588 -7.270407,-3.97305 -16.384711,-1.29721 -20.355882,5.96976 l -71.273084,130.42508 c -2.493218,4.56242 -2.446716,10.08984 0.122341,14.60977 2.570928,4.51649 7.297979,7.38456 12.496934,7.57255 l 82.260487,3.00217 46.954569,67.60968 c 1.34836,1.94764 3.11292,3.50841 5.12504,4.60797 2.40634,1.31497 5.16734,1.96464 7.99411,1.81783 5.19153,-0.27902 9.86856,-3.22517 12.36177,-7.7876 l 71.27122,-130.42164 c 3.97304,-7.27041 1.30063,-16.38284 -5.96976,-20.35588 z m 0,0" />
    <path
       style="fill:#631b3a;fill-opacity:1;stroke-width:1"
       inkscape:connector-curvature="0"
       id="path2-3"
       d="m 344.56268,285.19172 c -7.83606,2.69071 -12.00621,11.2223 -9.3155,19.05837 L 211.6607,346.68238 c -2.68943,-7.83237 -11.2223,-12.0062 -19.05836,-9.3155 -7.83608,2.6907 -12.00495,11.22599 -9.31551,19.05837 l 48.26901,140.57259 c 1.68851,4.9174 5.80202,8.60976 10.87224,9.75986 5.06893,1.1464 10.37417,-0.41096 14.01825,-4.12379 l 57.67892,-58.72771 81.58951,10.90651 c 2.34749,0.31731 4.68985,0.0664 6.85853,-0.67821 2.59355,-0.89057 4.93488,-2.49163 6.73231,-4.67827 3.29418,-4.02223 4.2717,-9.4627 2.58317,-14.3801 l -48.26772,-140.5689 c -2.69071,-7.83607 -11.2223,-12.00621 -19.05837,-9.31551 z m 0,0" />
    <path
       id="path6"
       d="m 383.96484,191.74219 c 0.008,-18.1211 -8.55859,-34.76953 -22.43359,-45.375 6.71094,-16.11328 5.80469,-34.8125 -3.25,-50.49219 C 349.35937,80.410156 333.64844,70.089844 316.16797,67.808594 313.92578,50.496094 303.78906,34.75 288.10547,25.691406 c -8.67188,-5.007812 -18.52344,-7.65625 -28.49219,-7.65625 -7.62109,0 -15.09766,1.523438 -22.01562,4.402344 C 226.99609,8.566406 210.34766,0 192.23437,0 c -18.11718,0 -34.76562,8.566406 -45.36718,22.441406 -6.91797,-2.882812 -14.39453,-4.402344 -22.01563,-4.402344 -9.96484,0 -19.8164,2.644532 -28.492185,7.648438 -15.679687,9.058594 -25.816406,24.808594 -28.0625,42.125 C 50.820312,70.089844 35.113281,80.40625 26.1875,95.871094 17.128906,111.55859 16.226562,130.25781 22.933594,146.375 9.066406,156.97656 0.5,173.62109 0.5,191.73437 c -0.003906,18.11719 8.5625,34.76954 22.433594,45.3711 -6.710938,16.11328 -5.804688,34.8125 3.253906,50.49219 8.925781,15.46484 24.632812,25.78515 42.113281,28.0664 2.246094,17.3125 12.378907,33.0586 28.0625,42.11719 8.675779,5.00781 18.531249,7.65234 28.499999,7.65234 7.61719,0 15.09375,-1.51953 22.00781,-4.39843 10.60157,13.86718 27.25,22.43359 45.36328,22.43359 18.11329,0 34.76172,-8.56641 45.36329,-22.4375 6.91796,2.88281 14.39843,4.40234 22.01953,4.40234 9.96484,0 19.8164,-2.64453 28.48437,-7.64843 15.6875,-9.0586 25.82422,-24.80469 28.07031,-42.125 17.47657,-2.28125 33.1875,-12.59766 42.10547,-28.05469 9.0586,-15.6875 9.96485,-34.38672 3.25391,-50.50391 13.87109,-10.60156 22.4375,-27.25 22.43359,-45.35937 z m 0,0"
       inkscape:connector-curvature="0"
       style="fill:#86e66c" />
    <path
       id="path8"
       d="m 383.96484,191.74219 c 0.008,-18.1211 -8.55859,-34.76953 -22.43359,-45.375 6.71094,-16.11328 5.80469,-34.8125 -3.25,-50.49219 C 349.35937,80.410156 333.64844,70.089844 316.16797,67.808594 313.92578,50.496094 303.78906,34.75 288.10547,25.691406 c -8.67188,-5.007812 -18.52344,-7.65625 -28.49219,-7.65625 -7.62109,0 -15.09766,1.523438 -22.01562,4.402344 C 226.99609,8.566406 210.34766,0 192.23437,0 v 383.46875 c 18.11329,0 34.76563,-8.56641 45.36329,-22.4375 6.91796,2.88281 14.39843,4.40234 22.01953,4.40234 9.96484,0 19.8164,-2.64453 28.48437,-7.64843 15.6875,-9.0586 25.82422,-24.80469 28.07031,-42.125 17.47657,-2.28125 33.1875,-12.59766 42.10547,-28.05469 9.0586,-15.6875 9.96485,-34.38672 3.25391,-50.50391 13.87109,-10.60156 22.4375,-27.25 22.43359,-45.35937 z m 0,0"
       inkscape:connector-curvature="0"
       style="fill:#19bd7b" />
    <path
       id="path34"
       d="m 192.23437,53.023438 c -76.48828,0 -138.714839,62.226562 -138.714839,138.710932 0,76.48829 62.226559,138.71485 138.714839,138.71485 76.48438,0 138.71094,-62.22656 138.71094,-138.71485 0,-76.48437 -62.22656,-138.710932 -138.71094,-138.710932 z m 0,0"
       inkscape:connector-curvature="0"
       style="fill:#ffe9cb" />
    <path
       id="path36"
       d="M 330.94531,191.73437 C 330.94531,115.25 268.71875,53.023438 192.23437,53.023438 V 330.44922 c 76.48438,0 138.71094,-62.22656 138.71094,-138.71485 z m 0,0"
       inkscape:connector-curvature="0"
       style="fill:#ffb64c" />
    <path
       id="path38"
       d="m 277.92578,171.03125 c 0,-17.66797 -12.89844,-32.38281 -29.77344,-35.21484 -2.83593,-16.875 -17.54687,-29.77344 -35.21484,-29.77344 -7.71484,0 -14.85938,2.46875 -20.70703,6.64453 -5.84375,-4.17578 -12.98828,-6.64453 -20.70703,-6.64453 -17.66407,0 -32.375,12.89844 -35.20703,29.77344 -16.875,2.83203 -29.77735,17.54687 -29.77735,35.21484 0,7.71484 2.46875,14.85937 6.64453,20.70312 -4.17578,5.84375 -6.64453,12.99219 -6.64453,20.70704 0,17.66406 12.90235,32.3789 29.77735,35.21093 2.83203,16.87891 17.54296,29.77735 35.20703,29.77735 7.71875,0 14.86328,-2.46875 20.71093,-6.64453 5.84375,4.17187 12.98438,6.64062 20.69532,6.64062 h 0.008 c 17.66797,0 32.37891,-12.89844 35.21484,-29.76953 16.875,-2.83594 29.77344,-17.54688 29.77344,-35.21484 0,-7.71485 -2.46875,-14.85938 -6.64453,-20.70704 4.17969,-5.84375 6.64453,-12.98828 6.64453,-20.70312 z m 0,0"
       inkscape:connector-curvature="0"
       style="fill:#00ab5e" />
    <path
       id="path40"
       d="m 277.92578,171.03125 c 0,-17.66797 -12.89844,-32.38281 -29.77344,-35.21484 -2.83593,-16.875 -17.54687,-29.77344 -35.21484,-29.77344 -7.71484,0 -14.85938,2.46875 -20.70313,6.64453 v 158.09766 c 5.84375,4.17578 12.98438,6.64062 20.69532,6.64453 h 0.008 c 17.66797,0 32.37891,-12.89844 35.21484,-29.77344 16.875,-2.83203 29.77344,-17.54687 29.77344,-35.21484 0,-7.71485 -2.46875,-14.85938 -6.64453,-20.70313 4.17969,-5.84765 6.64453,-12.99219 6.64453,-20.70703 z m 0,0"
       inkscape:connector-curvature="0"
       style="fill:#00734b" />
  </g>
</svg>
