<svg height="512pt" viewBox="-86 0 512 512" width="512pt" xmlns="http://www.w3.org/2000/svg" xmlns:xlink="http://www.w3.org/1999/xlink"><radialGradient id="radial0" cx="169.933918" cy="169.9334753712" gradientUnits="userSpaceOnUse" r="169.9334753712"><stop offset="0" stop-color="#ffe548"/><stop offset=".5034" stop-color="#ffe346"/><stop offset=".6872" stop-color="#ffdd3f"/><stop offset=".8186" stop-color="#ffd233"/><stop offset=".9243" stop-color="#ffc223"/><stop offset="1" stop-color="#ffb211"/></radialGradient><linearGradient id="linear0" gradientUnits="userSpaceOnUse" x1="356.3676545788" x2="36.9460773274" y1="299.762073902" y2="138.0750146232"><stop offset="0" stop-color="#ff9517" stop-opacity="0"/><stop offset=".3074" stop-color="#ee8421" stop-opacity=".305882"/><stop offset=".6784" stop-color="#e07728" stop-opacity=".678431"/><stop offset="1" stop-color="#db722b"/></linearGradient><linearGradient id="linear1" gradientUnits="userSpaceOnUse" x1="119.7652250706" x2="277.8591471192" y1="200.5807042262" y2="334.960583144"><stop offset="0" stop-color="#fcf0cc"/><stop offset=".6415" stop-color="#d4a97b"/><stop offset="1" stop-color="#c08552"/></linearGradient><linearGradient id="linear2" gradientUnits="userSpaceOnUse" x1="167.1317709136" x2="167.1317709136" y1="183.6337981208" y2="233.7568125992"><stop offset="0" stop-color="#ffb2bc" stop-opacity="0"/><stop offset="1" stop-color="#ff90a4"/></linearGradient><linearGradient id="linear3" gradientUnits="userSpaceOnUse" x1="-5.1993713702" x2="304.678822957" y1="239.256196923" y2="553.3938315118"><stop offset="0" stop-color="#fffcf8"/><stop offset=".3107" stop-color="#fefaef"/><stop offset=".818" stop-color="#fdf3d6"/><stop offset="1" stop-color="#fcf0cc"/></linearGradient><linearGradient id="lg1"><stop offset="0" stop-color="#f2e9dc" stop-opacity="0"/><stop offset=".6804" stop-color="#cfa37b" stop-opacity=".682353"/><stop offset="1" stop-color="#c08552"/></linearGradient><linearGradient id="linear4" gradientUnits="userSpaceOnUse" x1="208.0712081126" x2="-54.319668555" xlink:href="#lg1" y1="339.3598697402" y2="76.9689930726"/><linearGradient id="linear5" gradientUnits="userSpaceOnUse" x1="167.1317709136" x2="167.1317709136" xlink:href="#lg1" y1="359.029111133" y2="662.9415993674"/><linearGradient id="linear6" gradientUnits="userSpaceOnUse" x1="271.7036997684" x2="95.610058613" xlink:href="#lg1" y1="482.2912566462" y2="306.1976154908"/><linearGradient id="lg2"><stop offset="0" stop-color="#ffe548"/><stop offset=".2762" stop-color="#ffe144"/><stop offset=".5406" stop-color="#ffd739"/><stop offset=".7993" stop-color="#ffc525"/><stop offset="1" stop-color="#ffb211"/></linearGradient><linearGradient id="linear7" gradientUnits="userSpaceOnUse" x1="152.3673912362" x2="181.4803260986" xlink:href="#lg2" y1="362.6556789658" y2="391.7686138282"/><linearGradient id="linear8" gradientTransform="matrix(-1.003922 0 0 1.003922 2456.606323 0)" gradientUnits="userSpaceOnUse" x1="2267.9172" x2="2292.7905" xlink:href="#lg2" y1="363.3311" y2="388.2044"/><linearGradient id="linear9" gradientUnits="userSpaceOnUse" x1="121.0978311334" x2="290.4294552656" y1="163.614689911" y2="332.9464144354"><stop offset="0" stop-color="#c08552"/><stop offset="1" stop-color="#895738"/></linearGradient><linearGradient id="lg3"><stop offset="0" stop-color="#895738" stop-opacity="0"/><stop offset="1" stop-color="#5e3023"/></linearGradient><linearGradient id="linear10" gradientUnits="userSpaceOnUse" x1="247.588288622" x2="103.352807038" xlink:href="#lg3" y1="297.382778762" y2="-55.1330872194"/><linearGradient id="linear11" gradientUnits="userSpaceOnUse" x1="84.639198997" x2="102.458814497" xlink:href="#lg3" y1="257.153114417" y2="314.627648917"/><linearGradient id="linear12" gradientUnits="userSpaceOnUse" x1="179.2582451438" x2="179.2582451438" y1="324.0837910194" y2="697.4232079092"><stop offset="0" stop-color="#1ccbf7"/><stop offset=".7395" stop-color="#08b0ec"/><stop offset="1" stop-color="#00a5e8"/></linearGradient><linearGradient id="linear13" gradientUnits="userSpaceOnUse" x1="172.261511157" x2="297.249800157" y1="433.4561737016" y2="598.0993817016"><stop offset="0" stop-color="#00a5e8" stop-opacity="0"/><stop offset=".324" stop-color="#0096cd" stop-opacity=".32549"/><stop offset="1" stop-color="#007189"/></linearGradient><radialGradient id="radial1" cx="188.506475" cy="413.615864" gradientUnits="userSpaceOnUse" r="119.6164027702"><stop offset="0" stop-color="#007189"/><stop offset=".676" stop-color="#0096cd" stop-opacity=".32549"/><stop offset="1" stop-color="#00a5e8" stop-opacity="0"/></radialGradient><path d="m339.867188 169.933594c0 93.851562-76.082032 169.933594-169.933594 169.933594-93.851563 0-169.933594-76.082032-169.933594-169.933594 0-93.851563 76.082031-169.933594 169.933594-169.933594 93.851562 0 169.933594 76.082031 169.933594 169.933594zm0 0" fill="url(#radial0)"/><path d="m339.121094 185.8125-89.273438-89.273438c-16.097656-16.886718-38.792968-27.429687-63.960937-27.429687h-29.976563c-48.808594 0-88.378906 39.570313-88.378906 88.390625v147.269531l3.011719 3.003907s11.035156 7.339843 12.046875 7.949218c25.527344 15.324219 55.402344 24.144532 87.34375 24.144532 88.496094 0 161.179687-67.648438 169.1875-154.054688zm0 0" fill="url(#linear0)"/><path d="m264.683594 349.90625h-195.101563v-173.015625c0-53.875 43.671875-97.550781 97.550781-97.550781 53.875 0 97.550782 43.675781 97.550782 97.550781zm0 0" fill="url(#linear1)"/><path d="m185.726562 227.558594h-37.1875l3.234376-61.441406h30.71875zm0 0" fill="url(#linear2)"/><path d="m292.503906 512h-245.140625c-5.113281 0-9.257812-4.144531-9.257812-9.261719v-158.824219c0-15.074218 8.253906-28.9375 21.503906-36.125l27.617187-14.972656c53.601563-18.40625 111.8125-18.40625 165.417969 0l27.617188 14.972656c13.25 7.1875 21.503906 21.050782 21.503906 36.125v158.824219c0 5.117188-4.148437 9.261719-9.261719 9.261719zm0 0" fill="url(#linear3)"/><path d="m280.261719 307.789062-27.617188-14.972656c-53.605469-18.40625-111.816406-18.40625-165.417969 0l-20.660156 11.199219 208.195313 207.984375h17.742187c5.113282 0 9.257813-4.144531 9.257813-9.261719v-158.824219c.003906-15.074218-8.25-28.9375-21.5-36.125zm0 0" fill="url(#linear4)"/><path d="m63.765625 341.398438h206.730469v170.601562h-206.730469zm0 0" fill="url(#linear5)"/><path d="m298.960938 502.738281v-41.914062l-124.957032-123.945313c-1.34375-2.410156-3.914062-4.042968-6.871094-4.042968-4.160156 0-7.5625 3.222656-7.855468 7.304687-1.117188.484375-1.898438 1.59375-1.898438 2.890625v1.21875c0 1.285156.773438 2.390625 1.875 2.878906v11.480469c-.269531.246094-.527344.503906-.773437.773437h-12.664063c-.492187-1.101562-1.59375-1.875-2.878906-1.875h-1.222656c-1.292969 0-2.402344.78125-2.886719 1.898438-4.082031.292969-7.304687 3.695312-7.304687 7.855469 0 2.957031 1.632812 5.523437 4.042968 6.871093l23.6875 23.9375v10.824219c-1.101562.492188-1.875 1.59375-1.875 2.878907v1.222656c0 1.292968.78125 2.40625 1.898438 2.886718.195312 2.71875 1.773437 5.046876 4.027344 6.304688 0 0 70.5625 70.992188 89.644531 89.8125h36.753906c5.113281 0 9.257813-4.144531 9.257813-9.261719zm0 0" fill="url(#linear6)"/><path d="m195.4375 359.40625c-.484375-1.117188-1.59375-1.898438-2.890625-1.898438h-1.21875c-1.285156 0-2.390625.773438-2.878906 1.875h-12.664063c-.246094-.269531-.503906-.527343-.773437-.773437v-11.480469c1.101562-.488281 1.875-1.59375 1.875-2.878906v-1.21875c0-1.296875-.78125-2.40625-1.898438-2.890625-.292969-4.082031-3.695312-7.304687-7.855469-7.304687-4.15625 0-7.5625 3.222656-7.855468 7.304687-1.117188.484375-1.898438 1.59375-1.898438 2.890625v1.21875c0 1.285156.773438 2.390625 1.875 2.878906v11.480469c-.269531.246094-.527344.503906-.773437.773437h-12.664063c-.488281-1.101562-1.59375-1.875-2.878906-1.875h-1.21875c-1.296875 0-2.40625.78125-2.890625 1.898438-4.082031.292969-7.304687 3.695312-7.304687 7.855469 0 4.15625 3.222656 7.558593 7.304687 7.855469.484375 1.113281 1.59375 1.894531 2.890625 1.894531h1.21875c1.285156 0 2.390625-.769531 2.878906-1.875h12.664063c.246093.273437.503906.53125.773437.777343v32.980469c-1.101562.492188-1.875 1.59375-1.875 2.878907v1.222656c0 1.292968.78125 2.402344 1.898438 2.886718.296875 4.082032 3.699218 7.304688 7.855468 7.304688 4.160157 0 7.5625-3.21875 7.855469-7.304688 1.117188-.484374 1.898438-1.59375 1.898438-2.886718v-1.222656c0-1.285157-.773438-2.386719-1.875-2.878907v-32.980469c.269531-.246093.527343-.503906.773437-.777343h12.664063c.488281 1.105469 1.59375 1.875 2.878906 1.875h1.21875c1.296875 0 2.40625-.78125 2.890625-1.894531 4.082031-.296876 7.304688-3.699219 7.304688-7.855469 0-4.160157-3.222657-7.5625-7.304688-7.855469zm0 0" fill="url(#linear7)"/><path d="m167.132812 418.257812c1.535157 0 2.824219-1.199218 2.9375-2.726562l.214844-2.980469.40625-.175781-.609375-.273438v-38.269531l1.609375-1.566406c.15625-.140625.304688-.289063.445313-.445313l1.46875-1.613281h18.050781l.269531.617188.179688-.414063 2.980469-.214844c1.527343-.109374 2.726562-1.398437 2.726562-2.9375 0-1.535156-1.199219-2.824218-2.726562-2.9375l-2.980469-.214843-.179688-.410157-.269531.617188h-18.050781l-1.464844-1.613281c-.144531-.15625-.292969-.304688-.449219-.445313l-1.609375-1.46875v-16.867187l.605469-.269531-.402344-.175782-.214844-2.984375c-.109374-1.527343-1.402343-2.726562-2.9375-2.726562-1.539062 0-2.828124 1.199219-2.9375 2.726562l-.214843 2.984375-.40625.175782.609375.269531v16.867187l-1.613282 1.46875c-.152343.140625-.304687.289063-.445312.445313l-1.46875 1.613281h-18.046875l-.273437-.617188-.175782.410157-2.980468.214843c-1.53125.109376-2.730469 1.402344-2.730469 2.9375 0 1.539063 1.199219 2.828126 2.730469 2.9375l2.980468.214844.175782.414063.273437-.617188h18.046875l1.46875 1.613281c.140625.15625.292969.304688.445312.445313l1.613282 1.46875v38.371094l-.609375.269531.40625.175781.214843 2.980469c.109376 1.527344 1.398438 2.726562 2.9375 2.726562zm0 0" fill="url(#linear8)"/><path d="m184.921875 69.109375h-29.976563c-48.808593 0-88.378906 39.570313-88.378906 88.390625v146.515625l43.375-15.015625c0 12.136719 4.917969 19.894531 12.871094 27.851562 7.957031 7.953126 18.949219 8.554688 31.085938 8.554688h30.140624c24.273438 0 43.957032-12.132812 43.957032-36.40625l45.304687 15.769531v-147.269531c0-48.820312-39.570312-88.390625-88.378906-88.390625zm-54.757813 189.757813c0-9.605469 8.773438-16.835938 18.195313-14.984376 13.980469 2.75 27.238281 2.75 41.21875 0 9.421875-1.851562 18.195313 5.382813 18.195313 14.984376v.324218c0 6.917969-4.644532 13.042969-11.351563 14.753906-18.863281 4.832032-36.042969 4.832032-54.90625 0-6.703125-1.710937-11.351563-7.835937-11.351563-14.753906zm100.441407-27.445313c0-8.148437-6.609375-14.753906-14.769531-14.753906h-29.535157c-4.828125 0-9.203125 1.960937-12.375 5.128906-2.789062 2.792969-7.457031 2.792969-10.25 0-3.167969-3.167969-7.542969-5.128906-12.375-5.128906h-27.28125c-8.148437 0-14.753906 6.605469-14.753906 14.753906v-66.0625c0-17.042969 13.816406-30.863281 30.859375-30.863281h3.761719c14.390625 0 26.042969-11.660156 26.042969-26.050782 0 14.390626 11.660156 26.050782 26.050781 26.050782h3.761719c17.042968 0 30.863281 13.820312 30.863281 30.863281zm0 0" fill="url(#linear9)"/><path d="m184.921875 69.109375h-14.988281s-.003906 39.886719-.003906 39.335937c0 4.945313 1.378906 9.570313 3.769531 13.507813.21875.359375.445312.710937.679687 1.058594 4.679688 6.929687 12.609375 11.484375 21.605469 11.484375h3.761719c17.039062 0 30.859375 13.820312 30.859375 30.859375v66.066406c0-.507813-.027344-1.011719-.078125-1.507813-.753906-7.441406-7.039063-13.25-14.691406-13.25h-29.53125c-4.832032 0-9.207032 1.964844-12.375 5.132813-.007813.007813-.019532.015625-.027344.023437-.164063.160157-.332032.316407-.507813.457032-.097656.078125-.199219.148437-.296875.21875-.09375.066406-.179687.136718-.273437.199218-.136719.089844-.277344.167969-.421875.25-.058594.03125-.113282.070313-.171875.101563-.171875.089844-.347657.171875-.527344.246094-.03125.011719-.0625.03125-.089844.042969-.203125.082031-.40625.152343-.609375.214843-.011718.003907-.019531.007813-.03125.011719-.648437.199219-1.324218.304688-2.003906.320312v22.0625c6.8125 0 13.621094-.6875 20.609375-2.0625 9.421875-1.851562 18.195313 5.378907 18.195313 14.984376v.324218c0 6.917969-4.644532 13.042969-11.347657 14.753906-9.433593 2.417969-18.445312 3.625-27.457031 3.625v47.835938h15.070312c24.273438 0 43.957032-12.132812 43.957032-36.40625l45.304687 15.769531v-147.269531c0-48.820312-39.570312-88.390625-88.378906-88.390625zm0 0" fill="url(#linear10)"/><path d="m66.566406 231.421875v72.59375l43.375-15.015625-.675781-57.578125zm0 0" fill="url(#linear11)"/><path d="m53.949219 490.011719v21.988281h241.144531c5.230469 0 9.472656-4.242188 9.472656-9.472656v-162.460938c0-15.417968-8.445312-29.597656-21.996094-36.949218-4.582031-1.785157-9.78125-.03125-12.34375 4.167968l-45.347656 74.347656c-24.828125 39.296876-63.578125 67.769532-108.5 79.714844l-50.773437 13.503906c-6.871094 1.828126-11.65625 8.046876-11.65625 15.160157zm0 0" fill="url(#linear12)"/><path d="m270.496094 341.398438c-13.089844 0-25.234375 6.816406-32.046875 17.992187l-13.570313 22.242187c-24.824218 39.300782-63.578125 67.769532-108.5 79.714844l-50.773437 13.503906c-.632813.167969-1.242188.386719-1.839844.625v36.523438h206.730469zm0 0" fill="url(#linear13)"/><path d="m304.566406 502.527344v-162.460938c0-9.496094-3.214844-18.515625-8.839844-25.769531l-10.796874 35.570313c-23.230469 76.527343-93.785157 128.847656-173.761719 128.847656h-52.402344c-2.996094 2.882812-4.8125 6.921875-4.8125 11.296875v21.988281h241.140625c5.230469 0 9.472656-4.242188 9.472656-9.472656zm0 0" fill="url(#radial1)"/></svg>